{"glyphs":{"0":{"ha":429,"x_min":47,"x_max":384,"o":"m 229 749 q 317 701 288 738 q 359 612 347 663 q 375 505 372 562 q 384 400 378 448 q 382 338 384 377 q 374 256 380 300 q 358 166 369 212 q 328 83 347 121 q 279 23 308 46 q 209 0 250 0 q 159 12 184 -11 q 113 81 134 35 q 74 191 91 127 q 50 325 57 255 q 48 464 43 395 q 73 592 53 533 q 132 693 94 651 q 229 749 170 735 m 104 505 q 116 267 104 359 q 145 126 127 175 q 185 66 163 77 q 230 69 208 54 q 274 121 252 84 q 310 208 296 159 q 331 311 324 256 q 332 416 338 366 q 328 499 332 456 q 313 581 323 543 q 283 650 302 620 q 236 694 264 681 q 188 674 212 694 q 146 625 164 654 q 115 566 127 597 q 103 513 103 534 l 103 507 q 104 505 103 506 z "},"1":{"ha":156,"x_min":42,"x_max":117,"o":"m 64 18 q 46 231 50 127 q 43 436 42 335 q 46 639 43 537 q 46 850 49 741 q 53 861 46 854 q 64 868 60 868 q 81 861 68 868 q 99 850 95 854 q 101 763 99 823 q 104 627 103 703 q 106 469 104 552 q 111 310 109 385 q 114 175 113 235 q 115 87 115 115 q 115 68 115 84 q 115 45 115 52 q 116 27 115 35 q 114 13 117 19 q 104 3 111 7 q 81 0 96 0 q 71 7 77 0 q 64 18 64 14 z "},"2":{"ha":712,"x_min":28,"x_max":689,"o":"m 151 53 q 227 189 190 119 q 294 330 264 259 q 340 475 323 401 q 359 628 358 549 q 330 698 346 673 q 285 717 315 723 q 203 669 255 711 q 64 538 152 627 q 40 557 52 547 q 28 581 28 567 q 29 585 28 582 q 30 590 30 589 q 89 655 56 618 q 161 724 122 692 q 243 778 201 757 q 335 799 286 799 q 403 729 382 777 q 424 618 423 681 q 410 484 425 555 q 370 342 395 412 q 314 208 345 271 q 255 99 283 144 l 618 209 q 626 210 620 209 q 636 210 632 210 q 652 209 643 210 q 669 205 662 208 q 683 197 677 202 q 689 183 689 191 q 576 132 640 152 q 443 93 511 111 q 309 57 374 75 q 193 15 244 39 q 163 20 175 15 q 151 53 151 24 z "},"3":{"ha":642,"x_min":22,"x_max":616,"o":"m 231 43 q 254 88 231 65 q 313 138 278 111 q 389 195 347 164 q 466 261 431 225 q 524 338 500 297 q 548 427 548 380 q 534 484 548 461 q 498 518 519 506 q 448 535 476 530 q 393 540 420 540 q 337 531 363 543 q 284 504 311 519 q 233 471 258 488 q 184 444 208 454 q 138 437 160 434 q 92 461 115 439 l 92 465 q 94 469 92 469 l 335 746 q 375 830 374 800 q 353 870 376 860 q 292 873 331 880 q 211 848 252 867 q 132 803 170 830 q 76 746 94 776 q 71 745 75 746 q 66 745 68 745 q 36 759 50 745 q 22 789 22 773 q 43 828 22 808 q 99 866 65 848 q 175 901 133 884 q 258 929 217 917 q 334 949 298 941 q 388 956 369 956 q 434 911 423 939 q 439 848 445 883 q 414 776 433 814 q 372 701 396 738 q 324 631 349 665 q 283 572 300 597 q 345 591 312 590 q 410 591 378 591 q 481 582 445 591 q 548 553 518 572 q 597 504 578 533 q 616 434 616 475 q 579 304 616 366 q 490 186 543 241 q 376 83 437 130 q 266 0 315 37 q 242 18 254 7 q 231 43 231 28 z "},"4":{"ha":700,"x_min":9,"x_max":671,"o":"m 9 365 q 11 383 9 368 q 16 416 12 399 q 31 445 20 433 q 58 452 41 457 q 165 602 118 528 q 254 749 212 675 q 336 900 296 823 q 422 1058 376 977 q 437 1076 429 1073 q 457 1078 445 1078 q 479 1076 465 1078 q 492 1058 492 1073 l 492 538 q 582 549 538 538 q 671 560 625 560 q 669 507 684 521 q 625 490 654 494 q 559 484 595 486 q 492 469 522 481 l 492 35 q 484 21 492 28 q 463 9 475 14 q 440 1 452 4 q 422 -3 429 -3 l 422 457 l 9 365 m 422 868 q 355 769 392 821 q 281 665 317 718 q 214 558 245 612 q 163 452 182 505 l 179 452 q 248 470 206 458 q 328 493 289 481 q 395 513 368 505 l 422 521 l 422 868 z "},"5":{"ha":665,"x_min":26,"x_max":637,"o":"m 218 34 q 234 91 218 62 q 273 149 250 119 q 325 212 297 179 q 376 281 353 244 q 415 359 399 317 q 431 452 431 401 q 341 532 430 559 q 91 328 252 505 q 79 333 84 330 q 69 349 73 336 q 61 388 65 362 q 56 460 57 414 q 57 575 56 506 q 64 746 58 644 q 31 782 39 761 q 26 825 23 803 q 39 869 28 848 q 64 904 50 890 q 94 923 79 918 q 121 917 110 928 q 142 909 133 917 q 155 892 151 902 q 162 871 160 883 q 167 850 164 860 l 583 955 q 592 956 585 955 q 604 956 600 956 q 627 951 616 956 q 637 930 637 945 q 633 907 637 917 q 618 884 628 897 q 488 882 551 895 q 359 850 425 869 q 233 810 278 829 q 165 763 189 792 q 137 686 142 734 q 132 555 132 637 l 132 530 q 132 495 132 514 q 133 457 133 476 l 133 433 q 191 498 163 467 q 249 555 218 530 q 315 595 279 579 q 397 610 351 610 q 446 597 426 610 q 477 563 465 583 q 494 517 488 543 q 499 468 499 491 q 477 334 499 399 q 417 209 454 269 q 333 96 380 149 q 237 0 286 43 q 220 14 222 5 q 218 34 218 23 z "},"6":{"ha":521,"x_min":34,"x_max":488,"o":"m 209 -1 q 134 24 164 0 q 83 86 103 49 q 53 170 64 123 q 38 264 42 217 q 34 356 34 312 q 35 433 34 400 l 156 1111 q 174 1124 159 1119 q 201 1128 190 1128 q 221 1118 216 1128 q 227 1093 227 1107 q 226 1085 227 1092 q 225 1077 225 1078 q 174 842 195 941 q 140 673 153 743 q 119 558 126 604 q 107 485 111 513 q 103 443 103 457 q 103 420 103 429 q 103 277 103 342 q 121 156 103 212 q 149 234 134 191 q 182 319 164 277 q 223 402 201 362 q 274 473 245 442 q 338 522 302 503 q 418 540 373 540 q 455 538 441 540 q 476 531 469 537 q 486 512 483 525 q 488 476 488 499 q 477 400 488 446 q 447 301 467 354 q 400 194 427 248 q 342 97 373 140 q 277 26 312 54 q 209 -1 243 -1 m 186 111 q 212 78 195 81 q 248 89 228 75 q 288 130 267 103 q 330 189 309 156 q 368 254 350 221 q 400 312 387 286 q 435 425 431 387 q 425 472 438 463 q 386 467 412 481 q 329 423 359 453 q 268 352 298 393 q 216 268 237 311 q 184 183 194 225 q 186 111 175 141 z "},"7":{"ha":636,"x_min":16,"x_max":591,"o":"m 486 930 q 380 923 433 930 q 277 907 328 916 q 173 891 225 898 q 68 884 121 884 l 52 884 q 35 886 42 884 q 22 894 27 888 q 16 910 16 899 q 51 932 16 920 q 140 957 85 944 q 258 982 194 970 q 384 1004 323 994 q 492 1019 445 1013 q 556 1025 538 1025 q 591 990 591 1025 l 591 982 q 590 972 591 975 q 525 817 556 898 q 469 652 494 736 q 430 483 445 568 q 415 316 415 397 q 416 243 415 275 q 421 180 418 212 q 432 113 425 148 q 452 35 439 79 q 444 10 449 22 q 425 -1 438 -1 q 397 3 412 -3 q 368 37 381 9 q 347 117 354 64 q 345 264 339 170 q 374 498 351 358 q 442 838 396 639 l 486 930 z "},"8":{"ha":463,"x_min":30,"x_max":412,"o":"m 114 102 q 124 176 114 141 q 149 244 134 212 l 178 311 q 202 382 193 346 q 151 429 180 401 q 94 487 121 456 q 48 553 66 518 q 30 625 30 589 q 31 709 19 665 q 66 796 42 754 q 126 874 91 838 q 199 934 161 910 q 275 965 237 958 q 342 959 312 972 q 392 905 373 945 q 412 792 411 864 q 399 694 412 745 q 367 593 387 643 q 326 495 347 543 q 288 408 304 448 q 307 347 288 377 q 349 286 327 317 q 391 220 372 254 q 411 148 411 186 q 395 79 411 107 q 351 33 378 50 q 290 7 324 15 q 218 -1 255 -1 q 140 25 167 -1 q 114 102 114 52 m 96 654 q 104 590 96 617 q 126 541 111 563 q 165 497 141 518 q 220 452 189 476 q 282 535 254 486 q 330 637 311 585 q 359 738 349 689 q 370 822 370 787 q 294 795 331 799 q 238 801 256 791 q 228 833 220 811 q 289 884 236 856 l 237 884 q 180 858 206 884 q 135 794 153 831 q 106 718 117 757 q 96 654 96 678 m 167 103 q 208 68 176 79 q 275 64 240 58 q 335 92 309 71 q 359 149 361 113 q 351 199 359 174 q 328 250 343 225 q 294 295 313 274 q 255 330 275 316 q 216 289 232 316 q 188 228 199 262 q 172 161 176 194 q 167 103 167 127 z "},"9":{"ha":661,"x_min":18,"x_max":609,"o":"m 505 764 q 446 687 477 730 q 378 602 414 644 q 304 519 342 559 q 227 452 266 480 q 147 412 187 425 q 68 411 107 400 q 50 418 58 411 q 33 435 41 425 q 22 460 26 446 q 18 486 18 473 q 33 578 18 529 q 76 679 49 628 q 140 777 103 730 q 219 859 176 823 q 309 917 262 895 q 403 939 357 939 q 484 924 453 939 q 534 884 515 909 q 559 827 552 860 q 570 757 567 793 q 572 682 572 720 q 572 608 571 643 q 581 475 575 543 q 593 342 587 408 q 604 211 600 277 q 609 79 609 145 q 608 54 609 68 q 604 28 608 41 q 591 7 601 16 q 564 -1 582 -1 q 546 9 551 -1 q 538 35 541 20 q 538 126 540 69 q 533 251 536 183 q 526 393 530 319 q 517 537 521 468 q 509 666 513 606 q 505 764 506 726 m 88 555 q 86 495 77 510 q 118 487 95 480 q 175 519 141 494 q 246 580 209 544 q 320 659 283 616 q 387 742 357 701 q 435 818 416 783 q 457 875 454 853 q 328 849 384 875 q 229 779 273 823 q 150 677 184 735 q 88 555 115 618 z "}," ":{"ha":625,"x_min":0,"x_max":0,"o":""},"!":{"ha":191,"x_min":20,"x_max":164,"o":"m 23 663 q 28 911 23 788 q 42 1164 34 1034 q 52 1178 46 1175 q 66 1181 57 1181 q 85 1174 80 1181 q 93 1157 91 1166 q 94 1136 95 1147 q 94 1116 94 1124 l 94 701 q 98 650 94 677 l 106 595 q 113 545 111 568 q 110 505 115 521 q 94 479 107 490 q 66 468 81 468 q 33 492 42 468 q 21 549 23 517 q 21 614 19 582 q 23 663 23 647 m 109 33 l 109 54 q 110 68 109 61 q 115 81 111 76 q 127 87 119 87 q 159 74 155 87 q 164 43 164 61 q 159 12 164 24 q 127 0 155 0 q 115 5 119 0 q 110 18 111 11 q 109 33 109 26 z "},"\"":{"ha":296,"x_min":35,"x_max":244,"o":"m 35 1078 q 50 1094 41 1092 q 71 1096 60 1096 q 96 1090 87 1096 q 104 1059 106 1084 q 117 907 111 979 q 122 760 122 836 q 123 739 122 750 q 121 718 123 728 q 113 701 119 708 q 95 693 107 693 q 79 715 85 693 q 67 774 72 738 q 58 854 62 811 q 51 941 54 898 q 44 1020 47 983 q 35 1078 41 1057 m 191 1078 q 212 1078 202 1081 q 230 1068 222 1074 q 241 1055 237 1062 q 244 1043 244 1047 l 244 736 q 208 747 224 736 q 191 781 191 758 l 191 1078 z "},"#":{"ha":625,"x_min":72,"x_max":632,"o":"m 194 232 q 154 217 171 221 q 113 213 137 213 q 83 218 95 213 q 72 250 72 222 q 87 269 72 260 q 121 286 102 278 q 156 297 140 293 q 176 302 172 301 l 176 511 q 136 518 153 513 q 106 528 119 521 q 91 544 92 534 q 87 557 88 551 q 85 571 87 564 q 84 589 84 579 l 174 589 q 176 612 175 600 q 176 650 178 633 q 173 669 176 652 q 167 702 170 685 q 161 734 164 719 q 159 753 159 750 l 159 773 q 164 798 159 787 q 186 808 170 808 q 212 795 201 808 q 229 761 222 781 q 239 716 236 741 q 243 671 241 692 q 245 633 245 650 q 247 616 245 617 q 270 613 254 612 q 303 619 286 614 q 334 632 320 624 q 350 650 347 640 l 350 875 q 357 886 350 879 q 368 892 363 892 q 386 886 372 892 q 403 875 400 879 q 407 833 404 856 q 414 785 410 810 q 424 736 418 761 q 437 692 430 712 l 543 692 q 526 666 543 675 q 490 650 510 656 q 453 637 469 644 q 437 616 437 629 l 437 463 q 488 473 464 463 q 534 496 511 483 q 581 519 557 509 q 632 530 605 530 q 618 492 632 507 q 586 467 605 477 q 543 447 567 457 q 500 425 519 437 q 468 396 481 414 q 454 351 454 378 q 457 277 454 309 q 471 199 460 244 l 426 152 l 384 336 q 382 338 384 336 q 380 338 381 338 q 377 339 378 339 q 312 321 340 339 q 267 274 283 302 q 248 211 250 245 q 263 146 247 176 l 247 127 q 225 151 235 134 q 209 186 216 167 q 194 232 201 208 m 250 540 q 243 494 243 519 q 246 443 243 469 q 254 389 250 416 q 263 336 259 361 l 368 407 l 368 586 q 290 574 324 586 q 250 540 255 562 z "},"$":{"ha":618,"x_min":4,"x_max":578,"o":"m 298 140 q 281 130 293 136 q 255 118 269 123 q 230 108 241 113 q 213 103 218 103 q 201 109 205 103 q 196 120 198 114 q 193 132 194 126 q 193 141 193 138 q 193 151 193 145 q 195 156 194 156 l 298 209 l 298 216 q 299 222 298 218 q 300 228 300 225 q 298 288 300 254 q 292 354 296 321 q 285 414 288 387 q 281 452 282 441 q 247 449 271 450 q 191 448 222 448 q 127 453 160 449 q 66 467 94 457 q 22 494 39 477 q 4 538 4 511 q 33 638 5 595 q 98 717 60 681 q 181 784 137 753 q 263 850 225 815 q 259 910 262 872 q 260 987 256 948 q 281 1054 264 1025 q 334 1082 297 1082 l 334 868 q 378 882 359 878 q 420 886 396 886 q 446 880 434 886 q 457 860 457 875 q 442 833 457 842 q 407 819 427 825 q 366 810 387 814 q 334 799 346 807 q 333 777 334 792 q 332 746 332 762 l 332 606 q 351 521 332 562 q 470 494 410 514 q 576 433 530 473 q 578 420 578 431 l 578 408 q 557 334 578 366 q 505 276 536 302 q 441 225 475 250 q 385 174 408 201 q 385 161 385 170 q 384 142 384 152 q 384 125 384 133 l 384 113 q 390 55 384 83 q 402 -1 396 27 q 414 -58 408 -30 q 420 -114 420 -85 q 412 -137 420 -130 q 385 -156 404 -144 l 369 -140 l 298 140 m 91 555 q 104 524 91 534 q 136 509 117 513 q 176 504 155 505 q 213 503 198 503 q 224 503 216 503 q 241 503 233 502 q 256 509 250 505 q 263 521 263 513 l 263 750 q 207 729 237 750 q 151 678 176 708 q 108 614 125 648 q 91 555 91 581 m 347 464 q 353 361 347 408 q 369 260 359 315 q 373 260 370 260 q 377 259 376 259 q 420 273 395 259 q 469 307 445 286 q 511 353 494 328 q 528 400 528 378 q 503 439 528 426 q 445 458 477 453 q 384 464 412 464 l 347 464 z "},"%":{"ha":625,"x_min":22,"x_max":597,"o":"m 178 35 q 178 44 178 38 q 179 53 179 50 q 216 307 195 176 q 264 569 237 438 q 327 828 292 700 q 407 1077 362 956 q 427 1088 418 1084 q 450 1093 437 1093 q 468 1086 460 1093 q 476 1067 476 1080 l 476 1062 q 475 1058 476 1059 q 392 791 431 928 q 319 520 353 655 q 258 254 286 385 q 206 -1 229 122 q 184 10 190 -1 q 178 35 178 22 m 22 799 q 28 859 22 830 q 49 909 34 887 q 88 943 64 930 q 149 956 113 956 q 184 948 165 956 q 217 926 202 940 q 241 896 232 913 q 250 860 250 879 q 239 797 250 834 q 208 724 228 760 q 162 665 189 689 q 103 640 136 640 q 56 658 72 640 q 32 701 39 675 q 23 752 24 726 q 22 799 22 779 m 438 346 q 437 391 438 359 q 441 455 437 422 q 459 513 446 488 q 500 538 472 538 q 543 526 525 538 q 573 493 562 513 q 591 450 585 473 q 597 408 597 427 q 589 353 597 384 q 568 292 582 321 q 532 242 553 262 q 483 222 510 222 q 450 236 460 222 q 437 269 441 250 q 436 310 434 289 q 438 346 438 331 m 144 903 q 111 876 122 903 q 94 813 99 848 q 90 746 90 779 l 90 701 q 135 716 113 701 q 175 753 157 731 q 203 802 193 776 q 214 850 214 829 q 208 874 214 864 q 190 890 201 884 q 167 900 179 897 q 144 903 155 903 m 491 347 q 493 326 491 335 q 510 312 495 317 q 536 356 528 339 q 545 399 545 373 q 542 425 545 415 q 528 452 538 435 q 507 433 514 445 q 496 406 499 420 q 492 375 492 391 q 491 347 491 359 z "},"&":{"ha":495,"x_min":22,"x_max":458,"o":"m 252 347 q 136 244 180 270 q 66 229 91 218 q 31 280 41 240 q 22 373 22 320 q 38 452 22 420 q 79 500 54 483 q 132 522 103 518 q 184 517 160 525 q 225 494 209 510 q 241 457 239 477 l 241 746 q 250 758 241 753 q 270 765 259 762 q 290 768 281 768 q 301 769 298 769 l 297 490 q 366 543 334 522 q 422 571 399 563 q 456 574 445 579 q 458 549 467 568 q 420 499 450 530 q 332 420 389 468 q 326 414 328 419 q 321 389 323 410 q 319 322 320 368 q 319 191 319 277 q 307 169 319 178 q 279 157 294 160 q 252 157 264 153 q 241 174 240 161 l 252 347 m 127 469 q 85 441 99 469 q 68 380 71 414 q 74 317 66 346 q 95 285 81 288 q 102 280 94 274 q 125 300 111 286 q 157 332 140 313 q 189 367 175 350 q 213 397 203 384 q 221 411 222 410 q 127 469 174 469 z "},"'":{"ha":216,"x_min":45,"x_max":140,"o":"m 80 521 q 76 555 79 532 q 70 608 73 579 q 62 669 66 636 q 55 730 58 701 q 49 783 52 760 q 45 817 46 806 l 45 826 q 52 857 45 844 q 79 871 60 871 q 113 853 100 871 q 131 810 125 836 q 138 753 137 784 q 139 693 140 722 q 136 644 138 665 q 134 616 134 623 l 134 586 q 134 542 134 566 q 132 498 133 518 q 132 469 132 477 q 97 486 111 471 q 80 521 83 500 z "},"(":{"ha":406,"x_min":22,"x_max":372,"o":"m 22 410 q 46 610 22 510 q 113 805 71 711 q 212 986 155 899 q 335 1146 270 1073 q 340 1147 336 1146 q 346 1147 345 1147 q 366 1136 361 1147 q 372 1111 372 1124 q 372 1102 372 1108 q 372 1093 372 1096 q 259 941 311 1020 q 170 776 208 861 q 112 599 133 690 q 91 411 91 507 q 106 286 91 350 q 154 167 122 222 q 235 71 186 111 q 354 18 285 30 q 318 3 332 7 q 283 -1 304 -1 q 204 20 240 -1 q 140 77 168 42 q 89 157 111 113 q 52 247 66 201 q 29 336 37 293 q 22 410 22 378 z "},")":{"ha":335,"x_min":34,"x_max":298,"o":"m 245 480 q 235 628 245 557 q 201 761 225 699 q 138 881 178 823 q 35 990 98 939 q 34 998 34 993 l 34 1006 q 39 1031 34 1020 q 61 1043 45 1043 l 65 1043 q 69 1042 68 1043 q 181 926 137 985 q 251 803 225 868 q 288 664 277 738 q 298 503 298 590 q 291 370 298 441 q 263 231 283 298 q 208 103 243 164 q 121 0 174 42 l 121 18 q 140 115 121 64 q 183 224 160 165 q 226 345 206 282 q 245 480 245 408 z "},"*":{"ha":669,"x_min":22,"x_max":637,"o":"m 220 359 q 119 347 161 350 q 58 330 76 343 q 35 348 49 336 q 22 373 22 359 q 45 399 22 392 q 100 410 68 407 q 166 415 133 412 q 220 426 199 418 l 54 528 q 35 547 41 536 q 37 567 30 557 q 49 580 42 575 q 66 581 56 585 l 241 514 l 241 746 q 250 758 241 753 q 270 765 259 762 q 290 768 281 768 q 301 769 298 769 l 305 528 q 346 566 321 541 q 393 620 370 591 q 432 673 415 648 q 452 712 449 699 q 463 710 457 713 q 475 701 468 707 q 488 688 481 694 q 500 677 494 681 q 507 656 513 670 q 485 626 500 643 q 448 590 469 609 q 406 553 426 571 q 373 518 387 534 q 359 490 359 502 q 429 511 396 502 q 495 526 463 519 q 562 536 528 532 q 637 540 597 540 q 633 509 637 528 q 614 486 629 491 q 569 476 601 483 q 501 460 537 469 q 433 444 465 452 q 388 433 400 437 q 379 432 384 433 q 369 429 374 431 l 570 308 q 576 294 576 304 q 571 274 575 285 q 563 255 567 263 q 557 245 559 247 l 332 373 l 363 121 q 355 96 363 104 q 337 86 347 88 q 319 88 327 84 q 311 103 311 92 l 279 346 q 251 273 273 307 q 204 212 229 239 q 153 163 179 184 l 111 126 q 96 148 102 133 q 77 175 90 163 q 82 196 72 179 q 110 233 92 213 q 148 276 127 254 q 186 317 168 298 q 214 347 203 335 q 220 359 224 359 z "},"+":{"ha":648,"x_min":22,"x_max":637,"o":"m 212 368 q 132 355 172 368 q 58 330 91 343 q 35 348 49 336 q 22 373 22 359 q 38 396 22 388 q 79 408 54 404 q 132 413 103 411 q 184 418 160 415 q 225 429 209 422 q 241 452 241 437 l 241 746 q 250 758 241 753 q 270 765 259 762 q 290 768 281 768 q 301 769 298 769 l 301 469 q 466 517 378 494 q 637 540 553 540 q 633 509 637 528 q 614 486 629 491 q 569 476 601 483 q 501 460 537 469 q 433 444 465 452 q 388 433 400 437 q 376 431 384 433 q 360 425 369 429 q 345 420 351 422 q 335 416 338 418 q 326 408 332 414 q 319 399 319 401 l 319 191 q 313 165 319 175 q 294 155 307 155 q 277 159 285 155 q 266 174 269 164 l 232 365 q 224 366 228 365 q 216 367 220 366 q 212 368 213 368 z "},",":{"ha":156,"x_min":39,"x_max":142,"o":"m 47 -155 q 50 -113 49 -140 q 52 -56 52 -85 q 54 0 53 -27 q 56 42 54 27 q 52 52 54 45 q 45 68 49 60 q 41 84 42 77 q 39 95 39 91 q 59 149 39 134 q 115 164 79 164 q 135 125 127 145 q 142 74 142 106 q 132 -7 142 42 q 100 -138 122 -57 l 47 -155 z "},"-":{"ha":555,"x_min":18,"x_max":524,"o":"m 18 277 q 24 296 18 282 q 35 312 31 309 q 155 338 95 316 q 275 385 216 359 q 393 431 335 410 q 505 452 450 452 q 515 445 511 452 q 522 429 519 438 q 524 412 524 420 l 524 403 q 522 390 524 397 q 521 381 521 382 l 121 260 q 104 258 118 259 q 81 258 90 258 l 71 256 q 49 258 61 256 q 27 263 37 259 q 18 277 18 267 z "},".":{"ha":179,"x_min":35,"x_max":140,"o":"m 35 53 q 68 81 54 73 q 103 88 81 88 q 140 53 140 88 q 135 35 140 45 q 123 15 130 24 q 106 1 115 5 q 88 0 96 -4 q 68 -3 79 -7 q 50 8 58 0 q 37 28 42 16 q 35 53 33 39 z "},"/":{"ha":426,"x_min":8,"x_max":389,"o":"m 8 -62 l 323 970 l 389 970 l 53 -117 q 22 -103 35 -117 q 8 -72 8 -90 l 8 -62 z "},":":{"ha":167,"x_min":33,"x_max":123,"o":"m 52 201 q 58 233 52 221 q 88 244 65 244 q 123 208 123 244 q 111 172 123 190 q 79 155 99 155 q 55 170 58 155 q 52 201 52 184 m 33 548 q 37 578 33 566 q 69 590 42 590 q 102 578 98 590 q 106 549 106 567 q 102 519 106 534 q 79 503 99 503 q 33 548 33 503 z "},";":{"ha":168,"x_min":39,"x_max":142,"o":"m 41 366 q 54 397 41 384 q 84 411 66 411 q 111 399 98 411 q 127 374 125 388 q 127 354 130 361 q 117 344 123 347 q 101 340 110 340 q 87 339 92 339 q 56 343 71 339 q 41 366 41 347 m 47 -155 q 50 -113 49 -140 q 52 -56 52 -85 q 54 0 53 -27 q 56 42 54 27 q 52 52 54 45 q 45 68 49 60 q 41 84 42 77 q 39 95 39 91 q 59 149 39 134 q 115 164 79 164 q 135 125 127 145 q 142 74 142 106 q 132 -7 142 42 q 100 -138 122 -57 l 47 -155 z "},"<":{"ha":568,"x_min":66,"x_max":556,"o":"m 69 496 q 71 500 71 499 l 481 842 q 493 858 488 849 q 503 873 498 867 q 515 882 507 879 q 534 880 522 884 q 555 858 553 873 q 552 825 557 842 q 551 821 551 823 q 549 818 551 819 q 460 716 505 755 q 369 643 416 677 q 269 574 321 609 q 157 484 217 538 l 167 463 q 197 441 168 460 q 263 399 225 423 q 342 351 301 376 q 408 312 384 327 q 429 302 414 309 q 463 289 445 296 q 498 276 481 282 q 521 269 514 270 q 526 244 525 254 q 522 222 528 235 q 500 194 517 206 q 468 176 484 182 q 408 220 448 195 q 321 272 368 244 q 225 330 274 300 q 138 388 176 359 q 79 443 100 416 q 66 492 58 469 l 69 496 z "},"=":{"ha":602,"x_min":30,"x_max":583,"o":"m 30 156 q 36 175 30 161 q 46 191 42 189 q 182 216 115 197 q 314 258 248 236 q 447 296 380 279 q 583 313 514 313 q 552 256 583 275 q 480 228 521 237 q 399 216 439 218 q 342 208 359 213 q 289 192 327 203 q 210 166 251 180 q 132 140 168 152 q 81 121 95 127 q 54 133 66 127 q 37 145 45 140 q 30 156 30 151 m 61 404 q 62 416 61 407 q 65 430 64 426 q 110 437 79 433 q 180 445 141 441 l 263 456 q 347 467 308 461 q 417 476 385 472 q 464 481 449 480 q 477 481 467 481 q 500 482 488 481 q 524 484 513 483 q 537 484 534 484 q 509 450 537 467 q 439 420 481 434 q 345 395 396 407 q 247 376 294 384 q 161 364 199 369 q 107 359 123 359 q 61 404 61 359 z "},">":{"ha":625,"x_min":64,"x_max":544,"o":"m 64 201 q 104 264 68 228 q 189 338 140 300 q 294 418 239 377 q 391 496 349 458 q 456 567 434 533 q 463 625 479 601 l 83 830 q 72 847 79 834 q 65 865 65 860 q 68 878 65 871 q 77 892 72 884 q 89 907 83 901 q 100 917 95 913 l 515 677 q 544 618 548 655 q 511 536 540 581 q 434 442 481 491 q 334 347 387 393 q 229 262 281 301 q 140 196 178 222 q 85 161 103 170 q 83 165 66 152 q 66 179 68 165 q 64 201 64 193 z "},"?":{"ha":618,"x_min":18,"x_max":591,"o":"m 244 53 q 253 83 244 76 q 277 90 262 90 q 316 73 300 90 q 332 34 332 56 q 318 7 332 15 q 286 0 304 0 q 271 6 278 0 q 257 21 263 12 q 248 38 251 30 q 244 53 244 46 m 172 601 q 199 700 172 655 q 263 785 225 745 q 347 863 301 825 q 431 941 393 901 q 496 1027 469 982 q 522 1128 522 1073 q 506 1175 522 1160 q 465 1196 490 1190 q 412 1201 441 1202 q 359 1200 384 1200 q 277 1183 316 1200 q 201 1145 237 1165 q 130 1109 165 1126 q 58 1092 95 1092 q 30 1097 42 1092 q 18 1128 18 1101 q 41 1161 18 1145 q 100 1193 64 1177 q 180 1223 136 1208 q 266 1246 224 1237 q 341 1262 308 1256 q 392 1268 374 1268 q 458 1263 422 1268 q 523 1246 494 1259 q 572 1209 552 1233 q 591 1147 591 1185 q 556 1010 591 1078 q 471 882 521 943 q 368 770 422 822 q 277 677 315 718 q 256 652 260 669 q 256 616 251 635 q 276 581 262 598 q 313 555 290 564 q 363 550 335 547 q 426 574 392 553 l 452 521 q 385 492 423 499 q 312 484 347 484 q 262 492 286 484 q 217 515 237 500 q 184 552 197 530 q 172 601 172 574 z "},"@":{"ha":1313,"x_min":35,"x_max":1283,"o":"m 35 399 q 65 585 35 487 q 149 777 95 682 q 275 958 202 872 q 433 1108 347 1043 q 611 1212 518 1173 q 799 1251 704 1251 q 946 1213 879 1251 q 1061 1116 1013 1176 q 1137 983 1109 1057 q 1164 836 1164 909 q 1152 703 1164 769 q 1111 584 1141 637 q 1030 498 1081 530 q 898 465 979 465 q 794 479 831 465 q 739 517 757 494 q 715 567 720 540 q 706 620 711 594 q 693 666 701 646 q 661 694 685 686 q 603 604 637 655 q 527 507 568 553 q 437 429 486 461 q 336 397 389 397 q 290 416 305 397 q 275 468 275 435 q 295 556 275 506 q 347 660 315 606 q 422 767 380 713 q 511 862 465 821 q 605 929 557 903 q 694 955 652 955 q 767 933 750 955 q 784 865 784 911 l 784 848 q 781 830 784 838 q 770 817 777 822 q 746 817 762 811 l 746 799 q 745 773 746 787 q 745 746 745 760 l 745 728 q 751 651 745 689 q 774 584 757 613 q 820 536 791 555 q 897 518 849 518 q 1004 545 964 518 q 1064 616 1043 572 q 1090 712 1085 659 q 1096 817 1096 765 q 1080 941 1096 876 q 1029 1059 1063 1006 q 941 1147 994 1112 q 817 1181 888 1181 q 641 1149 727 1181 q 477 1062 555 1118 q 334 933 400 1006 q 221 777 269 860 q 146 605 174 693 q 119 431 119 517 q 147 258 119 328 q 228 146 175 189 q 358 86 281 104 q 534 68 435 68 q 844 121 699 68 q 1128 260 990 175 q 1156 286 1146 271 q 1174 316 1165 301 q 1195 340 1183 331 q 1230 350 1207 350 q 1283 334 1275 350 q 1267 277 1291 319 q 1093 166 1183 217 q 907 79 1002 115 q 709 21 811 42 q 505 0 608 0 q 323 22 408 0 q 174 92 237 43 q 73 215 110 140 q 35 399 35 290 m 694 884 q 616 863 656 884 q 537 807 576 842 q 464 726 498 772 q 404 634 430 681 q 362 542 377 587 q 347 461 347 496 q 397 475 372 461 q 446 510 422 490 q 489 552 469 530 q 521 590 509 574 q 554 637 530 604 q 602 711 578 671 q 648 785 627 750 q 677 834 670 819 l 739 834 q 728 869 739 854 q 694 884 718 884 z "},"A":{"ha":543,"x_min":35,"x_max":663,"o":"m 35 35 q 42 84 39 54 q 50 163 45 114 q 60 283 54 212 q 77 458 66 355 q 102 701 88 562 q 140 1024 117 840 q 153 1040 141 1038 q 174 1043 164 1043 q 198 1032 189 1043 q 215 1008 208 1021 q 229 979 222 994 q 244 955 236 964 q 272 883 258 924 q 302 796 286 842 q 335 703 319 750 q 368 612 351 656 q 398 531 384 568 q 425 469 412 494 q 467 481 439 471 q 525 500 494 491 q 586 515 556 510 q 636 516 616 521 q 663 492 656 511 q 652 433 669 473 q 635 436 643 433 q 618 443 627 439 q 602 450 610 446 q 582 453 593 453 q 551 446 575 453 q 500 429 528 438 q 453 412 473 420 q 433 399 433 403 l 526 31 l 491 -20 q 452 70 468 19 q 423 172 437 121 q 395 267 410 222 q 359 340 381 311 q 292 317 331 327 q 216 294 252 308 q 153 256 179 279 q 121 191 126 232 q 116 148 118 175 q 111 96 114 121 q 104 35 107 66 l 35 35 m 191 834 l 189 811 q 184 758 187 788 q 178 695 182 727 q 174 642 175 663 q 159 492 167 566 q 152 340 152 418 q 207 347 178 340 q 263 366 236 354 q 313 394 290 377 q 347 433 335 411 q 323 531 336 480 q 296 634 311 582 q 263 736 281 686 q 225 834 245 787 q 216 840 224 836 q 191 834 208 845 z "},"B":{"ha":746,"x_min":34,"x_max":715,"o":"m 53 834 q 38 869 42 854 q 34 905 34 884 q 35 918 34 911 q 39 930 35 925 q 50 939 42 936 q 69 937 57 941 q 85 927 77 935 q 101 908 94 920 q 113 886 109 897 q 121 868 118 875 q 189 918 152 892 q 267 962 225 943 q 351 994 308 982 q 433 1006 393 1006 q 465 1004 446 1006 q 501 994 484 1001 q 530 976 518 987 q 541 947 541 964 q 534 881 545 914 q 503 817 522 848 q 458 755 483 785 q 408 699 433 726 q 361 648 382 671 q 330 608 340 625 q 450 661 385 644 q 579 678 514 678 q 623 676 600 678 q 667 666 647 674 q 701 643 688 658 q 715 601 715 628 q 690 526 715 574 q 625 420 665 477 q 536 303 585 362 q 444 196 488 244 q 363 117 399 148 q 312 87 327 87 l 277 103 q 311 164 283 129 q 375 237 338 199 q 455 317 412 275 q 536 399 498 359 q 602 475 574 438 q 640 543 631 513 q 632 595 648 574 q 566 627 616 616 q 454 608 513 627 q 343 556 396 590 q 249 475 290 522 q 189 370 208 429 q 195 296 189 332 q 208 223 201 259 q 220 151 214 187 q 227 77 227 114 q 222 33 227 50 q 189 15 218 15 q 180 16 186 15 q 174 18 174 16 l 53 834 m 140 749 q 146 642 140 699 q 174 538 153 586 q 224 585 194 556 q 288 648 255 614 q 353 720 321 682 q 412 793 385 758 q 454 859 438 829 q 469 910 469 890 q 459 932 469 926 q 435 937 449 937 q 352 924 403 937 q 254 886 301 910 q 174 827 208 861 q 140 749 140 792 z "},"C":{"ha":677,"x_min":34,"x_max":643,"o":"m 34 243 q 43 361 34 286 q 70 521 52 435 q 115 694 88 606 q 180 852 142 781 q 265 967 217 922 q 372 1012 313 1012 q 429 1000 406 1012 q 469 966 453 987 q 492 919 484 945 q 499 861 499 892 q 460 874 475 861 q 433 902 445 887 q 408 930 420 917 q 373 943 395 943 q 293 901 330 943 q 227 796 256 860 q 174 654 197 732 q 135 503 151 576 q 111 368 119 429 q 103 278 103 308 q 107 201 103 239 q 125 134 111 164 q 164 86 138 104 q 237 68 190 68 q 345 103 292 68 q 445 189 399 138 q 525 298 491 240 q 574 399 559 355 q 586 401 576 400 q 598 401 595 401 q 629 398 614 401 q 643 373 643 395 q 605 281 635 330 q 534 187 575 233 q 445 102 494 141 q 350 35 396 62 q 264 -2 304 8 q 201 0 225 -12 q 124 25 156 0 q 73 87 92 50 q 43 165 53 123 q 34 243 34 208 z "},"D":{"ha":770,"x_min":30,"x_max":739,"o":"m 218 27 q 252 97 218 54 q 336 194 286 140 q 446 312 387 248 q 556 444 506 376 q 640 584 606 513 q 674 724 674 655 q 654 787 674 761 q 602 833 633 814 q 530 863 570 852 q 449 880 490 873 q 372 888 408 886 q 309 890 335 890 q 292 889 302 890 q 269 888 281 888 q 248 886 258 887 q 237 884 239 884 l 220 868 q 219 845 220 865 q 218 799 218 825 q 217 746 217 773 l 217 704 q 227 432 217 567 q 237 160 237 297 q 238 142 237 152 q 237 124 239 133 q 230 109 236 115 q 212 103 224 103 q 195 107 203 103 q 186 121 187 111 l 133 834 q 119 827 129 831 q 98 817 109 822 q 77 805 87 811 q 64 799 66 799 q 59 798 62 799 q 54 798 56 798 q 39 801 47 798 q 30 817 30 804 q 39 850 30 837 q 62 873 47 863 q 92 895 76 884 q 123 923 109 906 q 146 966 137 940 q 155 1031 155 991 q 189 1021 182 1031 q 197 999 195 1012 q 200 973 198 986 q 220 955 202 960 q 311 955 258 956 q 424 946 365 954 q 541 924 483 939 q 644 882 598 909 q 715 813 689 854 q 739 712 742 772 q 672 511 722 608 q 555 326 623 415 q 410 156 488 237 q 255 0 332 75 q 251 -1 254 0 q 247 -1 248 -1 q 227 7 235 -1 q 218 27 218 15 z "},"E":{"ha":659,"x_min":45,"x_max":636,"o":"m 98 35 q 99 251 98 145 q 98 461 100 357 q 87 671 95 566 q 62 884 79 776 q 59 895 62 887 q 53 912 56 903 q 47 928 50 921 q 45 937 45 935 q 50 954 45 944 q 62 972 54 963 q 79 986 69 981 q 98 990 88 991 q 124 970 114 986 q 140 934 134 954 q 147 895 145 914 q 149 868 149 876 q 241 915 190 890 q 345 961 292 940 q 452 996 399 982 q 553 1010 506 1010 q 549 989 553 998 q 530 972 544 979 l 149 781 l 149 728 q 153 677 151 713 q 157 599 155 640 q 162 520 160 557 q 165 469 164 483 l 445 625 l 452 633 q 469 648 458 642 q 492 656 480 655 q 514 642 503 656 q 490 594 514 617 q 429 548 465 571 q 349 503 392 525 q 270 461 307 481 q 209 420 233 441 q 184 382 184 400 l 184 121 q 234 127 202 114 q 305 163 266 140 q 387 216 345 186 q 469 274 429 247 q 543 323 509 301 q 601 349 578 345 q 625 343 614 349 q 636 321 636 338 q 617 296 636 305 q 508 224 570 267 q 382 139 446 182 q 257 62 319 96 q 151 16 195 27 q 122 19 133 16 q 98 35 111 22 z "},"F":{"ha":595,"x_min":41,"x_max":579,"o":"m 41 895 q 49 915 41 909 q 69 924 57 921 q 95 926 81 926 q 118 928 109 926 l 118 799 q 264 851 208 825 q 366 900 321 878 q 455 941 411 922 q 562 972 499 959 q 575 963 571 972 q 579 945 579 954 q 562 921 579 930 l 126 712 l 144 330 q 313 425 244 385 q 427 490 382 464 q 497 529 472 515 q 534 548 522 543 l 549 555 q 553 556 552 556 q 557 551 556 556 q 559 540 559 547 l 559 524 q 562 511 559 517 q 522 481 555 503 q 442 432 488 460 q 344 374 396 404 q 247 316 292 343 q 173 269 202 289 q 144 243 144 250 l 144 35 q 138 8 144 18 q 118 -1 132 -1 q 92 33 103 -1 q 73 123 80 66 q 60 252 65 179 q 50 404 54 326 q 44 562 46 483 q 41 707 42 640 q 41 823 41 774 l 41 895 z "},"G":{"ha":822,"x_min":30,"x_max":796,"o":"m 618 243 q 536 169 579 209 q 446 95 494 129 q 346 39 397 61 q 237 16 294 16 q 172 24 208 16 q 106 49 137 31 q 54 93 76 66 q 30 156 31 119 q 41 283 24 208 q 92 441 58 358 q 173 607 126 525 q 275 756 220 689 q 393 864 331 823 q 518 905 454 905 q 539 903 528 905 q 561 897 551 901 q 578 884 571 892 q 585 860 585 875 q 554 842 585 853 q 484 819 524 831 q 408 791 445 806 q 359 764 372 777 q 267 636 311 701 q 188 502 222 571 q 130 359 153 433 q 98 209 106 286 q 113 150 98 171 q 151 119 127 129 q 206 106 175 109 q 269 104 237 104 q 377 142 323 110 q 479 221 431 174 q 567 329 528 269 q 633 452 606 389 l 422 452 q 441 481 422 468 q 492 507 461 495 q 560 528 522 518 q 635 544 598 537 q 703 553 671 551 q 751 556 734 556 l 766 556 q 784 553 776 556 q 795 543 792 551 q 792 521 799 536 q 783 513 791 518 q 767 502 776 507 q 750 492 758 496 q 739 486 742 487 q 699 351 711 429 q 685 191 686 274 q 690 26 684 109 q 707 -121 697 -56 l 654 -156 q 627 -110 637 -140 q 613 -43 617 -80 q 609 34 609 -7 q 611 113 609 75 q 615 186 613 152 q 618 243 617 220 z "},"H":{"ha":590,"x_min":41,"x_max":544,"o":"m 442 469 q 390 437 427 458 q 311 392 353 416 q 231 345 269 368 q 178 312 193 323 q 137 259 148 289 q 126 195 126 229 q 133 123 126 160 q 142 47 140 85 q 130 12 142 28 q 99 -4 118 -4 q 81 1 91 -4 q 72 15 72 5 l 41 884 q 47 906 41 892 q 57 921 53 920 q 68 920 61 921 q 84 915 76 918 q 100 908 92 911 q 110 902 107 905 q 117 777 115 848 q 120 635 118 707 q 127 496 122 563 q 144 382 132 429 q 254 429 202 407 q 343 479 305 450 q 403 549 381 507 q 423 652 425 590 q 422 712 423 686 q 416 763 420 738 q 405 817 412 788 q 387 884 397 846 q 395 916 384 909 q 420 922 406 922 q 448 914 438 922 q 463 892 457 906 q 471 863 469 879 q 473 834 472 848 q 480 769 476 812 q 489 671 484 726 q 500 555 494 616 q 511 439 506 494 q 520 342 517 385 q 526 277 524 298 q 537 175 530 225 q 544 72 544 125 l 544 50 q 542 29 544 39 q 532 12 540 19 q 509 0 525 4 q 480 39 484 18 q 473 87 476 61 q 471 132 472 102 q 466 200 469 163 q 459 279 463 237 q 452 357 456 320 q 446 425 449 395 q 442 469 444 454 z "},"I":{"ha":213,"x_min":71,"x_max":174,"o":"m 71 1013 q 78 1029 71 1024 q 96 1034 85 1034 q 117 1034 106 1035 q 137 1032 129 1032 q 149 968 144 1016 q 158 851 153 920 q 165 700 163 783 q 169 532 167 617 q 172 366 171 448 q 173 218 172 285 q 174 103 174 151 l 174 42 q 162 10 172 15 q 115 16 152 5 q 109 57 111 18 q 104 161 106 96 q 102 309 103 225 q 99 480 100 392 q 96 656 98 568 q 91 817 94 745 q 83 942 88 890 q 71 1013 79 994 z "},"J":{"ha":515,"x_min":18,"x_max":471,"o":"m 18 191 q 24 202 18 195 q 35 209 31 209 q 75 126 53 170 q 125 46 96 83 q 193 -14 155 9 q 279 -38 231 -38 q 355 -15 323 -38 q 400 53 388 8 q 399 274 408 164 q 374 493 389 384 q 345 711 359 602 q 328 932 330 821 q 328 949 328 939 q 330 968 327 959 q 338 985 332 978 q 357 991 343 991 q 382 972 372 991 q 444 570 416 774 q 471 164 471 365 q 463 64 471 110 q 434 -16 456 18 q 374 -68 412 -49 q 277 -88 336 -88 q 178 -64 225 -88 q 96 -1 132 -41 q 39 90 60 39 q 18 191 18 140 z "},"K":{"ha":728,"x_min":35,"x_max":724,"o":"m 35 902 q 51 928 38 917 q 79 939 64 939 q 94 932 87 939 q 107 918 102 926 q 117 900 113 909 q 121 884 121 891 l 174 416 q 208 469 182 425 q 271 572 235 513 q 348 694 307 631 q 429 805 389 758 q 499 871 468 852 q 548 864 530 891 q 441 699 487 766 q 360 584 395 632 q 302 501 326 536 q 260 435 278 467 q 231 368 243 403 q 208 286 218 334 q 211 277 208 281 q 230 269 214 274 q 278 262 245 264 q 368 256 311 259 q 511 252 425 254 q 724 251 598 251 q 714 211 724 231 q 677 191 704 191 l 191 191 q 207 116 202 153 q 212 42 212 79 q 203 17 212 18 q 164 16 194 16 q 161 17 164 16 q 156 18 157 18 q 148 52 153 27 q 137 103 142 76 q 127 155 132 130 q 121 191 122 180 q 115 250 119 205 q 106 353 111 294 q 95 477 100 411 q 84 603 90 544 q 75 705 79 662 l 69 764 q 67 779 69 768 q 62 804 65 791 q 56 831 58 818 q 53 850 54 845 q 50 860 53 852 q 43 876 46 868 q 38 892 41 884 q 35 902 35 899 z "},"L":{"ha":746,"x_min":39,"x_max":735,"o":"m 66 53 q 60 348 64 225 q 54 555 57 471 q 48 688 52 639 q 43 768 45 738 q 41 810 42 798 q 39 836 39 823 q 53 865 39 859 q 87 871 66 871 q 123 862 110 871 q 136 817 136 853 l 161 87 q 175 90 163 87 q 203 98 187 92 q 237 109 220 103 q 266 121 255 115 q 315 142 282 127 q 388 176 347 157 q 474 216 429 195 q 561 256 519 237 q 634 290 602 274 q 682 312 666 305 l 699 312 q 715 311 707 312 q 728 304 723 309 q 735 288 734 298 q 730 264 735 274 q 718 243 726 255 q 561 189 637 228 q 409 107 484 149 q 257 33 334 65 q 100 0 180 0 q 66 53 66 0 z "},"M":{"ha":948,"x_min":41,"x_max":907,"o":"m 735 902 q 720 871 730 905 q 693 786 709 838 q 659 668 677 734 q 618 537 640 602 q 575 416 597 472 q 532 327 553 359 q 491 291 510 294 q 457 330 472 288 q 427 390 446 349 q 381 483 407 431 q 327 591 355 534 q 273 699 298 648 q 227 791 248 750 q 197 850 206 831 q 168 899 180 880 q 127 917 155 917 q 138 708 127 822 q 162 477 149 594 q 186 248 175 361 q 197 38 197 134 q 193 15 202 26 q 169 -1 184 4 q 135 -2 153 -7 q 104 20 117 3 q 92 267 92 141 q 90 518 91 392 q 79 771 88 644 q 41 1024 69 898 q 49 1055 39 1048 q 73 1061 58 1061 q 132 1045 106 1061 q 180 1006 159 1029 q 219 954 202 982 q 250 902 236 925 q 279 846 260 884 l 323 758 q 374 656 347 709 q 425 554 400 602 q 469 469 449 506 q 500 415 490 431 q 510 419 506 415 q 522 442 514 423 q 542 500 529 461 q 578 609 555 540 q 635 784 601 678 q 718 1042 669 890 q 735 1054 720 1048 q 762 1059 750 1059 q 779 1051 774 1059 q 787 1024 784 1043 q 806 783 799 909 q 826 530 814 658 q 857 275 838 401 q 907 35 875 149 l 814 -1 l 735 902 z "},"N":{"ha":751,"x_min":42,"x_max":701,"o":"m 42 834 l 42 899 q 79 888 58 899 q 118 863 99 878 q 153 829 137 848 q 179 799 170 811 l 579 260 q 587 346 583 283 q 589 488 590 408 q 585 654 589 567 q 576 816 582 741 q 562 943 570 891 q 543 1006 555 996 q 550 1044 543 1027 q 579 1062 557 1062 q 614 1038 601 1062 q 635 983 628 1013 q 645 923 642 952 q 648 884 648 894 q 651 810 650 860 q 654 698 652 761 q 657 564 655 635 q 661 431 659 494 q 664 318 663 369 q 666 243 665 267 q 672 210 666 225 q 684 180 678 195 q 696 151 690 165 q 701 119 701 136 q 682 79 701 92 q 637 66 662 66 q 614 70 624 66 q 597 82 604 73 q 591 104 591 91 q 595 140 590 118 q 549 197 581 157 q 479 287 518 237 q 397 391 441 336 q 315 494 354 445 q 244 583 275 544 l 198 642 q 189 652 195 646 l 156 685 q 145 694 149 692 q 146 536 140 616 q 165 378 153 457 q 188 222 176 300 q 199 65 199 144 q 195 26 199 43 q 163 0 191 9 q 126 36 136 9 q 127 87 117 62 l 42 834 z "},"O":{"ha":532,"x_min":20,"x_max":511,"o":"m 20 290 q 88 675 37 526 q 208 887 140 823 q 351 930 277 951 q 484 806 425 909 q 511 654 505 738 q 508 484 517 570 q 477 315 499 397 q 415 165 454 232 q 321 54 376 99 q 197 -1 267 8 q 113 30 146 -1 q 58 106 79 61 q 29 201 38 152 q 20 290 20 251 m 92 298 q 96 228 92 264 q 111 161 99 191 q 149 111 123 130 q 216 91 174 91 q 302 134 263 91 q 370 247 342 178 q 416 400 399 316 q 436 565 433 484 q 428 713 439 646 q 388 816 416 781 q 313 844 359 850 q 201 769 266 837 q 163 654 182 713 q 129 535 144 595 q 103 415 114 475 q 92 298 92 355 z "},"P":{"ha":707,"x_min":34,"x_max":678,"o":"m 140 18 q 104 460 111 232 q 104 902 98 689 q 83 890 92 895 q 60 884 73 884 q 42 892 50 884 q 34 913 34 901 l 34 917 q 35 921 34 918 q 62 963 46 933 q 95 1022 77 993 q 129 1074 113 1051 q 157 1096 145 1096 q 176 1090 170 1096 q 186 1076 182 1084 q 195 1057 190 1067 q 209 1042 199 1047 q 298 1084 250 1066 q 397 1108 347 1101 q 493 1110 446 1115 q 578 1087 540 1105 q 643 1035 616 1069 q 678 949 670 1001 q 640 824 677 883 q 547 717 602 765 q 429 631 492 669 q 311 567 365 594 q 223 524 258 540 q 191 505 189 507 l 191 18 q 182 3 191 7 q 164 -1 172 -1 q 140 18 149 -1 m 191 955 q 181 869 187 916 q 172 772 175 822 q 173 675 170 723 q 191 590 176 628 q 313 648 250 616 q 435 720 377 680 q 541 810 494 761 q 610 921 587 860 q 587 977 610 954 q 529 1015 563 1000 q 459 1036 495 1029 q 400 1042 423 1042 q 356 1034 387 1042 q 292 1015 326 1027 q 230 987 259 1004 q 191 955 201 971 z "},"Q":{"ha":712,"x_min":39,"x_max":666,"o":"m 39 454 q 43 528 39 476 q 58 647 47 581 q 85 783 68 713 q 127 911 103 853 q 182 1006 151 970 q 256 1043 214 1043 q 272 1042 262 1043 q 290 1037 282 1042 q 302 1025 298 1032 q 300 1006 305 1019 q 340 1025 323 1019 q 372 1036 357 1031 q 402 1042 387 1040 q 438 1043 418 1043 q 520 1014 486 1043 q 578 937 555 985 q 616 827 602 890 q 635 696 629 765 q 638 559 640 628 q 628 427 636 490 q 606 314 620 365 q 578 233 593 263 l 578 228 q 579 225 578 227 l 665 69 q 665 62 665 68 q 666 54 666 56 q 629 16 666 16 l 621 16 q 613 18 616 16 q 600 39 609 23 q 578 71 590 54 q 557 101 567 87 q 543 121 548 115 q 535 130 541 123 q 526 140 529 137 q 486 91 507 115 q 437 46 464 66 q 382 12 411 26 q 320 -1 353 -1 q 219 20 262 -1 q 145 78 176 42 q 94 161 114 114 q 61 258 73 208 q 44 359 49 309 q 39 454 39 410 m 107 442 q 111 375 107 414 q 121 295 114 336 q 143 213 129 254 q 179 140 157 172 q 233 88 201 109 q 309 68 264 68 q 372 80 339 68 q 431 113 406 92 q 475 163 457 134 q 492 225 492 193 l 492 236 q 491 243 492 243 l 370 505 l 438 538 l 526 330 q 529 327 526 328 q 533 326 532 326 q 555 345 547 326 q 570 395 564 365 q 577 459 575 425 q 579 525 579 494 q 579 578 579 556 l 579 602 q 579 670 579 631 q 574 751 579 709 q 561 832 570 792 q 534 904 552 872 q 489 956 517 936 q 422 975 461 975 q 313 959 358 978 q 236 907 267 940 q 184 830 205 873 q 151 739 164 787 q 129 644 138 692 q 110 555 119 597 q 109 534 110 549 q 108 500 109 518 q 107 465 107 481 l 107 442 z "},"R":{"ha":700,"x_min":54,"x_max":694,"o":"m 54 1101 q 64 1100 56 1101 q 81 1098 72 1099 q 100 1096 91 1097 q 110 1095 109 1095 q 130 1093 117 1095 q 144 1077 144 1090 l 144 958 q 197 983 167 963 q 267 1023 227 1002 q 358 1057 308 1043 q 473 1063 408 1070 q 618 1015 574 1043 q 666 954 663 987 q 638 883 669 921 q 557 805 608 845 q 446 726 507 765 q 325 649 384 686 q 217 579 266 612 q 144 521 168 547 q 207 490 165 511 q 298 444 248 469 q 401 391 347 419 q 502 338 454 362 q 587 296 549 315 q 642 273 625 278 q 667 260 655 266 q 686 248 677 254 q 694 237 694 243 q 691 222 694 232 q 681 205 688 213 q 667 191 674 197 q 652 184 659 184 q 646 185 650 184 q 642 186 643 186 q 623 195 639 187 q 591 212 608 202 q 558 229 574 221 q 538 237 543 236 q 490 258 524 243 q 416 294 457 274 q 328 336 374 313 q 241 380 282 359 q 166 415 199 400 q 118 433 133 430 l 118 18 l 57 18 l 54 1101 m 144 868 q 138 811 141 844 q 132 743 136 779 q 127 673 129 708 q 125 608 125 637 q 163 631 130 614 q 241 671 195 647 q 341 726 288 696 q 442 787 395 755 q 526 850 490 819 q 572 908 562 882 q 561 956 582 935 q 473 990 540 978 q 390 986 437 993 q 296 963 343 979 q 209 923 250 947 q 144 868 168 899 z "},"S":{"ha":751,"x_min":16,"x_max":713,"o":"m 164 64 q 198 90 167 77 q 275 115 229 102 q 377 145 321 129 q 484 182 433 161 q 578 228 536 202 q 642 288 621 254 q 615 319 642 308 q 545 337 589 330 q 444 349 500 345 q 329 363 388 354 q 214 385 270 372 q 113 421 157 397 q 43 481 69 445 q 16 571 16 518 q 39 676 16 624 q 101 777 62 728 q 189 868 140 826 q 293 941 239 910 q 401 990 347 972 q 500 1008 454 1008 q 526 1008 513 1008 q 550 1007 540 1009 q 567 997 560 1005 q 574 972 574 989 q 548 916 574 933 q 486 899 522 899 l 433 937 q 364 920 401 937 q 288 873 327 902 q 213 806 250 844 q 149 727 176 768 q 104 646 121 686 q 87 572 87 605 q 113 496 87 525 q 184 450 140 467 q 285 425 228 433 q 400 411 342 416 q 515 401 458 406 q 616 384 572 396 q 687 351 661 372 q 713 296 713 331 q 707 246 728 274 q 642 191 686 218 q 538 135 598 163 q 414 85 477 107 q 290 47 350 62 q 189 27 231 31 q 168 35 176 27 q 164 64 159 43 z "},"T":{"ha":827,"x_min":16,"x_max":970,"o":"m 408 850 q 321 842 365 850 q 233 824 277 834 q 146 806 190 814 q 58 798 103 798 q 31 801 45 798 q 16 825 16 804 q 28 852 16 838 q 53 868 39 867 l 416 921 q 420 938 418 926 q 428 961 423 949 q 441 981 433 972 q 460 990 449 990 q 486 982 476 990 q 502 964 495 974 q 514 945 509 954 q 528 937 519 937 l 538 937 q 582 942 552 939 q 650 949 612 945 q 732 958 689 954 q 815 966 776 963 q 884 973 854 970 q 928 979 914 977 q 947 980 932 979 q 970 981 963 981 q 942 938 970 955 q 871 909 914 921 q 777 892 829 898 q 675 882 724 886 q 584 875 625 878 q 521 868 543 872 q 526 667 515 772 q 551 457 536 563 q 581 247 567 351 q 594 47 594 142 q 599 18 600 28 q 591 3 598 7 q 571 -1 585 -1 q 538 0 557 -1 q 515 115 525 49 q 496 256 505 180 q 481 411 488 331 q 467 570 473 491 q 452 720 460 648 q 433 850 444 792 l 408 850 z "},"U":{"ha":625,"x_min":42,"x_max":598,"o":"m 494 363 q 458 253 480 313 q 402 140 435 193 q 323 51 369 87 q 216 15 277 15 q 139 35 168 15 q 94 87 110 54 q 70 161 77 121 q 60 241 62 201 q 57 296 58 255 q 54 394 56 338 q 51 514 53 450 q 47 633 49 578 q 43 731 45 689 q 42 787 42 773 q 43 808 41 800 q 53 819 46 815 q 68 823 60 822 q 84 823 77 823 l 95 823 q 110 822 103 823 q 122 816 117 821 q 127 803 127 811 l 127 225 q 135 176 127 201 q 156 131 142 152 q 190 96 170 110 q 236 83 210 83 q 325 138 288 87 q 389 266 362 189 q 434 434 416 343 q 465 609 452 525 q 489 758 479 693 q 511 849 499 823 q 552 861 537 872 q 574 825 567 849 q 583 774 582 802 q 581 734 585 746 q 572 553 581 643 q 563 372 563 464 q 568 255 563 313 q 581 138 574 197 q 593 22 587 80 q 598 -92 598 -35 q 597 -115 598 -103 q 591 -136 595 -126 q 578 -152 586 -145 q 555 -159 570 -159 q 551 -158 555 -159 q 545 -157 548 -157 l 494 363 z "},"V":{"ha":728,"x_min":16,"x_max":694,"o":"m 16 789 q 32 812 16 807 q 61 817 47 817 q 87 807 77 817 q 103 781 98 798 l 416 121 l 625 990 q 635 1003 628 1000 q 652 1006 642 1006 q 681 996 665 1006 q 694 972 697 986 l 486 18 q 454 0 475 -3 q 414 16 434 3 q 375 45 393 28 q 347 69 357 61 l 18 781 q 16 785 16 783 l 16 789 z "},"W":{"ha":1221,"x_min":23,"x_max":1169,"o":"m 23 799 q 34 814 26 806 q 52 833 42 823 q 73 851 62 842 q 91 864 83 860 q 109 844 102 856 q 127 802 117 831 q 154 723 138 773 q 195 589 170 673 q 260 382 221 505 q 354 87 298 259 q 374 130 359 91 q 408 229 388 170 q 452 360 429 288 q 499 507 476 433 q 543 648 522 581 q 579 764 564 715 q 585 801 583 783 q 591 834 587 819 q 606 859 595 849 q 640 869 616 869 q 675 850 659 878 q 709 772 692 823 q 745 652 726 720 q 787 509 764 583 q 840 360 811 434 q 909 225 869 286 l 1100 1006 q 1110 1024 1103 1017 q 1128 1031 1118 1031 q 1149 1021 1138 1031 q 1169 990 1160 1012 l 979 225 q 975 184 979 208 q 964 138 971 160 q 949 99 958 115 q 928 79 940 83 q 903 89 917 76 q 875 140 890 102 q 739 420 799 274 q 631 728 680 566 l 457 156 q 433 60 449 96 q 399 7 418 24 q 362 -15 381 -11 q 328 -17 343 -19 q 306 -9 313 -15 q 301 0 298 -3 q 248 101 270 42 q 207 230 225 160 q 171 376 189 300 q 134 528 153 453 q 87 673 114 604 q 23 799 60 742 z "},"X":{"ha":642,"x_min":30,"x_max":604,"o":"m 480 35 q 447 115 465 72 q 406 203 429 159 q 359 290 384 248 q 307 365 334 332 q 275 331 293 354 q 238 279 258 308 q 199 216 218 250 q 160 151 179 182 q 125 94 141 121 q 99 53 110 68 l 30 87 q 86 174 52 127 q 155 270 121 220 q 217 370 189 320 q 255 469 245 420 l 81 834 q 79 844 80 836 q 79 857 79 852 q 86 892 79 880 q 118 905 94 905 q 127 904 121 905 q 133 902 133 903 l 307 538 q 332 580 313 549 q 374 652 350 610 q 426 741 399 693 q 479 833 453 788 q 526 916 505 878 q 559 974 547 954 q 588 970 572 974 q 604 945 604 967 l 604 940 q 602 937 604 937 l 346 461 l 551 69 q 553 58 552 66 q 553 43 553 49 q 553 27 553 37 q 548 11 552 18 q 536 0 544 4 q 515 0 529 -4 q 495 16 509 3 q 480 35 481 30 z "},"Y":{"ha":671,"x_min":16,"x_max":642,"o":"m 260 34 q 275 130 260 83 q 308 224 290 176 q 338 318 326 271 q 347 416 351 365 q 260 511 308 460 q 167 616 213 562 q 81 730 121 671 q 18 850 42 789 q 16 854 16 852 l 16 860 q 28 882 16 876 q 54 887 41 887 q 130 791 90 845 q 212 685 170 738 q 297 584 254 632 q 382 505 340 536 l 400 505 q 419 551 406 514 q 452 640 433 589 q 494 754 472 692 q 535 877 515 817 q 569 990 555 937 q 590 1077 583 1043 q 598 1080 591 1080 q 631 1061 618 1080 q 642 1024 644 1043 q 581 812 605 895 q 542 677 557 730 q 515 593 526 625 q 493 533 505 562 q 469 470 481 505 q 437 378 457 435 q 387 230 416 320 q 312 0 357 140 q 304 -1 311 0 q 296 -1 298 -1 q 260 34 260 -1 z "},"Z":{"ha":932,"x_min":30,"x_max":898,"o":"m 30 69 q 33 76 30 71 q 54 104 37 81 q 109 176 72 127 q 214 310 146 224 q 385 528 282 396 q 636 850 487 659 l 636 868 q 494 881 567 876 q 349 887 422 886 q 203 888 275 888 q 64 884 130 887 q 52 912 54 891 q 50 943 50 933 q 102 946 50 945 q 232 947 153 947 q 402 946 311 947 q 573 945 494 945 q 707 943 652 944 q 764 943 761 943 l 774 884 l 151 103 l 201 103 q 276 103 236 103 q 351 103 316 103 l 526 103 q 642 104 585 103 q 758 109 700 104 q 880 121 815 114 q 896 106 894 115 q 898 87 898 96 l 898 68 q 895 52 898 60 q 886 39 892 43 q 869 35 880 34 q 680 21 781 24 q 477 16 579 18 q 278 12 376 15 q 99 0 180 8 q 90 -1 98 0 q 80 -1 83 -1 q 42 22 54 -1 q 30 69 30 46 z "},"[":{"ha":654,"x_min":34,"x_max":614,"o":"m 35 1442 l 35 1447 q 35 1460 35 1454 q 34 1472 34 1466 l 34 1481 q 35 1502 34 1491 q 39 1522 35 1514 q 55 1533 43 1531 q 88 1527 66 1535 q 134 1530 103 1529 q 203 1533 164 1531 q 286 1536 243 1534 q 369 1540 330 1538 q 439 1543 408 1542 q 486 1545 471 1544 q 500 1546 490 1545 q 524 1546 511 1546 l 560 1546 q 532 1512 560 1526 q 461 1491 505 1499 q 366 1479 418 1482 q 268 1474 315 1476 q 186 1474 221 1473 q 140 1476 151 1474 l 121 1458 q 120 1444 121 1457 q 119 1416 119 1432 q 117 1385 118 1400 q 117 1360 117 1370 q 127 1116 117 1238 q 150 872 137 994 q 175 627 163 750 q 191 382 187 505 q 194 315 193 354 q 197 233 195 275 q 201 150 199 191 q 204 75 202 109 q 208 20 206 42 l 209 0 l 225 -35 q 241 -37 227 -37 q 262 -38 255 -38 q 354 -28 302 -38 q 455 -7 406 -19 q 545 16 505 4 q 608 35 586 28 q 614 -23 625 -1 q 574 -35 604 -45 l 191 -140 q 173 -136 182 -141 q 157 -121 164 -130 q 144 -102 149 -113 q 140 -87 140 -92 l 140 260 l 35 1442 z "},"\\":{"ha":770,"x_min":18,"x_max":747,"o":"m 18 1354 q 30 1379 23 1367 q 41 1398 35 1389 q 53 1407 46 1407 q 80 1394 61 1407 q 103 1371 99 1382 l 746 53 q 747 43 747 50 l 747 35 q 736 5 747 12 q 704 -1 726 -1 q 678 0 689 -1 q 661 18 667 1 l 140 1164 l 18 1354 z "},"]":{"ha":712,"x_min":0,"x_max":677,"o":"m 296 -87 l 555 -18 l 572 0 q 573 9 572 1 q 574 26 574 16 q 575 46 575 37 l 575 62 q 565 433 575 248 q 544 802 555 617 q 526 1173 533 987 q 521 1545 518 1359 q 485 1560 496 1557 q 454 1564 473 1564 q 363 1558 408 1564 q 273 1545 317 1552 q 184 1532 229 1538 q 95 1526 140 1526 l 80 1526 q 56 1527 69 1526 q 33 1527 43 1527 l 18 1527 q 7 1544 14 1531 q 0 1563 0 1557 q 17 1586 0 1577 q 62 1600 34 1595 q 121 1609 90 1606 q 184 1613 153 1611 q 241 1614 216 1614 q 277 1615 266 1614 q 331 1619 297 1617 q 405 1626 365 1622 q 486 1630 445 1629 q 560 1632 528 1632 l 579 1632 q 602 1629 591 1632 q 620 1619 613 1626 q 627 1599 627 1613 q 610 1451 616 1542 q 605 1247 605 1360 q 610 1007 605 1134 q 621 751 614 880 q 634 496 627 621 q 650 264 642 372 q 665 75 658 157 q 677 -54 673 -8 q 654 -77 677 -66 q 597 -97 632 -88 q 521 -114 563 -106 q 441 -127 479 -122 q 374 -136 403 -133 q 336 -140 346 -140 q 304 -128 321 -140 q 277 -104 286 -117 l 296 -87 z "},"^":{"ha":543,"x_min":38,"x_max":521,"o":"m 38 941 q 39 947 38 944 q 39 952 39 951 l 212 1274 q 227 1287 213 1279 q 255 1295 240 1295 q 259 1295 256 1295 q 262 1294 262 1294 l 484 1035 q 516 1021 511 1029 q 521 1000 521 1013 q 519 985 521 994 q 511 969 517 977 q 497 956 506 962 q 475 951 488 951 l 469 951 q 468 952 468 951 l 278 1190 q 252 1202 271 1202 l 245 1202 l 91 932 q 83 925 90 929 q 73 921 76 921 q 43 926 49 921 q 38 941 38 932 z "},"_":{"ha":850,"x_min":18,"x_max":818,"o":"m 18 53 q 48 66 18 56 q 131 90 79 76 q 254 123 183 104 q 408 161 324 141 q 581 201 491 180 q 764 243 671 222 q 772 244 765 244 l 783 244 q 812 231 806 244 q 818 198 818 218 q 807 172 818 182 q 767 152 796 161 q 687 132 738 142 q 555 105 636 122 q 359 63 473 88 q 88 0 244 38 l 79 0 q 59 3 71 0 q 37 14 47 7 q 21 32 27 22 q 18 53 15 42 z "},"`":{"ha":216,"x_min":23,"x_max":168,"o":"m 133 821 q 102 854 119 836 q 67 893 84 872 q 37 935 50 914 q 23 972 24 956 l 23 982 q 31 1013 23 1000 q 57 1027 38 1027 q 113 963 85 996 q 155 901 140 930 q 168 850 171 872 q 133 821 165 829 z "},"a":{"ha":509,"x_min":1,"x_max":473,"o":"m 420 35 q 409 120 414 71 q 399 220 404 170 q 386 316 393 271 q 363 389 378 361 q 241 168 294 248 q 149 52 189 87 q 81 19 109 18 q 37 43 54 20 q 12 102 19 66 q 1 170 4 138 q 15 254 1 199 q 52 372 28 308 q 106 503 75 437 q 175 624 138 570 q 251 713 212 678 q 330 749 290 749 q 416 724 388 758 q 426 608 444 689 q 433 454 426 518 q 450 332 441 391 q 466 210 458 274 q 473 57 473 146 q 470 29 473 41 q 437 18 467 18 q 427 24 433 18 q 420 35 420 31 m 347 642 q 307 646 332 663 q 252 587 281 628 q 194 490 224 547 q 138 374 164 433 q 94 264 113 316 q 68 178 75 212 q 83 123 68 129 q 119 138 98 117 q 169 201 141 160 q 223 288 197 241 q 273 377 250 334 q 311 448 297 420 q 330 500 323 476 q 341 547 336 525 q 347 593 346 570 q 347 642 347 616 z "},"b":{"ha":614,"x_min":52,"x_max":567,"o":"m 57 9 q 52 237 50 117 q 58 498 54 358 q 66 801 62 637 q 66 1158 69 964 q 98 1160 81 1158 q 127 1161 114 1162 q 149 1153 140 1160 q 157 1128 157 1146 q 154 1013 157 1078 q 145 869 151 947 q 136 701 140 791 q 133 513 133 612 q 221 614 180 575 q 298 677 262 654 q 370 707 335 701 q 439 711 406 713 q 504 689 479 711 q 543 635 529 667 q 562 562 556 602 q 567 484 567 522 q 564 427 567 457 q 548 359 560 396 q 511 284 536 323 q 441 202 486 245 q 328 113 396 159 q 161 18 259 66 q 109 6 129 8 q 78 5 90 4 q 62 7 66 5 q 57 9 57 8 m 115 91 q 152 109 122 95 q 222 146 182 123 q 311 202 263 170 q 398 278 358 235 q 467 376 438 321 q 500 495 495 430 q 495 536 500 514 q 478 576 490 557 q 449 608 467 595 q 407 621 431 621 q 313 594 357 621 q 232 526 269 567 q 167 439 195 486 q 121 353 138 392 l 115 91 z "},"c":{"ha":543,"x_min":35,"x_max":495,"o":"m 35 312 q 43 418 39 361 q 56 533 47 476 q 79 642 65 590 q 117 733 94 693 q 176 797 141 773 q 262 819 212 821 q 314 791 296 819 q 340 722 332 762 q 348 638 347 681 q 349 568 349 595 q 304 592 321 568 q 277 647 286 616 q 263 708 267 678 l 259 747 q 254 748 258 747 q 250 749 251 749 q 207 723 227 749 q 170 657 187 697 q 141 568 153 617 q 121 471 129 518 q 108 383 113 423 q 103 321 103 343 q 103 244 100 286 q 119 165 106 202 q 157 102 133 129 q 222 66 182 76 q 304 80 273 66 q 355 117 335 94 q 385 168 374 140 q 406 227 396 197 q 427 288 416 258 q 458 343 438 317 q 482 342 475 347 q 492 330 490 338 q 495 311 495 321 l 495 296 q 476 186 495 239 q 420 92 457 133 q 333 25 384 50 q 217 0 282 0 q 127 35 163 0 q 71 118 91 69 q 43 220 52 167 q 35 312 35 274 z "},"d":{"ha":439,"x_min":11,"x_max":389,"o":"m 332 248 q 298 176 319 217 q 249 99 277 136 q 184 37 221 62 q 103 11 148 11 q 71 16 83 11 q 51 30 60 20 q 35 53 42 39 q 16 83 27 66 q 12 226 12 149 q 19 379 11 302 q 47 524 27 456 q 102 639 66 591 q 193 707 138 686 q 324 709 247 727 q 326 811 328 747 q 317 945 323 875 q 307 1082 312 1016 q 300 1190 301 1147 q 311 1208 300 1202 q 336 1215 323 1214 q 363 1215 350 1217 q 380 1211 376 1214 q 378 884 377 1044 q 382 564 380 723 q 387 247 384 404 q 389 -68 389 90 q 387 -100 389 -83 q 363 -117 385 -117 q 347 -112 355 -117 q 336 -98 339 -107 l 332 248 m 274 642 q 196 608 232 644 q 134 515 160 572 q 91 390 107 458 q 71 258 75 321 q 79 146 68 195 q 121 80 91 98 q 176 104 151 80 q 224 164 202 127 q 262 246 245 201 q 290 334 278 292 q 307 410 301 376 q 313 463 313 445 q 315 506 313 476 q 313 566 316 536 q 302 618 311 595 q 274 642 293 642 z "},"e":{"ha":642,"x_min":-12,"x_max":609,"o":"m 75 293 q 54 289 68 292 q 26 288 41 286 q -1 296 11 289 q -12 319 -12 302 q -8 332 -12 328 q 5 345 -4 336 q 56 408 35 369 q 95 490 77 446 q 132 578 113 534 q 178 658 152 623 q 241 715 203 693 q 335 735 279 736 q 387 724 358 735 q 439 695 415 713 q 480 651 464 677 q 496 594 496 625 q 484 563 503 583 q 430 519 464 543 q 353 470 396 495 q 271 423 311 445 q 202 385 232 401 q 163 361 172 369 q 152 330 156 347 q 146 296 148 312 q 143 268 144 281 q 142 248 142 255 q 140 191 142 222 q 143 132 138 160 q 165 86 148 104 q 225 68 183 68 q 309 90 270 68 q 382 145 349 113 q 444 216 416 178 q 494 287 472 254 q 534 342 517 320 q 564 363 552 363 q 593 359 578 363 q 609 336 609 354 q 589 278 609 312 q 538 206 570 244 q 465 131 506 168 q 381 64 423 94 q 298 17 339 35 q 227 -1 258 -1 q 134 28 165 -1 q 90 103 103 58 q 77 199 77 148 q 75 293 76 250 m 324 659 q 275 637 301 659 q 227 583 250 614 q 191 517 205 551 q 176 463 176 484 q 235 478 197 463 q 312 517 274 494 q 378 566 350 540 q 407 614 407 591 q 397 635 407 627 q 375 648 388 643 q 349 656 362 654 q 324 659 335 659 z "},"f":{"ha":480,"x_min":28,"x_max":464,"o":"m 142 500 q 126 496 137 500 q 104 485 115 491 q 81 473 92 479 q 62 468 71 468 q 39 473 49 468 q 28 495 28 479 q 41 521 28 509 q 72 545 54 533 q 107 568 90 557 q 133 590 125 579 q 129 671 130 612 q 130 808 127 731 q 139 966 132 884 q 162 1112 146 1047 q 203 1213 178 1176 q 270 1236 229 1249 q 321 1219 298 1236 q 361 1177 345 1202 q 386 1122 377 1152 q 395 1067 395 1092 q 389 1038 395 1054 q 366 1023 382 1023 l 362 1023 q 359 1024 361 1023 q 304 1129 327 1107 q 267 1130 282 1152 q 241 1053 251 1108 q 224 924 231 997 q 212 771 217 852 q 201 621 206 690 q 246 635 228 628 q 279 649 264 642 q 307 664 294 656 q 334 677 319 671 q 397 703 362 690 q 464 716 431 716 q 450 651 464 677 q 413 609 435 625 q 362 585 391 593 q 304 572 334 578 q 250 562 275 567 q 205 548 224 556 q 216 393 209 460 q 230 275 224 327 q 239 181 236 224 q 239 96 243 138 q 239 70 239 87 q 238 37 240 53 q 228 9 236 20 q 202 -3 220 -3 q 178 5 186 -3 q 167 35 170 12 q 154 222 159 145 q 146 351 149 298 q 144 433 144 403 l 144 495 q 142 500 144 500 z "},"g":{"ha":608,"x_min":20,"x_max":560,"o":"m 129 -530 q 317 -468 248 -524 q 419 -324 385 -412 q 460 -123 453 -236 q 461 111 467 -9 q 446 353 456 232 q 437 579 435 475 q 327 303 378 408 q 231 144 275 198 q 151 79 187 91 q 88 83 115 68 q 44 134 61 99 q 20 205 27 168 q 45 342 23 267 q 104 490 68 418 q 187 626 140 563 q 288 725 235 689 q 397 763 340 761 q 507 719 454 765 q 512 683 509 718 q 520 592 515 648 q 531 466 525 536 q 543 325 537 396 q 552 189 548 254 q 560 76 556 123 q 554 -88 566 -1 q 518 -257 543 -175 q 456 -411 494 -339 q 371 -529 419 -483 q 264 -588 323 -575 q 138 -567 205 -601 q 126 -566 134 -567 q 113 -562 118 -566 q 111 -551 109 -557 q 129 -530 114 -544 m 91 214 q 127 172 104 172 q 175 200 149 171 q 231 282 201 229 q 292 397 262 335 q 351 526 321 460 q 406 648 380 591 q 399 676 406 663 q 369 684 392 689 q 295 647 331 675 q 229 577 259 618 q 173 486 198 536 q 130 387 148 437 q 101 293 111 338 q 91 214 91 248 z "},"h":{"ha":648,"x_min":46,"x_max":616,"o":"m 522 593 q 426 578 472 612 q 338 482 380 544 q 258 342 296 420 q 187 193 220 263 q 128 72 155 122 q 80 16 102 22 q 55 22 64 16 q 46 53 46 28 l 46 1006 q 56 1021 46 1019 q 79 1023 66 1024 q 102 1017 91 1021 q 115 1006 113 1012 l 133 243 q 161 311 148 267 q 191 406 174 355 q 233 508 209 457 q 292 600 256 559 q 378 663 327 640 q 498 678 429 685 q 572 649 544 678 q 602 572 601 620 l 616 31 q 614 16 616 26 q 603 -2 612 5 q 578 -12 594 -9 q 538 -4 563 -14 l 522 593 z "},"i":{"ha":184,"x_min":27,"x_max":126,"o":"m 57 27 q 54 213 57 115 q 47 410 50 311 q 45 606 43 510 q 57 787 46 703 q 70 789 60 788 q 84 789 80 789 q 115 783 103 789 q 126 757 126 777 q 125 583 126 677 q 124 391 125 488 q 123 199 123 294 q 126 27 123 104 q 117 -3 127 4 q 92 -11 107 -11 q 65 -3 76 -11 q 57 27 54 4 m 27 998 q 38 1020 27 1015 q 62 1025 49 1025 q 96 1008 90 1025 q 103 967 103 990 q 83 946 95 952 q 58 943 71 940 q 36 960 45 947 q 27 998 27 974 z "},"j":{"ha":156,"x_min":-239,"x_max":146,"o":"m -239 -290 q -229 -262 -239 -264 q -202 -273 -218 -260 q -164 -305 -186 -285 q -121 -347 -142 -326 q -79 -384 -99 -369 q -45 -400 -60 -399 q -1 -385 -19 -400 q 31 -343 18 -369 q 54 -286 45 -317 q 67 -223 62 -254 q 74 -166 72 -193 q 76 -122 76 -140 q 64 83 73 -19 q 49 285 56 184 q 38 488 42 385 q 41 694 34 590 q 56 711 46 708 q 75 713 65 713 q 96 711 87 713 q 110 694 104 708 q 110 477 104 581 q 123 272 115 373 q 139 69 132 171 q 146 -142 146 -33 q 143 -189 146 -159 q 133 -254 140 -218 q 115 -328 126 -290 q 87 -397 103 -366 q 52 -449 72 -429 q 5 -469 31 -469 q -60 -452 -19 -469 q -140 -409 -100 -434 q -209 -352 -179 -384 q -239 -290 -239 -320 m 41 1067 q 47 1082 41 1074 q 60 1097 53 1090 q 77 1107 68 1104 q 92 1111 87 1111 q 109 1097 106 1111 q 111 1077 111 1084 q 75 1040 111 1040 q 51 1046 61 1040 q 41 1067 41 1053 z "},"k":{"ha":595,"x_min":35,"x_max":563,"o":"m 75 1042 q 120 1063 103 1069 q 145 1027 137 1058 q 155 945 153 996 q 154 832 156 895 q 146 699 152 769 q 137 562 141 629 q 132 434 133 495 q 136 328 130 373 l 140 328 q 144 330 142 328 q 270 479 214 400 q 370 627 326 557 q 450 749 415 697 q 514 819 484 800 q 549 812 534 819 q 563 781 563 806 q 562 772 563 779 q 562 764 562 766 q 487 625 528 694 q 399 490 446 555 q 296 366 351 425 q 178 260 241 308 q 177 256 178 259 q 176 251 176 252 q 199 221 176 237 q 256 190 221 205 q 333 160 290 175 q 417 134 376 145 q 494 117 458 123 q 551 110 530 110 q 551 90 551 104 q 549 58 552 75 q 540 29 547 42 q 518 16 533 16 l 513 16 q 509 18 510 16 l 121 174 q 110 44 119 94 q 87 -29 100 -5 q 60 -52 75 -53 q 35 -30 46 -50 l 75 1042 z "},"l":{"ha":191,"x_min":30,"x_max":152,"o":"m 64 69 q 77 225 73 132 q 79 425 80 319 q 75 643 79 530 q 64 857 71 755 q 48 1038 57 958 q 30 1164 39 1118 q 51 1177 42 1172 q 72 1181 60 1181 q 88 1178 81 1181 q 99 1164 95 1175 q 136 628 126 898 q 152 91 146 358 q 152 58 152 79 q 151 35 152 37 q 117 26 132 26 q 90 35 102 27 q 71 52 77 42 q 64 69 64 61 z "},"m":{"ha":804,"x_min":41,"x_max":769,"o":"m 90 4 q 83 107 85 42 q 77 249 80 172 q 71 408 75 326 q 64 566 68 491 q 54 701 60 640 q 41 799 47 762 q 53 831 41 826 q 84 836 65 836 q 96 836 87 836 q 110 834 106 836 q 125 729 122 793 q 131 589 129 665 q 135 431 133 513 q 144 277 137 350 q 176 454 163 384 q 200 568 189 525 q 222 631 212 610 q 245 659 232 652 q 273 665 258 666 q 311 665 289 665 q 351 646 335 665 q 375 597 366 627 q 389 532 384 567 q 397 463 393 496 q 406 403 401 430 q 422 365 411 376 q 480 529 456 465 q 522 630 505 593 q 553 684 540 667 q 578 703 567 700 q 597 704 589 707 q 616 701 606 701 q 671 663 652 701 q 701 547 693 602 q 711 441 709 492 q 711 345 712 391 q 714 255 711 298 q 729 170 718 212 q 769 87 741 127 q 747 58 758 65 q 718 50 736 50 q 689 62 701 50 q 669 90 677 73 q 656 125 661 107 q 647 156 651 142 q 630 454 642 350 q 595 563 618 557 q 536 473 572 568 q 448 174 500 377 q 435 165 444 167 q 418 164 427 164 q 401 165 410 164 q 384 164 392 165 q 328 451 350 363 q 282 518 305 538 q 231 372 259 498 q 157 20 202 247 l 90 4 z "},"n":{"ha":671,"x_min":41,"x_max":621,"o":"m 92 18 q 66 385 77 201 q 41 766 54 568 q 76 799 41 799 l 87 799 q 96 788 91 799 q 108 748 102 777 q 121 660 114 719 q 140 506 129 601 q 164 269 151 411 q 209 448 193 361 q 251 606 225 534 q 323 731 277 677 q 458 811 370 785 q 537 752 507 803 q 585 627 567 701 q 609 465 602 552 q 617 297 616 377 q 618 154 618 217 q 621 64 618 91 q 609 45 617 53 q 591 33 601 37 q 571 32 581 30 q 553 46 562 34 q 551 107 553 61 q 544 215 548 153 q 535 347 540 277 q 527 478 530 416 q 521 586 524 540 q 517 647 518 632 q 460 704 488 697 q 405 686 433 711 q 351 612 377 662 q 302 498 326 562 q 259 366 279 435 q 224 233 239 297 q 199 116 209 168 q 186 35 189 64 q 169 17 182 26 q 142 4 156 8 q 113 2 127 0 q 92 18 99 4 z "},"o":{"ha":370,"x_min":24,"x_max":346,"o":"m 34 186 q 24 307 24 248 q 32 427 24 366 q 54 554 39 488 q 87 696 68 620 q 95 724 87 711 q 117 745 103 736 q 145 760 130 754 q 174 765 160 765 q 228 746 203 765 q 272 700 252 727 q 306 642 292 673 q 330 590 320 612 q 345 482 340 543 q 346 359 350 422 q 327 237 342 297 q 285 126 312 176 q 215 42 258 76 q 114 0 172 8 q 66 21 83 0 q 43 73 50 42 q 35 134 35 103 q 34 186 34 165 m 103 190 q 104 164 103 176 q 106 140 104 152 q 112 116 109 129 q 121 87 115 103 l 129 87 q 184 109 161 87 q 224 165 208 130 q 251 242 240 199 q 268 326 262 285 q 276 404 274 368 q 278 461 278 439 l 278 488 q 277 528 278 506 q 272 574 275 551 q 262 618 269 598 q 244 650 255 637 q 216 662 233 662 q 165 658 186 671 q 131 612 144 644 q 111 534 118 581 q 103 433 104 488 q 102 315 102 377 q 103 190 103 252 z "},"p":{"ha":670,"x_min":37,"x_max":647,"o":"m 39 -357 q 56 -86 54 -214 q 55 167 58 42 q 45 419 52 292 q 37 689 38 547 q 47 718 41 708 q 80 723 53 728 q 114 691 109 716 q 117 635 119 666 q 109 572 114 604 q 109 522 103 541 q 201 587 152 553 q 302 648 250 621 q 412 687 355 674 q 526 688 469 700 q 625 640 597 671 q 646 566 652 608 q 608 475 640 525 q 528 376 575 426 q 422 277 480 326 q 308 186 363 228 q 204 114 252 145 q 127 68 156 83 q 124 17 126 52 q 120 -61 122 -18 q 116 -152 118 -104 q 112 -243 114 -199 q 108 -320 110 -286 q 106 -370 106 -354 q 96 -373 103 -372 q 80 -375 90 -374 q 62 -376 71 -376 q 52 -376 54 -377 q 43 -368 47 -376 q 39 -357 39 -361 m 115 387 q 113 340 111 368 q 119 281 115 312 q 126 222 122 251 q 132 174 130 194 q 252 254 183 213 q 385 342 320 294 q 499 448 449 389 q 566 579 549 506 q 561 618 571 608 q 526 632 551 628 q 408 625 475 643 q 280 571 342 606 q 172 487 218 536 q 115 387 126 438 z "},"q":{"ha":567,"x_min":28,"x_max":589,"o":"m 411 347 q 396 260 406 309 q 360 167 387 212 q 283 89 334 122 q 141 52 232 56 q 54 87 80 52 q 28 183 28 122 q 41 270 28 221 q 77 370 54 319 q 130 469 99 420 q 198 557 161 518 q 275 619 235 595 q 359 643 316 643 q 434 617 412 643 q 463 538 456 591 l 589 -381 l 515 -381 q 508 -346 513 -377 q 497 -266 503 -315 q 484 -156 491 -217 q 468 -31 476 -95 q 452 98 460 34 q 437 213 445 161 q 423 300 430 264 q 411 347 416 336 m 98 172 q 105 131 98 142 q 144 119 113 119 q 220 123 184 104 q 283 181 255 141 q 332 275 311 221 q 368 385 354 328 q 389 492 382 441 q 393 578 395 543 q 275 536 330 578 q 182 431 221 494 q 120 298 142 369 q 98 172 98 228 z "},"r":{"ha":551,"x_min":35,"x_max":517,"o":"m 35 654 l 35 665 q 45 684 35 678 q 69 689 56 689 q 90 687 80 689 q 104 671 99 685 q 113 615 109 651 q 122 536 117 579 q 134 444 127 492 q 146 353 140 396 q 159 277 152 311 q 174 225 165 243 q 182 451 170 355 q 229 607 194 547 q 323 691 263 667 q 475 701 384 715 q 517 656 517 701 q 494 633 517 639 q 442 625 471 627 q 387 620 414 623 q 347 606 359 617 q 279 522 298 579 q 251 388 259 465 q 239 219 243 311 q 221 31 236 127 q 210 11 221 18 q 184 4 199 4 q 154 11 168 4 q 132 31 140 18 l 35 654 z "},"s":{"ha":509,"x_min":34,"x_max":490,"o":"m 142 20 q 172 37 142 19 q 241 83 201 54 q 323 147 281 113 q 392 213 365 182 q 421 267 419 244 q 384 296 423 289 q 302 294 335 302 q 241 275 269 286 q 191 255 214 264 q 138 248 167 245 q 56 286 79 248 q 34 387 34 323 q 62 508 34 450 q 136 608 91 566 q 239 675 180 650 q 358 700 297 700 q 400 696 382 700 q 418 665 418 692 q 401 629 418 646 q 365 612 385 612 q 358 614 363 612 q 347 620 353 616 q 336 626 342 624 q 330 628 331 628 q 245 616 286 640 q 173 550 205 591 q 122 460 141 509 q 103 374 103 412 q 109 351 103 359 q 125 338 115 342 q 149 333 136 334 q 175 332 161 332 q 230 340 202 332 q 284 359 258 349 q 338 378 311 370 q 396 387 366 387 q 426 379 410 387 q 456 357 442 372 q 479 325 469 343 q 490 285 488 307 q 485 235 498 266 q 446 168 472 203 q 384 97 420 133 q 311 32 347 61 q 239 -16 274 3 q 179 -33 203 -34 q 147 -16 152 -33 q 142 20 142 0 z "},"t":{"ha":373,"x_min":-47,"x_max":382,"o":"m 72 579 q 47 565 58 572 q 24 551 35 557 q 3 543 14 545 q -20 543 -8 540 q -34 553 -28 543 q -43 576 -39 563 q -47 602 -46 589 q -47 621 -49 614 l 83 696 l 91 1043 q 113 1057 94 1061 q 152 1048 132 1054 q 161 1046 155 1048 q 170 1043 167 1044 q 163 964 167 1006 q 157 878 160 921 q 154 795 155 836 q 157 722 153 754 l 361 779 q 370 771 366 780 q 376 750 373 762 q 381 726 380 738 q 382 713 382 713 l 152 616 q 154 557 152 604 q 159 448 156 511 q 164 313 161 385 q 170 178 167 240 q 174 68 172 115 q 175 9 175 22 q 151 -31 172 -31 q 106 -11 130 -31 l 72 579 z "},"u":{"ha":538,"x_min":45,"x_max":498,"o":"m 380 157 q 353 113 374 141 q 304 58 332 85 q 245 9 275 30 q 191 -12 214 -12 q 120 28 148 -12 q 77 133 92 69 q 57 275 62 197 q 50 427 52 353 q 49 563 49 502 q 45 655 49 624 q 59 671 50 669 q 80 674 68 674 q 100 671 91 674 q 115 655 109 669 q 116 605 115 640 q 119 526 117 570 q 125 433 122 481 q 130 342 127 385 q 134 264 132 298 q 137 213 136 229 q 140 182 138 203 q 147 136 142 160 q 159 94 152 113 q 179 73 167 75 q 220 91 199 73 q 262 136 241 109 q 300 195 282 163 q 332 258 317 228 q 353 313 346 289 q 362 349 361 338 q 368 414 365 372 q 372 506 370 457 q 374 598 373 555 q 374 665 374 642 l 449 661 q 448 462 450 551 q 446 295 445 373 q 458 144 448 217 q 498 -8 469 71 q 481 -20 494 -12 q 464 -27 469 -27 q 418 -5 430 -27 q 404 48 407 18 q 398 109 400 79 q 380 157 396 140 z "},"v":{"ha":492,"x_min":16,"x_max":454,"o":"m 18 555 q 17 559 18 556 q 16 564 16 563 q 33 588 16 585 q 62 591 49 591 q 96 566 77 591 q 139 500 115 541 q 188 410 163 458 q 239 314 213 361 q 294 229 266 267 q 347 174 321 191 q 359 384 355 297 q 366 530 363 471 q 368 625 368 590 q 367 678 368 659 q 366 703 366 697 q 365 712 365 709 q 374 742 365 736 q 397 747 382 747 q 434 742 415 747 q 453 715 453 736 q 454 536 457 627 q 444 357 450 446 q 433 183 437 269 q 433 18 429 98 q 420 12 430 15 q 400 5 411 8 q 379 1 389 3 q 365 0 369 0 q 323 37 351 3 q 259 125 294 72 q 186 243 224 178 q 113 369 148 308 q 53 480 79 430 q 18 555 27 530 z "},"w":{"ha":787,"x_min":38,"x_max":735,"o":"m 266 35 q 243 99 259 56 q 206 197 227 142 q 163 312 186 251 q 119 427 140 373 q 83 525 99 481 q 58 590 66 568 q 44 618 50 602 q 38 649 38 633 q 45 677 38 665 q 66 694 52 689 q 93 684 81 694 q 110 661 104 674 l 266 260 q 273 329 267 279 q 283 434 278 378 q 294 539 289 490 q 301 608 298 589 q 304 639 302 621 q 310 673 305 656 q 325 701 315 689 q 354 713 335 713 q 374 711 368 713 q 388 694 380 708 l 648 250 l 648 708 q 703 688 688 708 q 722 640 719 669 q 722 579 726 612 q 719 521 718 547 q 720 480 719 511 q 724 408 722 449 q 727 321 726 368 q 730 233 728 274 q 734 161 732 193 q 735 121 735 130 q 734 85 745 94 q 707 79 724 76 q 671 94 689 81 q 648 121 654 106 l 372 590 q 353 248 362 385 q 335 18 343 111 q 321 1 331 3 q 302 5 312 0 q 282 19 292 9 q 266 35 273 28 z "},"x":{"ha":631,"x_min":23,"x_max":604,"o":"m 233 -84 q 197 -102 214 -103 q 170 -88 180 -100 q 157 -56 160 -76 q 164 -15 153 -35 l 251 350 q 192 410 228 377 q 121 476 156 442 q 58 545 87 510 q 23 610 30 579 q 60 646 23 646 q 97 642 83 650 q 122 618 111 633 q 144 579 133 602 q 173 532 156 556 q 216 482 190 507 q 285 437 243 457 q 300 511 293 460 q 311 619 307 562 q 319 734 316 677 q 321 827 321 791 q 338 836 326 833 q 366 839 351 840 q 393 833 381 838 q 408 819 406 829 q 406 705 415 761 q 385 592 397 648 q 361 480 372 536 q 355 368 350 425 l 597 125 q 601 114 598 123 q 604 100 604 104 q 602 84 604 92 q 596 68 601 76 q 584 57 591 61 q 564 54 576 53 q 520 101 547 73 q 463 159 494 129 q 399 218 431 190 q 336 263 366 247 l 330 263 l 328 264 q 316 257 321 264 q 302 215 311 250 q 277 111 293 180 q 233 -84 262 41 z "},"y":{"ha":505,"x_min":30,"x_max":476,"o":"m 384 5 l 34 566 q 31 576 33 567 q 30 590 30 585 q 36 621 30 608 q 68 633 42 633 q 87 627 73 633 q 103 616 100 621 q 165 510 133 568 q 231 393 197 452 q 304 281 266 335 q 384 190 342 228 l 416 722 q 424 722 418 722 q 433 723 430 723 q 457 720 445 723 q 475 701 469 716 q 475 581 476 652 q 473 433 475 509 q 469 287 471 357 q 465 175 467 217 q 460 94 464 148 q 452 -29 457 39 q 441 -174 448 -98 q 430 -317 435 -250 q 420 -440 425 -385 q 414 -519 416 -495 l 343 -519 l 384 5 z "},"z":{"ha":859,"x_min":37,"x_max":887,"o":"m 220 -14 q 224 67 213 18 q 258 175 236 117 q 309 296 279 233 q 366 414 338 358 q 415 517 393 471 q 445 590 437 563 q 446 593 445 591 q 446 598 446 595 q 446 604 446 601 q 445 608 445 606 q 361 574 407 593 q 270 539 316 556 q 180 508 224 522 q 99 486 136 494 q 80 488 94 481 q 54 507 66 495 q 37 531 42 518 q 46 555 33 544 q 152 573 91 555 q 276 616 213 591 q 399 664 339 640 q 506 697 460 688 q 551 652 551 697 q 534 557 551 604 q 492 465 517 510 q 437 377 467 420 q 383 289 408 334 q 340 198 358 244 q 323 103 323 152 l 323 87 l 819 189 l 829 189 q 863 177 848 189 q 886 151 879 165 q 887 122 894 137 q 853 100 880 107 q 842 99 848 100 q 816 94 836 98 q 758 85 796 91 q 652 66 720 79 q 478 35 583 54 q 220 -14 373 15 z "},"{":{"ha":484,"x_min":15,"x_max":480,"o":"m 374 -66 q 378 -79 380 -72 q 370 -93 376 -85 q 355 -106 363 -100 q 343 -117 347 -113 q 260 -105 309 -113 q 161 -68 210 -98 q 71 26 111 -38 q 15 205 30 90 q 17 340 15 288 q 31 422 19 393 q 68 460 43 452 q 140 461 94 468 q 159 477 159 458 q 146 522 159 496 q 113 570 133 547 q 71 601 92 593 q 31 647 34 627 q 42 679 27 667 q 84 694 57 690 q 137 689 111 697 q 174 705 160 697 q 192 726 189 713 q 187 758 195 738 q 156 814 179 779 q 106 938 114 879 q 116 1045 98 997 q 174 1127 134 1093 q 263 1173 213 1161 q 370 1173 313 1185 q 480 1116 427 1160 q 467 1082 480 1097 q 437 1066 454 1066 q 433 1067 435 1066 q 430 1067 431 1067 q 384 1116 416 1104 q 315 1120 351 1128 q 243 1086 278 1112 q 190 1020 209 1059 q 175 931 171 981 q 220 826 179 882 q 276 724 270 760 q 247 675 282 689 l 229 667 q 193 654 213 662 q 156 639 174 646 l 140 631 q 159 595 144 616 q 190 555 174 574 q 220 520 206 536 q 237 499 235 505 q 245 451 252 469 q 216 419 237 433 q 167 392 194 406 q 117 357 140 378 q 83 304 95 336 q 83 217 72 271 q 102 124 83 164 q 149 56 121 84 q 213 9 178 28 q 280 -23 248 -9 q 338 -46 312 -37 q 374 -66 363 -56 z "},"|":{"ha":191,"x_min":30,"x_max":152,"o":"m 64 69 q 77 225 73 132 q 79 425 80 319 q 75 643 79 530 q 64 857 71 755 q 48 1038 57 958 q 30 1164 39 1118 q 51 1177 42 1172 q 72 1181 60 1181 q 88 1178 81 1181 q 99 1164 95 1175 q 136 628 126 898 q 152 91 146 358 q 152 58 152 79 q 151 35 152 37 q 117 26 132 26 q 90 35 102 27 q 71 52 77 42 q 64 69 64 61 z "},"}":{"ha":484,"x_min":-9,"x_max":430,"o":"m 90 -103 q 123 -82 99 -92 q 178 -58 148 -72 q 242 -26 209 -45 q 303 22 275 -7 q 349 90 331 50 q 366 184 366 129 q 365 271 376 237 q 332 326 354 305 q 286 360 311 347 q 241 387 260 373 q 212 418 221 400 q 218 467 203 435 q 235 488 221 472 q 265 524 250 505 q 294 564 281 543 q 311 601 308 585 l 296 608 q 260 623 279 616 q 225 637 241 631 l 212 644 q 183 694 178 658 q 237 796 189 730 q 278 901 274 850 q 264 991 282 952 q 214 1059 247 1031 q 146 1095 180 1086 q 81 1091 111 1104 q 38 1040 50 1078 q 34 1040 37 1040 q 30 1039 31 1039 q 3 1054 15 1039 q -9 1090 -9 1069 q 94 1145 41 1133 q 195 1145 148 1158 q 280 1099 243 1133 q 334 1018 317 1066 q 344 909 351 970 q 297 784 336 848 q 267 728 274 749 q 262 694 259 707 q 279 675 266 682 q 315 659 293 667 q 363 664 338 667 q 404 648 389 661 q 414 615 418 636 q 376 568 410 594 q 336 539 355 563 q 306 490 317 515 q 294 445 294 464 q 311 429 293 426 q 378 428 354 435 q 413 391 401 420 q 427 308 425 361 q 430 171 430 255 q 399 39 420 92 q 351 -49 378 -14 q 293 -104 324 -84 q 230 -134 262 -123 q 169 -147 198 -144 q 119 -153 140 -151 q 108 -142 115 -149 q 94 -129 100 -136 q 85 -115 88 -122 q 90 -103 83 -109 z "},"~":{"ha":637,"x_min":52,"x_max":571,"o":"m 511 964 q 547 970 530 970 q 571 947 564 971 q 566 901 579 926 q 530 851 553 876 q 478 805 506 826 q 426 772 450 784 q 386 769 406 766 q 349 779 366 772 q 321 798 332 787 q 305 821 309 808 q 280 849 288 830 q 264 886 273 868 q 243 918 255 905 q 205 929 231 930 q 164 916 176 929 q 144 883 152 902 q 127 844 136 864 q 100 811 118 825 q 78 809 87 807 q 64 817 69 811 q 57 831 60 822 q 52 849 54 840 q 73 920 54 891 q 117 965 91 948 q 176 988 144 982 q 237 991 208 994 q 290 978 266 989 q 326 948 315 967 q 363 865 345 886 q 399 846 381 844 q 433 870 416 849 q 463 913 449 891 q 490 953 477 936 q 511 964 502 970 z "},"":{"ha":625,"x_min":0,"x_max":0,"o":""},"":{"ha":191,"x_min":34,"x_max":160,"o":"m 36 186 q 41 -4 36 90 q 53 -197 46 -98 q 61 -208 56 -206 q 74 -211 66 -211 q 91 -205 86 -211 q 97 -192 95 -200 q 98 -176 99 -185 q 98 -161 98 -167 l 98 157 q 101 197 98 176 l 108 238 q 115 277 113 259 q 112 308 117 295 q 98 327 110 319 q 74 336 87 336 q 45 317 53 336 q 35 273 36 298 q 35 224 33 248 q 36 186 36 199 m 111 669 l 111 653 q 112 642 111 648 q 117 632 113 636 q 127 628 120 628 q 155 638 151 628 q 159 661 159 648 q 155 685 159 676 q 127 694 151 694 q 117 690 120 694 q 112 680 113 686 q 111 669 111 675 z "},"":{"ha":548,"x_min":35,"x_max":495,"o":"m 247 -80 q 251 -40 250 -61 q 255 3 252 -19 q 236 0 245 0 l 217 0 q 127 35 163 0 q 71 118 91 69 q 43 220 52 167 q 35 312 35 274 q 47 465 41 382 q 73 621 54 547 q 128 749 92 694 q 225 815 164 803 q 203 954 216 901 q 225 966 216 962 q 247 971 235 971 q 263 968 256 971 q 274 954 270 964 q 281 878 277 914 q 286 807 285 841 q 345 772 313 793 q 399 723 377 750 q 428 668 422 696 q 411 616 434 640 q 378 628 395 616 q 345 659 361 640 q 314 695 328 677 q 289 726 300 713 q 296 582 293 654 q 301 433 298 510 q 305 272 304 355 q 309 95 307 189 l 309 81 q 366 130 347 99 q 396 199 384 161 q 420 273 408 236 q 458 343 433 311 q 482 342 475 347 q 492 330 490 338 q 495 311 495 321 l 495 296 q 483 208 495 251 q 448 127 471 164 q 391 62 425 91 q 316 18 358 34 q 323 -43 320 -15 q 326 -72 326 -71 q 269 -94 290 -92 q 247 -80 247 -96 m 222 66 q 241 67 232 66 q 259 69 250 68 q 261 231 262 144 q 256 407 260 319 q 246 582 252 495 q 233 745 240 669 q 195 707 213 736 q 162 637 176 677 q 137 551 148 597 q 119 460 126 505 q 107 378 111 415 q 103 321 103 342 q 103 244 100 286 q 119 165 106 202 q 157 102 133 129 q 222 66 182 76 z "},"":{"ha":749,"x_min":18,"x_max":712,"o":"m 18 519 q 18 532 18 522 q 20 545 19 543 q 89 555 42 548 q 193 568 136 562 q 250 716 213 651 q 334 827 286 781 q 437 899 381 873 q 547 924 492 924 q 604 911 579 924 q 644 879 628 899 q 667 831 659 859 q 674 774 674 804 q 635 787 650 774 q 608 814 620 799 q 582 842 595 829 q 548 854 568 854 q 466 837 509 854 q 385 784 423 819 q 314 696 346 749 q 264 578 282 644 q 359 589 316 583 q 420 597 401 594 q 433 597 422 597 q 457 599 445 598 q 480 600 469 600 q 494 601 491 601 q 471 570 494 585 q 414 543 449 555 q 336 519 380 530 q 248 500 292 509 l 221 321 q 220 227 225 275 q 214 140 216 178 q 218 80 213 102 q 247 68 224 58 q 279 88 260 73 q 325 119 298 103 q 385 149 351 136 q 460 166 419 163 q 553 159 502 170 q 663 115 604 148 q 707 100 696 113 q 711 73 719 88 q 678 45 704 58 q 612 31 652 33 q 578 71 602 54 q 511 90 555 88 q 399 72 467 91 q 237 0 332 53 q 212 -17 225 -11 q 185 -17 198 -23 q 162 12 172 -11 q 146 79 152 34 q 143 195 141 123 q 156 372 145 266 q 159 399 157 387 q 163 425 161 412 q 169 453 165 438 q 176 488 172 468 q 107 479 137 481 q 64 476 77 476 q 18 519 18 476 z "},"":{"ha":694,"x_min":53,"x_max":589,"o":"m 114 121 q 75 117 90 110 q 54 139 60 123 q 53 174 49 155 q 73 210 57 194 l 197 392 q 174 526 178 464 q 198 654 171 589 q 164 738 176 697 q 155 811 152 779 q 201 831 168 845 q 243 800 235 825 q 256 741 251 776 q 355 792 294 777 q 445 751 412 781 q 482 839 465 798 q 510 909 499 880 q 530 911 517 913 q 556 903 543 909 q 580 890 570 898 q 589 872 590 882 q 547 765 575 814 q 488 669 519 716 q 500 588 498 631 q 506 503 502 545 q 503 412 506 463 q 475 304 500 362 l 518 202 q 518 192 518 201 q 515 178 518 183 q 509 163 513 171 q 498 151 505 156 q 482 144 491 145 q 463 151 473 142 q 444 195 454 168 q 419 252 433 221 q 380 229 401 237 q 331 221 359 221 q 228 298 274 197 q 180 222 208 266 q 114 121 152 179 m 244 548 q 256 403 245 456 q 282 328 266 350 q 318 307 298 305 q 357 325 338 309 q 395 366 377 340 q 425 418 412 392 q 441 463 437 444 q 439 484 445 481 q 439 557 439 524 q 431 618 438 591 q 410 667 425 646 q 365 701 395 688 q 318 687 340 701 q 279 650 296 673 q 252 604 262 628 q 243 556 243 579 l 243 552 q 244 548 243 549 z "},"":{"ha":665,"x_min":66,"x_max":591,"o":"m 127 1061 q 127 1065 127 1062 q 127 1069 127 1067 q 138 1083 132 1080 q 151 1086 144 1086 q 167 1084 159 1086 q 180 1080 175 1082 q 220 1042 202 1073 q 258 968 239 1010 q 299 878 277 925 q 349 791 321 830 q 427 971 396 905 q 474 1071 457 1038 q 498 1111 491 1104 q 507 1114 506 1118 q 507 1101 509 1109 q 506 1095 506 1092 q 525 1120 515 1118 q 549 1116 534 1123 q 582 1101 567 1111 q 591 1069 597 1090 q 542 975 566 1016 q 498 902 518 935 q 460 840 477 869 q 427 779 442 811 q 400 708 412 747 q 380 616 388 669 l 378 606 q 378 585 378 598 q 377 555 377 571 l 377 522 q 453 532 420 529 q 502 537 486 534 q 515 538 505 537 q 538 539 526 538 q 562 541 551 540 q 575 541 572 541 q 583 498 593 517 q 543 465 572 479 q 470 441 514 450 q 377 425 426 431 l 377 351 q 437 355 408 354 q 498 351 467 355 q 547 338 536 347 q 553 320 559 330 q 532 301 548 311 q 498 286 515 292 q 446 293 477 293 q 377 289 415 293 q 376 189 377 237 q 375 103 376 140 q 373 45 374 66 q 369 24 372 24 l 296 16 l 301 279 q 222 268 262 274 q 150 260 182 262 q 96 263 118 259 q 66 281 73 267 q 73 299 66 286 q 84 316 80 312 q 203 328 151 320 q 302 343 256 335 l 304 419 q 218 414 259 415 q 145 416 176 414 q 99 460 99 416 q 100 472 99 463 q 103 486 102 481 q 134 490 114 487 q 182 497 155 494 q 242 505 210 500 q 307 513 274 509 l 309 623 q 279 682 297 644 q 241 763 260 719 q 201 854 221 807 q 166 942 182 901 q 139 1015 151 983 q 127 1061 127 1047 z "},"":{"ha":191,"x_min":30,"x_max":152,"o":"m 72 723 q 63 852 68 785 q 53 979 58 918 q 41 1088 47 1039 q 30 1164 35 1137 q 51 1177 42 1172 q 72 1181 60 1181 q 88 1178 81 1181 q 99 1164 95 1175 q 108 1061 103 1116 q 117 946 113 1005 q 125 831 122 887 q 132 726 129 774 l 72 723 m 137 637 q 144 485 141 549 q 148 361 146 420 q 150 239 149 302 q 152 91 151 176 q 152 58 152 79 q 151 35 152 37 q 117 26 132 26 q 90 35 102 27 q 71 52 77 42 q 64 69 64 61 q 77 187 72 127 q 83 315 81 247 q 83 462 85 382 q 77 637 81 541 l 137 637 z "},"":{"ha":509,"x_min":23,"x_max":490,"o":"m 142 20 q 172 37 142 19 q 241 83 201 54 q 323 147 281 113 q 392 213 365 182 q 421 267 419 244 q 384 296 423 289 q 302 294 335 302 q 241 275 269 286 q 191 255 214 264 q 138 248 167 245 q 56 286 79 248 q 34 387 34 323 q 54 491 34 442 q 110 579 75 540 q 41 623 60 586 q 23 719 23 659 q 51 840 23 783 q 124 939 79 897 q 228 1006 170 982 q 347 1031 286 1031 q 389 1027 372 1031 q 407 996 407 1024 q 391 961 407 978 q 354 944 374 944 q 347 946 353 944 q 336 952 342 948 q 326 958 331 956 q 319 960 320 960 q 234 947 274 971 q 162 882 194 922 q 111 793 130 841 q 91 707 91 745 q 98 682 91 690 q 115 669 104 674 q 138 665 125 665 q 164 665 151 665 q 219 673 191 665 q 273 691 247 681 q 328 710 300 701 q 384 719 355 719 q 415 711 399 719 q 445 689 431 703 q 468 657 458 675 q 479 616 477 639 q 474 568 487 598 q 435 503 461 537 q 375 432 410 468 q 304 366 340 396 q 349 380 326 374 q 396 387 372 387 q 426 379 410 387 q 456 357 442 372 q 479 325 469 343 q 490 285 488 307 q 485 235 498 266 q 446 168 472 203 q 384 97 420 133 q 311 32 347 61 q 239 -16 274 3 q 179 -33 203 -34 q 147 -16 152 -33 q 142 20 142 0 m 103 374 q 126 341 103 343 q 182 357 149 339 q 255 408 216 374 q 326 477 294 441 q 377 547 358 513 q 391 603 396 581 q 349 629 385 625 q 236 609 313 633 q 183 562 208 591 q 141 501 159 533 q 113 435 123 469 q 103 374 103 401 z "},"":{"ha":426,"x_min":84,"x_max":369,"o":"m 84 1002 q 117 1030 103 1023 q 152 1038 130 1038 q 189 1002 189 1038 q 184 984 189 994 q 172 965 179 974 q 155 951 164 956 q 137 949 145 945 q 117 947 127 944 q 99 958 107 949 q 86 977 91 966 q 84 1002 81 989 m 263 1002 q 297 1030 283 1023 q 332 1038 311 1038 q 369 1002 369 1038 q 364 984 369 994 q 351 965 359 974 q 334 951 343 956 q 316 949 324 945 q 297 947 308 944 q 278 958 286 949 q 266 977 270 966 q 263 1002 262 989 z "},"":{"ha":674,"x_min":20,"x_max":651,"o":"m 20 290 q 67 566 31 448 q 153 766 103 685 q 264 888 203 846 q 385 935 324 930 q 500 907 445 940 q 595 806 555 873 q 651 629 640 722 q 644 448 662 537 q 585 279 627 359 q 483 136 543 198 q 350 37 423 75 q 197 -1 277 0 q 113 30 146 -1 q 58 106 79 61 q 29 201 38 152 q 20 290 20 251 m 187 430 q 197 526 191 473 q 222 622 203 578 q 275 696 240 666 q 372 726 311 726 q 415 708 400 726 q 437 667 430 690 q 444 620 444 644 q 445 579 445 595 q 400 587 418 574 q 372 616 382 600 q 358 648 361 633 q 357 665 355 663 q 311 636 328 663 q 281 570 292 608 q 267 494 271 532 q 263 437 263 457 q 261 392 262 416 q 267 345 260 368 q 291 307 274 323 q 340 286 308 292 q 416 323 391 301 q 456 367 441 345 q 488 411 472 389 q 533 448 503 433 q 555 446 549 450 q 563 434 562 441 q 559 654 574 567 q 515 791 545 742 q 441 852 484 840 q 351 846 397 865 q 258 779 304 826 q 175 661 212 731 q 115 498 138 590 q 92 298 92 406 q 96 228 92 264 q 111 161 99 191 q 149 111 123 132 q 216 91 174 91 q 312 106 267 90 q 395 154 357 123 q 464 227 433 184 q 518 316 495 269 q 485 284 505 301 q 441 253 465 267 q 390 230 418 239 q 332 221 362 221 q 258 245 286 221 q 214 303 229 270 q 193 372 198 336 q 187 430 187 408 z "},"":{"ha":316,"x_min":0,"x_max":283,"o":"m 251 207 q 244 247 247 224 q 238 295 241 271 q 230 341 235 320 q 217 376 226 363 q 144 270 176 309 q 89 215 112 231 q 49 199 65 198 q 22 211 32 200 q 7 239 11 222 q 1 271 2 256 q 9 311 1 285 q 31 368 17 337 q 63 431 44 399 q 104 488 83 462 q 150 531 126 514 q 197 548 173 548 q 248 536 231 553 q 254 481 265 520 q 258 407 254 438 q 268 349 263 377 q 278 290 273 321 q 282 217 282 260 q 280 204 282 209 q 260 198 278 198 q 254 202 258 198 q 251 207 251 205 m 207 497 q 183 499 198 507 q 150 471 167 490 q 116 424 133 451 q 83 369 98 397 q 56 316 67 341 q 40 275 44 291 q 49 249 40 252 q 71 256 58 246 q 101 286 84 266 q 133 327 117 305 q 163 370 149 350 q 185 404 177 391 q 197 429 193 418 q 203 452 201 441 q 207 474 206 462 q 207 497 207 485 z "},"":{"ha":906,"x_min":66,"x_max":814,"o":"m 69 496 q 71 500 71 499 l 481 842 q 493 858 488 849 q 503 873 498 867 q 515 882 507 879 q 534 880 522 884 q 555 858 553 873 q 552 825 557 842 q 551 821 551 823 q 549 818 551 819 q 460 716 505 755 q 369 643 416 677 q 269 574 321 609 q 157 484 217 538 l 167 463 q 197 441 168 460 q 263 399 225 423 q 342 351 301 376 q 408 312 384 327 q 429 302 414 309 q 463 289 445 296 q 498 276 481 282 q 521 269 514 270 q 526 244 525 254 q 522 222 528 235 q 500 194 517 206 q 468 176 484 182 q 408 220 448 195 q 321 272 368 244 q 225 330 274 300 q 138 388 176 359 q 79 443 100 416 q 66 492 58 469 l 69 496 m 328 513 q 330 517 330 515 l 741 859 q 752 874 747 865 q 762 889 757 883 q 774 898 766 895 q 793 897 781 901 q 814 874 811 890 q 811 841 817 859 q 810 836 810 840 q 808 834 810 836 q 719 732 762 772 q 627 659 675 692 q 528 590 579 625 q 416 500 476 555 l 426 479 q 455 458 427 476 q 522 416 483 439 q 601 368 560 392 q 667 328 642 343 q 688 317 673 324 q 722 304 704 311 q 757 292 741 298 q 780 285 773 286 q 785 260 784 270 q 781 237 787 250 q 759 210 774 222 q 726 193 743 198 q 666 236 705 212 q 579 288 627 260 q 483 345 532 316 q 397 404 434 374 q 338 459 359 433 q 326 507 317 486 l 328 513 z "},"":{"ha":749,"x_min":88,"x_max":699,"o":"m 88 487 q 96 505 88 492 q 106 522 103 518 q 239 531 165 526 q 387 541 312 536 q 533 549 463 545 q 658 553 604 553 q 669 547 665 553 q 675 531 674 540 q 677 514 677 522 l 677 505 q 688 360 677 433 q 699 201 699 288 q 691 190 699 194 q 675 184 684 186 q 658 183 666 183 l 648 183 q 635 184 643 183 q 627 186 628 186 l 621 479 l 191 469 q 174 469 189 469 q 152 468 160 468 l 141 467 q 119 468 132 467 q 98 473 107 469 q 88 487 88 477 z "},"":{"ha":555,"x_min":18,"x_max":524,"o":"m 18 277 q 24 296 18 282 q 35 312 31 309 q 155 338 95 316 q 275 385 216 359 q 393 431 335 410 q 505 452 450 452 q 515 445 511 452 q 522 429 519 438 q 524 412 524 420 l 524 403 q 522 390 524 397 q 521 381 521 382 l 121 260 q 104 258 118 259 q 81 258 90 258 l 71 256 q 49 258 61 256 q 27 263 37 259 q 18 277 18 267 z "},"":{"ha":532,"x_min":20,"x_max":652,"o":"m 20 290 q 65 565 31 448 q 147 760 99 682 q 253 877 195 837 q 369 919 311 917 q 480 887 427 921 q 574 785 533 853 q 645 602 627 696 q 652 421 663 509 q 602 255 640 334 q 505 119 564 176 q 366 29 445 62 q 197 -1 288 -4 q 113 30 146 -1 q 58 106 79 61 q 29 201 38 152 q 20 290 20 251 m 201 701 l 208 697 q 225 692 216 694 q 242 686 235 689 q 250 682 250 682 q 259 681 252 682 q 264 674 266 680 l 260 639 q 287 649 271 640 q 323 667 302 658 q 370 682 345 675 q 425 685 396 688 q 507 644 487 667 q 520 594 528 620 q 485 543 513 568 q 424 494 457 517 q 359 454 391 471 l 311 429 q 353 406 327 420 q 408 374 380 391 q 460 344 435 358 q 498 326 486 330 q 530 297 521 311 q 568 438 557 363 q 572 582 579 513 q 539 707 566 651 q 467 793 513 764 q 354 821 420 823 q 201 769 288 818 q 163 654 182 713 q 129 535 144 595 q 103 415 114 475 q 92 298 92 355 q 96 231 92 264 q 112 168 99 197 q 149 119 125 140 q 216 91 174 98 q 308 89 264 80 q 388 119 351 98 q 454 174 425 141 q 506 250 484 208 q 449 279 483 251 q 410 300 438 283 q 351 338 382 317 q 291 375 319 358 q 252 395 263 392 l 252 214 l 195 221 l 201 701 m 264 583 q 262 559 263 574 q 260 530 262 545 q 258 498 259 514 q 256 471 256 483 q 285 486 260 473 l 340 514 q 404 549 372 530 q 452 585 435 567 q 464 616 469 602 q 419 636 458 629 q 380 634 401 637 q 336 624 358 631 q 294 607 313 617 q 264 583 275 597 z "},"":{"ha":555,"x_min":18,"x_max":519,"o":"m 18 949 q 25 968 18 955 q 37 985 33 982 q 156 996 96 989 q 275 1012 216 1004 q 390 1026 334 1020 q 500 1032 446 1032 q 512 1025 507 1032 q 518 1010 517 1019 q 519 994 519 1002 l 519 983 q 519 971 519 979 q 518 962 518 963 l 122 933 q 105 931 119 932 q 83 930 91 930 l 72 929 q 50 930 62 929 q 28 936 38 932 q 18 949 18 940 z "},"":{"ha":279,"x_min":37,"x_max":250,"o":"m 39 627 q 37 672 31 650 q 58 713 42 694 q 99 742 75 731 q 153 753 123 753 q 210 739 193 753 q 240 701 227 724 q 250 631 250 663 q 236 576 250 598 q 191 544 222 555 q 107 536 160 533 q 74 546 87 536 q 53 571 61 556 q 42 601 45 586 q 39 627 39 616 m 87 628 q 96 606 87 614 q 115 585 104 598 q 151 581 138 582 q 172 584 164 579 q 186 600 180 589 q 202 631 193 610 q 186 680 205 663 q 146 697 168 697 q 104 680 123 697 q 87 628 85 663 z "},"":{"ha":648,"x_min":22,"x_max":529,"o":"m 66 117 q 73 136 66 122 q 84 152 80 149 q 178 161 134 155 q 264 176 222 168 l 232 365 q 224 366 228 365 q 216 367 220 366 q 212 368 213 368 q 132 355 172 368 q 58 330 91 343 q 35 348 49 336 q 22 373 22 359 q 38 396 22 388 q 79 408 54 404 q 132 413 103 411 q 184 418 160 415 q 225 429 209 422 q 241 452 241 437 l 241 746 q 250 758 241 753 q 270 765 259 762 q 290 768 281 768 q 301 769 298 769 l 301 469 q 363 489 339 481 q 411 501 388 496 q 460 509 434 506 q 529 511 487 511 q 525 481 529 499 q 506 457 521 463 q 447 446 480 452 q 388 433 414 439 q 376 431 384 433 q 360 425 369 429 q 345 420 351 422 q 335 416 338 418 q 326 408 332 414 q 319 399 319 401 l 319 187 q 409 203 363 197 q 505 209 454 209 q 515 202 511 209 q 522 186 519 195 q 524 170 524 178 l 524 160 q 522 147 524 155 q 521 138 521 140 q 333 123 407 130 q 215 111 259 117 q 153 101 171 104 q 130 98 134 98 l 119 96 q 98 98 110 96 q 76 103 85 99 q 66 117 66 107 z "},"":{"ha":442,"x_min":23,"x_max":412,"o":"m 95 226 q 140 303 118 264 q 179 383 162 343 q 207 464 196 423 q 218 550 217 506 q 201 590 210 575 q 174 600 191 604 q 126 573 156 597 q 44 500 96 549 q 30 510 37 504 q 23 523 23 516 q 24 526 23 524 q 24 529 24 528 q 59 565 39 545 q 101 604 78 586 q 150 635 125 623 q 203 646 175 646 q 243 607 231 634 q 255 544 255 580 q 247 469 256 509 q 224 389 238 429 q 191 313 209 349 q 156 252 173 278 l 370 314 q 374 315 370 314 q 380 315 378 315 q 390 314 384 315 q 400 312 395 313 q 407 307 404 310 q 411 300 411 304 q 345 271 382 282 q 267 249 307 259 q 188 229 226 239 q 120 205 150 219 q 102 208 109 205 q 95 226 95 210 z "},"":{"ha":389,"x_min":16,"x_max":365,"o":"m 140 261 q 154 286 140 273 q 188 314 168 299 q 233 347 208 329 q 278 384 257 364 q 312 428 298 405 q 326 479 326 452 q 317 511 326 498 q 296 530 309 524 q 267 540 284 537 q 235 543 251 543 q 202 538 218 544 q 171 522 187 531 q 141 504 156 514 q 113 488 127 494 q 86 484 99 483 q 59 498 73 486 l 59 500 q 60 503 59 503 l 201 660 q 225 708 224 691 q 212 731 225 725 q 176 732 199 736 q 129 718 153 729 q 82 692 104 708 q 50 660 60 677 q 47 660 49 660 q 44 659 45 659 q 26 667 35 659 q 18 685 18 675 q 31 707 18 695 q 63 728 43 718 q 108 748 83 739 q 156 764 132 757 q 200 775 180 771 q 232 779 221 779 q 259 754 253 769 q 262 718 265 738 q 248 677 258 699 q 223 635 237 655 q 195 594 209 614 q 171 561 181 575 q 207 572 188 571 q 245 572 227 572 q 287 567 265 572 q 326 550 308 561 q 354 522 343 539 q 365 483 365 506 q 344 409 365 444 q 292 342 322 373 q 225 283 261 310 q 161 236 189 257 q 147 246 154 240 q 140 261 140 252 z "},"":{"ha":216,"x_min":26,"x_max":191,"o":"m 66 815 q 26 844 30 823 q 41 890 23 864 q 90 947 58 917 q 152 1006 121 978 q 183 994 175 1006 q 191 966 191 982 l 191 956 q 175 921 189 940 q 142 883 161 902 q 102 846 123 864 q 66 815 81 829 z "},"":{"ha":538,"x_min":37,"x_max":476,"o":"m 380 228 q 341 168 366 197 q 288 116 316 138 q 229 80 259 94 q 172 65 198 66 q 130 75 146 64 q 111 114 114 85 q 104 92 107 114 q 99 39 102 71 q 95 -28 96 8 q 94 -92 94 -64 l 94 -156 l 37 -178 l 45 726 q 59 742 50 739 q 80 745 68 745 q 100 742 91 745 q 115 726 109 739 q 116 675 115 711 q 119 597 117 640 q 125 505 122 553 q 130 413 127 457 q 134 334 132 369 q 137 285 136 300 q 140 252 138 274 q 147 207 142 231 q 159 164 152 183 q 179 144 167 145 q 220 161 199 144 q 262 206 241 179 q 300 266 282 233 q 332 329 317 298 q 353 384 346 359 q 362 420 361 408 q 368 486 365 442 q 372 578 370 529 q 374 670 373 627 q 374 735 374 713 l 449 731 q 458 532 457 617 q 460 378 460 448 q 464 245 461 308 q 476 115 467 183 q 463 113 473 114 q 438 110 452 111 q 413 108 425 109 q 399 107 401 107 l 380 228 z "},"":{"ha":621,"x_min":31,"x_max":563,"o":"m 509 41 q 494 183 499 118 q 486 304 488 248 q 482 415 483 361 q 481 526 481 469 q 481 647 481 583 q 480 788 481 711 q 462 779 469 780 q 448 777 454 777 q 432 770 441 776 q 411 749 423 765 q 419 597 414 682 q 430 422 425 511 q 439 247 435 332 q 444 95 444 161 q 443 70 444 84 q 438 43 442 56 q 425 23 434 31 q 397 15 416 15 q 379 26 384 15 q 372 52 374 37 q 369 182 373 103 q 359 346 365 260 q 346 513 353 431 q 336 652 339 594 q 306 608 331 628 q 247 574 281 589 q 175 553 213 560 q 105 552 137 547 q 52 574 73 557 q 31 627 31 591 q 41 722 31 681 q 75 791 52 762 q 138 839 99 819 q 235 871 176 859 q 346 880 302 876 q 420 886 389 884 q 475 884 450 887 q 532 873 500 882 q 534 786 532 846 q 540 650 537 726 q 547 492 543 575 q 553 333 551 408 q 557 198 555 258 q 560 110 560 138 q 561 91 560 107 q 562 68 562 75 q 562 50 562 58 q 559 36 563 42 q 549 26 556 30 q 528 23 543 23 q 515 30 522 23 q 509 41 509 37 z "},"":{"ha":179,"x_min":27,"x_max":132,"o":"m 27 359 q 60 389 46 381 q 95 396 73 396 q 132 359 132 396 q 127 342 132 353 q 114 323 122 332 q 97 309 106 313 q 79 308 88 304 q 60 304 71 301 q 41 315 50 308 q 28 335 33 323 q 27 359 24 347 z "},"":{"ha":448,"x_min":85,"x_max":404,"o":"m 90 -362 q 117 -353 90 -358 q 181 -339 145 -347 q 251 -319 217 -331 q 296 -292 285 -308 q 285 -253 307 -275 q 189 -201 263 -231 q 107 -163 129 -201 q 85 -61 85 -126 q 100 28 91 -1 q 120 64 110 57 q 140 60 130 71 q 155 27 149 49 q 161 -22 160 5 q 153 -73 161 -49 q 262 -140 216 -117 q 340 -184 309 -163 q 388 -237 372 -206 q 404 -326 404 -267 q 362 -372 395 -354 q 288 -399 330 -389 q 201 -414 245 -410 q 126 -416 157 -418 q 94 -400 98 -416 q 90 -362 90 -384 z "},"":{"ha":156,"x_min":41,"x_max":107,"o":"m 60 224 q 45 342 48 285 q 42 455 41 399 q 45 567 42 510 q 45 683 47 623 q 51 689 45 685 q 60 693 57 693 q 76 689 64 693 q 92 683 88 685 q 93 635 92 668 q 96 560 95 602 q 98 473 96 519 q 102 385 100 427 q 105 311 104 344 q 106 262 106 278 q 106 252 106 261 q 106 239 106 243 q 107 229 106 234 q 105 221 107 225 q 96 216 102 218 q 76 214 89 214 q 66 218 72 214 q 60 224 60 222 z "},"":{"ha":296,"x_min":20,"x_max":278,"o":"m 28 285 q 21 346 21 316 q 27 407 21 376 q 44 470 33 437 q 71 542 55 504 q 77 556 71 549 q 94 567 84 562 q 117 574 105 571 q 140 577 129 577 q 183 567 164 577 q 218 544 203 558 q 245 515 234 530 q 264 489 257 500 q 277 434 273 465 q 277 372 280 404 q 262 311 274 341 q 228 255 250 280 q 173 212 207 230 q 92 191 139 195 q 54 202 67 191 q 35 228 41 212 q 29 259 29 243 q 28 285 28 275 m 84 287 q 84 274 84 280 q 86 262 85 268 q 91 250 88 256 q 98 235 93 243 l 104 235 q 148 246 130 235 q 180 274 167 257 q 201 313 193 292 q 215 356 210 335 q 221 395 220 376 q 223 424 223 413 l 223 437 q 222 457 223 446 q 218 481 221 469 q 210 503 215 493 q 196 519 205 513 q 173 525 187 525 q 133 523 150 530 q 106 500 116 516 q 90 461 95 484 q 84 409 85 437 q 83 350 82 381 q 84 287 84 318 z "},"":{"ha":869,"x_min":64,"x_max":798,"o":"m 64 201 q 104 264 68 228 q 189 338 140 300 q 294 418 239 377 q 391 496 349 458 q 456 567 434 533 q 463 625 479 601 l 83 830 q 72 847 79 834 q 65 865 65 860 q 68 878 65 871 q 77 892 72 884 q 89 907 83 901 q 100 917 95 913 l 515 677 q 544 618 548 655 q 511 536 540 581 q 434 442 481 491 q 334 347 387 393 q 229 262 281 301 q 140 196 178 222 q 85 161 103 170 q 83 165 66 152 q 66 179 68 165 q 64 201 64 193 m 317 217 q 359 281 323 245 q 444 356 395 317 q 549 435 494 395 q 646 513 604 476 q 711 584 689 551 q 716 642 732 617 l 336 848 q 326 863 332 850 q 319 883 319 876 q 322 895 319 887 q 331 910 326 902 q 342 924 336 918 q 354 933 349 930 l 769 694 q 798 635 802 673 q 764 553 793 598 q 688 458 735 507 q 587 364 640 410 q 484 279 534 319 q 395 213 433 239 q 339 178 357 187 q 336 183 321 168 q 320 197 323 183 q 317 217 317 210 z "},"":{"ha":943,"x_min":41,"x_max":880,"o":"m 60 212 q 45 348 48 282 q 42 478 41 414 q 45 607 42 542 q 45 741 47 672 q 51 748 45 744 q 60 753 57 753 q 76 748 64 753 q 92 741 88 744 q 93 686 92 724 q 96 600 95 647 q 98 499 96 552 q 102 398 100 446 q 105 312 104 350 q 106 256 106 274 q 106 244 106 254 q 106 229 106 234 q 107 218 106 223 q 105 209 107 213 q 96 203 102 205 q 76 201 89 201 q 66 205 72 201 q 60 212 60 209 m 49 -80 l 363 952 l 430 952 l 94 -134 q 62 -121 76 -134 q 49 -90 49 -107 l 49 -80 m 272 218 q 273 230 272 219 q 278 252 274 241 q 291 272 282 263 q 317 276 301 280 q 415 377 372 327 q 496 477 458 427 q 572 579 535 527 q 651 685 608 630 q 665 697 657 695 q 683 699 672 699 q 703 697 691 699 q 716 685 716 695 l 716 335 q 798 342 758 335 q 880 349 838 349 q 878 314 891 323 q 837 302 864 305 q 777 298 810 299 q 716 288 743 296 l 716 -5 q 708 -14 716 -9 q 689 -23 699 -19 q 668 -28 678 -26 q 651 -30 657 -30 l 651 280 l 272 218 m 651 557 q 589 490 623 525 q 522 420 555 456 q 459 348 489 384 q 413 276 430 312 l 428 276 q 491 289 453 281 q 565 304 529 296 q 626 317 601 312 l 651 323 l 651 557 z "},"":{"ha":963,"x_min":75,"x_max":845,"o":"m 91 231 q 78 372 81 304 q 75 507 74 441 q 78 641 75 574 q 78 781 80 708 q 83 788 78 783 q 91 792 88 792 q 105 788 94 792 q 118 781 115 783 q 120 723 118 763 q 122 634 121 683 q 124 529 122 584 q 127 424 126 474 q 130 335 129 375 q 131 277 131 296 q 131 264 131 275 q 131 249 131 254 q 131 238 131 243 q 130 228 132 232 q 122 222 128 224 q 105 220 116 220 q 96 224 102 220 q 91 231 91 229 m 117 -62 l 431 970 l 498 970 l 161 -117 q 130 -103 144 -117 q 117 -72 117 -90 l 117 -62 m 426 50 q 486 149 457 98 q 537 253 515 201 q 574 359 560 305 q 588 471 587 413 q 566 522 578 504 q 530 536 554 540 q 467 501 507 531 q 359 405 427 470 q 340 419 349 411 q 331 436 331 426 q 332 440 331 437 q 332 443 332 442 q 378 491 352 464 q 435 541 404 518 q 498 581 465 565 q 569 596 532 596 q 622 545 606 580 q 638 463 638 510 q 627 365 639 417 q 596 261 616 313 q 553 163 577 210 q 507 83 529 116 l 790 164 q 795 164 791 164 q 803 165 800 165 q 816 164 809 165 q 829 161 823 163 q 840 155 835 159 q 844 145 844 151 q 756 107 807 122 q 653 79 706 92 q 549 53 600 65 q 459 22 499 40 q 436 25 445 22 q 426 50 426 29 z "},"":{"ha":1206,"x_min":52,"x_max":964,"o":"m 217 232 q 236 265 217 248 q 282 302 254 282 q 342 344 309 321 q 402 393 375 367 q 448 451 430 420 q 467 517 467 482 q 456 559 467 542 q 428 584 445 575 q 389 597 410 593 q 345 600 367 600 q 301 594 322 603 q 259 574 280 585 q 219 550 238 562 q 180 529 199 537 q 144 524 161 522 q 108 542 126 526 l 108 545 q 109 548 108 548 l 299 754 q 331 816 330 794 q 314 846 331 838 q 265 848 296 853 q 201 830 234 843 q 139 796 169 816 q 95 754 109 776 q 91 753 94 754 q 88 753 89 753 q 64 763 75 753 q 52 786 52 774 q 69 815 52 800 q 113 843 87 829 q 173 869 140 856 q 238 890 206 881 q 298 904 270 899 q 341 910 326 910 q 377 876 369 897 q 381 830 386 855 q 362 776 376 804 q 329 720 347 748 q 291 668 310 693 q 259 625 271 643 q 307 638 281 638 q 358 639 333 639 q 415 632 386 639 q 467 610 444 625 q 506 574 491 595 q 521 522 521 552 q 492 425 521 471 q 421 337 463 379 q 331 261 379 296 q 245 199 283 227 q 226 212 235 204 q 217 232 217 221 m 418 -62 l 732 970 l 799 970 l 463 -117 q 431 -103 445 -117 q 418 -72 418 -90 l 418 -62 m 490 257 q 491 271 490 259 q 495 296 492 283 q 505 319 497 309 q 525 324 512 328 q 601 441 567 383 q 665 555 635 498 q 724 672 695 613 q 785 795 752 732 q 796 809 790 807 q 811 811 802 811 q 826 809 816 811 q 836 795 836 807 l 836 391 q 900 400 869 391 q 964 408 931 408 q 962 367 973 378 q 931 354 952 357 q 884 349 910 350 q 836 338 857 347 l 836 0 q 830 -11 836 -5 q 815 -20 823 -17 q 798 -27 807 -24 q 785 -29 790 -29 l 785 328 l 490 257 m 785 648 q 737 571 764 611 q 685 490 710 531 q 636 407 659 448 q 600 324 613 365 l 611 324 q 660 338 631 329 q 718 356 690 347 q 766 371 746 365 l 785 378 l 785 648 z "},"":{"ha":753,"x_min":115,"x_max":718,"o":"m 480 1053 q 470 1026 480 1032 q 446 1020 461 1020 q 404 1035 421 1020 q 387 1070 387 1051 q 402 1095 387 1088 q 436 1101 417 1101 q 452 1096 444 1101 q 466 1082 460 1090 q 476 1067 472 1074 q 480 1053 480 1059 m 555 553 q 527 462 555 503 q 460 385 499 421 q 372 314 420 348 q 284 242 323 279 q 216 163 244 205 q 189 71 189 122 q 206 29 189 42 q 248 9 223 15 q 304 4 274 4 q 359 5 333 5 q 446 21 404 5 q 524 55 487 37 q 599 89 562 73 q 674 104 636 104 q 704 100 691 104 q 717 71 717 96 q 693 41 717 56 q 631 12 668 26 q 547 -15 593 -2 q 457 -37 501 -28 q 378 -51 413 -46 q 325 -57 343 -57 q 256 -53 294 -57 q 188 -36 218 -48 q 137 -3 157 -25 q 116 53 116 19 q 153 179 116 117 q 242 296 190 240 q 350 398 294 351 q 446 483 406 446 q 468 506 463 491 q 467 538 472 522 q 446 571 461 555 q 408 594 431 586 q 355 599 384 602 q 289 577 325 596 l 262 626 q 332 652 292 646 q 409 659 372 659 q 461 652 436 659 q 508 631 487 644 q 542 597 529 617 q 555 553 555 577 z "},"":{"ha":543,"x_min":56,"x_max":684,"o":"m 56 0 q 62 49 60 19 q 70 127 65 79 q 81 248 75 176 q 98 423 87 320 q 123 665 109 526 q 160 989 137 804 q 173 1005 161 1002 q 194 1008 184 1008 q 218 997 209 1008 q 235 972 228 986 q 250 944 243 959 q 264 920 256 929 q 292 848 278 888 q 323 761 307 807 q 355 668 339 715 q 388 577 372 621 q 418 496 404 533 q 445 434 433 458 q 487 446 460 435 q 545 465 514 456 q 606 480 576 475 q 656 481 636 486 q 683 457 677 476 q 673 397 689 438 q 655 401 663 397 q 639 408 647 404 q 622 414 631 411 q 602 418 613 418 q 572 410 595 418 q 521 394 548 403 q 473 376 494 385 q 453 363 453 368 l 547 -4 l 511 -56 q 473 35 488 -16 q 444 136 457 85 q 416 231 430 187 q 380 305 401 275 q 312 282 351 292 q 236 258 273 273 q 173 220 199 244 q 141 156 146 197 q 136 113 138 140 q 132 61 134 85 q 125 0 127 31 l 56 0 m 212 799 l 209 776 q 205 722 208 753 q 199 660 202 692 q 194 606 195 628 q 180 456 187 530 q 172 305 172 382 q 227 312 198 305 q 283 330 256 319 q 333 359 311 342 q 368 397 355 376 q 344 496 357 445 q 316 599 331 547 q 283 701 301 651 q 245 799 266 751 q 236 805 244 800 q 212 799 228 810 m 274 1027 q 243 1060 260 1042 q 208 1099 225 1078 q 178 1141 191 1120 q 164 1179 165 1162 l 164 1188 q 172 1219 164 1206 q 198 1233 179 1233 q 254 1169 227 1202 q 296 1107 281 1137 q 309 1057 312 1078 q 274 1027 307 1035 z "},"":{"ha":543,"x_min":35,"x_max":663,"o":"m 35 35 q 42 84 39 54 q 50 163 45 114 q 60 283 54 212 q 77 458 66 355 q 102 701 88 562 q 140 1024 117 840 q 153 1040 141 1038 q 174 1043 164 1043 q 198 1032 189 1043 q 215 1008 208 1021 q 229 979 222 994 q 244 955 236 964 q 272 883 258 924 q 302 796 286 842 q 335 703 319 750 q 368 612 351 656 q 398 531 384 568 q 425 469 412 494 q 467 481 439 471 q 525 500 494 491 q 586 515 556 510 q 636 516 616 521 q 663 492 656 511 q 652 433 669 473 q 635 436 643 433 q 618 443 627 439 q 602 450 610 446 q 582 453 593 453 q 551 446 575 453 q 500 429 528 438 q 453 412 473 420 q 433 399 433 403 l 526 31 l 491 -20 q 452 70 468 19 q 423 172 437 121 q 395 267 410 222 q 359 340 381 311 q 292 317 331 327 q 216 294 252 308 q 153 256 179 279 q 121 191 126 232 q 116 148 118 175 q 111 96 114 121 q 104 35 107 66 l 35 35 m 191 834 l 189 811 q 184 758 187 788 q 178 695 182 727 q 174 642 175 663 q 159 492 167 566 q 152 340 152 418 q 207 347 178 340 q 263 366 236 354 q 313 394 290 377 q 347 433 335 411 q 323 531 336 480 q 296 634 311 582 q 263 736 281 686 q 225 834 245 787 q 216 840 224 836 q 191 834 208 845 m 132 1100 q 92 1128 95 1108 q 106 1175 88 1149 q 155 1232 123 1202 q 217 1291 186 1263 q 248 1279 240 1291 q 256 1251 256 1267 l 256 1241 q 240 1206 254 1225 q 208 1168 227 1187 q 168 1131 189 1149 q 132 1100 146 1114 z "},"":{"ha":543,"x_min":-41,"x_max":663,"o":"m 35 35 q 42 84 39 54 q 50 163 45 114 q 60 283 54 212 q 77 458 66 355 q 102 701 88 562 q 140 1024 117 840 q 153 1040 141 1038 q 174 1043 164 1043 q 198 1032 189 1043 q 215 1008 208 1021 q 229 979 222 994 q 244 955 236 964 q 272 883 258 924 q 302 796 286 842 q 335 703 319 750 q 368 612 351 656 q 398 531 384 568 q 425 469 412 494 q 467 481 439 471 q 525 500 494 491 q 586 515 556 510 q 636 516 616 521 q 663 492 656 511 q 652 433 669 473 q 635 436 643 433 q 618 443 627 439 q 602 450 610 446 q 582 453 593 453 q 551 446 575 453 q 500 429 528 438 q 453 412 473 420 q 433 399 433 403 l 526 31 l 491 -20 q 452 70 468 19 q 423 172 437 121 q 395 267 410 222 q 359 340 381 311 q 292 317 331 327 q 216 294 252 308 q 153 256 179 279 q 121 191 126 232 q 116 148 118 175 q 111 96 114 121 q 104 35 107 66 l 35 35 m 191 834 l 189 811 q 184 758 187 788 q 178 695 182 727 q 174 642 175 663 q 159 492 167 566 q 152 340 152 418 q 207 347 178 340 q 263 366 236 354 q 313 394 290 377 q 347 433 335 411 q 323 531 336 480 q 296 634 311 582 q 263 736 281 686 q 225 834 245 787 q 216 840 224 836 q 191 834 208 845 m -41 1067 q -40 1074 -41 1070 q -39 1078 -39 1077 l 133 1400 q 148 1413 134 1405 q 176 1421 161 1421 q 180 1421 178 1421 q 183 1420 183 1420 l 406 1161 q 437 1147 433 1156 q 442 1126 442 1139 q 440 1112 442 1120 q 433 1095 438 1103 q 418 1082 427 1088 q 396 1077 410 1077 l 391 1077 q 389 1078 389 1077 l 199 1316 q 174 1328 193 1328 l 167 1328 l 12 1058 q 4 1051 11 1055 q -5 1047 -3 1047 q -35 1053 -30 1047 q -41 1067 -41 1058 z "},"":{"ha":543,"x_min":-16,"x_max":663,"o":"m 35 35 q 42 84 39 54 q 50 163 45 114 q 60 283 54 212 q 77 458 66 355 q 102 701 88 562 q 140 1024 117 840 q 153 1040 141 1038 q 174 1043 164 1043 q 198 1032 189 1043 q 215 1008 208 1021 q 229 979 222 994 q 244 955 236 964 q 272 883 258 924 q 302 796 286 842 q 335 703 319 750 q 368 612 351 656 q 398 531 384 568 q 425 469 412 494 q 467 481 439 471 q 525 500 494 491 q 586 515 556 510 q 636 516 616 521 q 663 492 656 511 q 652 433 669 473 q 635 436 643 433 q 618 443 627 439 q 602 450 610 446 q 582 453 593 453 q 551 446 575 453 q 500 429 528 438 q 453 412 473 420 q 433 399 433 403 l 526 31 l 491 -20 q 452 70 468 19 q 423 172 437 121 q 395 267 410 222 q 359 340 381 311 q 292 317 331 327 q 216 294 252 308 q 153 256 179 279 q 121 191 126 232 q 116 148 118 175 q 111 96 114 121 q 104 35 107 66 l 35 35 m 191 834 l 189 811 q 184 758 187 788 q 178 695 182 727 q 174 642 175 663 q 159 492 167 566 q 152 340 152 418 q 207 347 178 340 q 263 366 236 354 q 313 394 290 377 q 347 433 335 411 q 323 531 336 480 q 296 634 311 582 q 263 736 281 686 q 225 834 245 787 q 216 840 224 836 q 191 834 208 845 m 444 1370 q 479 1376 463 1375 q 503 1352 496 1377 q 498 1307 511 1332 q 462 1257 486 1282 q 410 1211 438 1232 q 358 1177 382 1190 q 318 1175 338 1172 q 281 1185 298 1177 q 253 1203 264 1192 q 237 1226 241 1214 q 212 1255 220 1236 q 196 1292 205 1274 q 175 1323 187 1310 q 137 1335 163 1336 q 96 1321 109 1335 q 76 1289 84 1308 q 59 1250 68 1270 q 33 1217 50 1230 q 10 1215 19 1213 q -3 1222 1 1217 q -11 1236 -8 1227 q -16 1255 -14 1245 q 5 1325 -14 1297 q 50 1371 23 1354 q 108 1394 76 1388 q 169 1397 140 1400 q 222 1383 198 1394 q 258 1354 247 1373 q 295 1270 277 1291 q 331 1252 313 1249 q 365 1276 349 1255 q 395 1319 381 1297 q 422 1358 410 1341 q 444 1370 434 1375 z "},"":{"ha":543,"x_min":35,"x_max":663,"o":"m 35 35 q 42 84 39 54 q 50 163 45 114 q 60 283 54 212 q 77 458 66 355 q 102 701 88 562 q 140 1024 117 840 q 153 1040 141 1038 q 174 1043 164 1043 q 198 1032 189 1043 q 215 1008 208 1021 q 229 979 222 994 q 244 955 236 964 q 272 883 258 924 q 302 796 286 842 q 335 703 319 750 q 368 612 351 656 q 398 531 384 568 q 425 469 412 494 q 467 481 439 471 q 525 500 494 491 q 586 515 556 510 q 636 516 616 521 q 663 492 656 511 q 652 433 669 473 q 635 436 643 433 q 618 443 627 439 q 602 450 610 446 q 582 453 593 453 q 551 446 575 453 q 500 429 528 438 q 453 412 473 420 q 433 399 433 403 l 526 31 l 491 -20 q 452 70 468 19 q 423 172 437 121 q 395 267 410 222 q 359 340 381 311 q 292 317 331 327 q 216 294 252 308 q 153 256 179 279 q 121 191 126 232 q 116 148 118 175 q 111 96 114 121 q 104 35 107 66 l 35 35 m 191 834 l 189 811 q 184 758 187 788 q 178 695 182 727 q 174 642 175 663 q 159 492 167 566 q 152 340 152 418 q 207 347 178 340 q 263 366 236 354 q 313 394 290 377 q 347 433 335 411 q 323 531 336 480 q 296 634 311 582 q 263 736 281 686 q 225 834 245 787 q 216 840 224 836 q 191 834 208 845 m 71 1196 q 103 1224 90 1217 q 138 1232 117 1232 q 175 1196 175 1232 q 170 1178 175 1188 q 158 1159 165 1168 q 141 1145 151 1150 q 123 1143 132 1139 q 104 1141 114 1138 q 85 1152 94 1143 q 73 1171 77 1160 q 71 1196 68 1183 m 250 1196 q 283 1224 270 1217 q 319 1232 297 1232 q 355 1196 355 1232 q 351 1178 355 1188 q 338 1159 346 1168 q 320 1145 330 1150 q 302 1143 311 1139 q 283 1141 294 1138 q 264 1152 273 1143 q 252 1171 256 1160 q 250 1196 248 1183 z "},"":{"ha":543,"x_min":7,"x_max":663,"o":"m 9 1089 q 7 1139 -1 1115 q 39 1183 15 1164 q 99 1215 62 1203 q 180 1227 136 1227 q 232 1223 212 1227 q 267 1212 252 1219 q 292 1194 282 1204 q 312 1172 302 1184 q 328 1094 327 1128 q 307 1036 328 1059 q 239 1000 286 1012 q 221 994 231 997 q 228 979 225 987 q 244 955 236 964 q 272 883 258 924 q 302 796 286 842 q 335 703 319 750 q 368 612 351 656 q 398 531 384 568 q 425 469 412 494 q 467 481 439 471 q 525 500 494 491 q 586 515 556 510 q 636 516 616 521 q 663 492 656 511 q 652 433 669 473 q 635 436 643 433 q 618 443 627 439 q 602 450 610 446 q 582 453 593 453 q 551 446 575 453 q 500 429 528 438 q 453 412 473 420 q 433 399 433 403 l 526 31 l 491 -20 q 452 70 468 19 q 423 172 437 121 q 395 267 410 222 q 359 340 381 311 q 292 317 331 327 q 216 294 252 308 q 153 256 179 279 q 121 191 126 232 q 116 148 118 175 q 111 96 114 121 q 104 35 107 66 l 35 35 q 42 84 39 54 q 50 163 45 114 q 60 283 54 212 q 77 458 66 355 q 103 701 88 562 q 134 990 115 826 q 113 991 125 990 q 62 1002 81 991 q 30 1029 42 1013 q 14 1061 18 1044 q 9 1089 9 1078 m 191 834 l 189 811 q 184 758 187 788 q 178 695 182 727 q 174 642 175 663 q 159 492 167 566 q 152 340 152 418 q 207 347 178 340 q 263 366 236 354 q 313 394 290 377 q 347 433 335 411 q 323 531 336 480 q 296 634 311 582 q 263 736 281 686 q 225 834 245 787 q 216 840 224 836 q 191 834 208 845 m 79 1092 q 93 1067 79 1077 q 123 1044 107 1058 q 159 1042 144 1043 q 174 1043 167 1043 q 184 1040 179 1043 q 212 1043 201 1040 q 232 1061 224 1048 q 255 1095 240 1073 q 245 1134 258 1118 q 213 1158 233 1150 q 169 1165 193 1165 q 125 1158 145 1165 q 92 1133 104 1150 q 79 1092 79 1116 z "},"":{"ha":985,"x_min":35,"x_max":967,"o":"m 429 151 q 399 258 414 208 q 359 340 384 309 q 292 317 331 327 q 216 294 252 308 q 153 256 179 279 q 121 191 126 232 q 116 148 118 175 q 111 96 114 121 q 104 35 107 66 l 35 35 q 42 84 39 54 q 50 163 45 114 q 60 283 54 212 q 77 458 66 355 q 102 701 88 562 q 140 1024 117 840 q 153 1040 141 1038 q 174 1043 164 1043 q 198 1032 189 1043 q 215 1008 208 1021 q 229 979 222 994 q 244 955 236 964 q 272 883 258 924 q 302 796 286 842 q 335 703 319 750 q 368 612 351 656 q 398 531 384 568 q 425 469 412 494 l 429 469 q 418 677 426 574 q 393 890 410 781 q 390 901 393 892 q 384 917 387 909 q 378 932 381 925 q 376 943 376 940 q 380 958 376 948 q 393 977 385 968 q 410 990 400 985 q 429 994 419 996 q 455 975 445 991 q 471 939 465 958 q 478 901 476 920 q 480 872 480 882 q 572 920 521 895 q 676 966 623 945 q 783 1002 730 987 q 884 1016 836 1016 q 880 994 884 1004 q 861 978 875 983 l 480 787 l 480 734 q 483 689 481 720 q 487 621 484 658 q 492 549 490 585 q 495 491 494 513 q 516 498 505 494 q 555 517 528 503 q 635 557 583 530 q 774 629 688 583 l 783 639 q 800 654 789 647 q 823 661 811 661 q 845 647 834 662 q 824 618 848 637 q 764 574 800 598 q 685 525 728 551 q 604 478 642 499 q 543 441 567 457 q 518 420 518 425 l 515 126 q 565 131 533 118 q 636 167 597 144 q 718 220 675 190 q 800 279 760 251 q 874 328 840 307 q 932 354 909 349 q 956 349 945 354 q 967 326 967 343 q 948 300 967 311 q 852 238 906 275 q 742 162 799 201 q 629 88 685 123 q 526 31 572 53 l 429 41 l 429 151 m 191 834 l 189 811 q 184 758 187 788 q 178 695 182 727 q 174 642 175 663 q 159 492 167 566 q 152 340 152 418 q 207 347 178 340 q 263 366 236 354 q 313 394 290 377 q 347 433 335 411 q 323 531 336 480 q 296 634 311 582 q 263 736 281 686 q 225 834 245 787 q 216 840 224 836 q 191 834 208 845 z "},"":{"ha":677,"x_min":34,"x_max":643,"o":"m 210 -388 q 238 -378 210 -384 q 302 -365 266 -373 q 372 -345 338 -357 q 416 -317 406 -334 q 406 -278 427 -300 q 311 -227 384 -256 q 228 -189 250 -227 q 206 -87 206 -152 q 218 -7 212 -34 q 201 0 209 -4 q 124 25 156 0 q 73 87 92 50 q 43 165 53 123 q 34 243 34 208 q 43 361 34 286 q 70 521 52 435 q 115 694 88 606 q 180 852 142 781 q 265 967 217 922 q 372 1012 313 1012 q 429 1000 406 1012 q 469 966 453 987 q 492 919 484 945 q 499 861 499 892 q 460 874 475 861 q 433 902 445 887 q 408 930 420 917 q 373 943 395 943 q 293 901 330 943 q 227 796 256 860 q 174 654 197 732 q 135 503 151 576 q 111 368 119 429 q 103 278 103 308 q 107 201 103 239 q 125 134 111 164 q 164 86 138 104 q 237 68 190 68 q 345 103 292 68 q 445 189 399 138 q 525 298 491 240 q 574 399 559 355 q 586 401 576 400 q 598 401 595 401 q 629 398 614 401 q 643 373 643 395 q 605 281 635 330 q 534 187 575 233 q 445 102 494 141 q 350 35 396 62 q 274 1 311 12 q 281 -47 281 -19 q 274 -99 282 -75 q 383 -165 336 -142 q 462 -210 430 -189 q 509 -262 494 -232 q 525 -351 525 -293 q 483 -397 515 -380 q 408 -425 450 -415 q 322 -439 366 -435 q 247 -442 278 -444 q 214 -426 218 -442 q 210 -388 210 -410 z "},"":{"ha":659,"x_min":45,"x_max":636,"o":"m 98 35 q 99 251 98 145 q 98 461 100 357 q 87 671 95 566 q 62 884 79 776 q 59 895 62 887 q 53 912 56 903 q 47 928 50 921 q 45 937 45 935 q 50 954 45 944 q 62 972 54 963 q 79 986 69 981 q 98 990 88 991 q 124 970 114 986 q 140 934 134 954 q 147 895 145 914 q 149 868 149 876 q 241 915 190 890 q 345 961 292 940 q 452 996 399 982 q 553 1010 506 1010 q 549 989 553 998 q 530 972 544 979 l 149 781 l 149 728 q 153 677 151 713 q 157 599 155 640 q 162 520 160 557 q 165 469 164 483 l 445 625 l 452 633 q 469 648 458 642 q 492 656 480 655 q 514 642 503 656 q 490 594 514 617 q 429 548 465 571 q 349 503 392 525 q 270 461 307 481 q 209 420 233 441 q 184 382 184 400 l 184 121 q 234 127 202 114 q 305 163 266 140 q 387 216 345 186 q 469 274 429 247 q 543 323 509 301 q 601 349 578 345 q 625 343 614 349 q 636 321 636 338 q 617 296 636 305 q 508 224 570 267 q 382 139 446 182 q 257 62 319 96 q 151 16 195 27 q 122 19 133 16 q 98 35 111 22 m 288 1053 q 256 1086 274 1067 q 222 1125 239 1104 q 192 1167 205 1146 q 178 1204 179 1188 l 178 1214 q 185 1245 178 1232 q 212 1259 193 1259 q 267 1195 240 1227 q 310 1133 294 1162 q 323 1082 326 1104 q 288 1053 320 1061 z "},"":{"ha":659,"x_min":45,"x_max":636,"o":"m 98 35 q 99 251 98 145 q 98 461 100 357 q 87 671 95 566 q 62 884 79 776 q 59 895 62 887 q 53 912 56 903 q 47 928 50 921 q 45 937 45 935 q 50 954 45 944 q 62 972 54 963 q 79 986 69 981 q 98 990 88 991 q 124 970 114 986 q 140 934 134 954 q 147 895 145 914 q 149 868 149 876 q 241 915 190 890 q 345 961 292 940 q 452 996 399 982 q 553 1010 506 1010 q 549 989 553 998 q 530 972 544 979 l 149 781 l 149 728 q 153 677 151 713 q 157 599 155 640 q 162 520 160 557 q 165 469 164 483 l 445 625 l 452 633 q 469 648 458 642 q 492 656 480 655 q 514 642 503 656 q 490 594 514 617 q 429 548 465 571 q 349 503 392 525 q 270 461 307 481 q 209 420 233 441 q 184 382 184 400 l 184 121 q 234 127 202 114 q 305 163 266 140 q 387 216 345 186 q 469 274 429 247 q 543 323 509 301 q 601 349 578 345 q 625 343 614 349 q 636 321 636 338 q 617 296 636 305 q 508 224 570 267 q 382 139 446 182 q 257 62 319 96 q 151 16 195 27 q 122 19 133 16 q 98 35 111 22 m 283 1020 q 243 1048 247 1028 q 258 1095 240 1069 q 307 1152 275 1122 q 369 1211 338 1183 q 400 1199 392 1211 q 408 1171 408 1187 l 408 1161 q 392 1126 406 1145 q 359 1088 378 1107 q 319 1051 340 1069 q 283 1020 298 1034 z "},"":{"ha":659,"x_min":45,"x_max":636,"o":"m 98 35 q 99 251 98 145 q 98 461 100 357 q 87 671 95 566 q 62 884 79 776 q 59 895 62 887 q 53 912 56 903 q 47 928 50 921 q 45 937 45 935 q 50 954 45 944 q 62 972 54 963 q 79 986 69 981 q 98 990 88 991 q 124 970 114 986 q 140 934 134 954 q 147 895 145 914 q 149 868 149 876 q 241 915 190 890 q 345 961 292 940 q 452 996 399 982 q 553 1010 506 1010 q 549 989 553 998 q 530 972 544 979 l 149 781 l 149 728 q 153 677 151 713 q 157 599 155 640 q 162 520 160 557 q 165 469 164 483 l 445 625 l 452 633 q 469 648 458 642 q 492 656 480 655 q 514 642 503 656 q 490 594 514 617 q 429 548 465 571 q 349 503 392 525 q 270 461 307 481 q 209 420 233 441 q 184 382 184 400 l 184 121 q 234 127 202 114 q 305 163 266 140 q 387 216 345 186 q 469 274 429 247 q 543 323 509 301 q 601 349 578 345 q 625 343 614 349 q 636 321 636 338 q 617 296 636 305 q 508 224 570 267 q 382 139 446 182 q 257 62 319 96 q 151 16 195 27 q 122 19 133 16 q 98 35 111 22 m 104 1104 q 105 1110 104 1107 q 106 1115 106 1114 l 278 1436 q 293 1450 279 1442 q 321 1458 307 1458 q 326 1457 323 1458 q 328 1457 328 1457 l 551 1198 q 583 1184 578 1192 q 587 1162 587 1176 q 585 1148 587 1157 q 578 1132 583 1139 q 564 1119 572 1124 q 541 1114 555 1114 l 536 1114 q 534 1115 534 1114 l 345 1352 q 319 1364 338 1364 l 312 1364 l 157 1095 q 149 1088 156 1092 q 140 1084 142 1084 q 110 1089 115 1084 q 104 1104 104 1095 z "},"":{"ha":659,"x_min":45,"x_max":636,"o":"m 98 35 q 99 251 98 145 q 98 461 100 357 q 87 671 95 566 q 62 884 79 776 q 59 895 62 887 q 53 912 56 903 q 47 928 50 921 q 45 937 45 935 q 50 954 45 944 q 62 972 54 963 q 79 986 69 981 q 98 990 88 991 q 124 970 114 986 q 140 934 134 954 q 147 895 145 914 q 149 868 149 876 q 241 915 190 890 q 345 961 292 940 q 452 996 399 982 q 553 1010 506 1010 q 549 989 553 998 q 530 972 544 979 l 149 781 l 149 728 q 153 677 151 713 q 157 599 155 640 q 162 520 160 557 q 165 469 164 483 l 445 625 l 452 633 q 469 648 458 642 q 492 656 480 655 q 514 642 503 656 q 490 594 514 617 q 429 548 465 571 q 349 503 392 525 q 270 461 307 481 q 209 420 233 441 q 184 382 184 400 l 184 121 q 234 127 202 114 q 305 163 266 140 q 387 216 345 186 q 469 274 429 247 q 543 323 509 301 q 601 349 578 345 q 625 343 614 349 q 636 321 636 338 q 617 296 636 305 q 508 224 570 267 q 382 139 446 182 q 257 62 319 96 q 151 16 195 27 q 122 19 133 16 q 98 35 111 22 m 163 1203 q 195 1231 182 1223 q 231 1238 209 1238 q 267 1203 267 1238 q 262 1185 267 1195 q 250 1166 258 1175 q 233 1152 243 1157 q 216 1150 224 1146 q 196 1147 206 1145 q 178 1158 186 1150 q 165 1178 170 1166 q 163 1203 160 1190 m 342 1203 q 376 1231 362 1223 q 411 1238 389 1238 q 448 1203 448 1238 q 443 1185 448 1195 q 430 1166 438 1175 q 412 1152 422 1157 q 395 1150 403 1146 q 376 1147 387 1145 q 357 1158 365 1150 q 345 1178 349 1166 q 342 1203 340 1190 z "},"":{"ha":213,"x_min":23,"x_max":174,"o":"m 71 1013 q 78 1029 71 1024 q 96 1034 85 1034 q 117 1034 106 1035 q 137 1032 129 1032 q 149 968 144 1016 q 158 851 153 920 q 165 700 163 783 q 169 532 167 617 q 172 366 171 448 q 173 218 172 285 q 174 103 174 151 l 174 42 q 162 10 172 15 q 115 16 152 5 q 109 57 111 18 q 104 161 106 96 q 102 309 103 225 q 99 480 100 392 q 96 656 98 568 q 91 817 94 745 q 83 942 88 890 q 71 1013 79 994 m 133 1095 q 102 1128 119 1109 q 67 1167 84 1146 q 37 1209 50 1188 q 23 1246 24 1230 l 23 1256 q 31 1287 23 1274 q 57 1301 38 1301 q 113 1237 85 1270 q 155 1175 140 1204 q 168 1124 171 1146 q 133 1095 165 1103 z "},"":{"ha":213,"x_min":46,"x_max":212,"o":"m 71 1013 q 78 1029 71 1024 q 96 1034 85 1034 q 117 1034 106 1035 q 137 1032 129 1032 q 149 968 144 1016 q 158 851 153 920 q 165 700 163 783 q 169 532 167 617 q 172 366 171 448 q 173 218 172 285 q 174 103 174 151 l 174 42 q 162 10 172 15 q 115 16 152 5 q 109 57 111 18 q 104 161 106 96 q 102 309 103 225 q 99 480 100 392 q 96 656 98 568 q 91 817 94 745 q 83 942 88 890 q 71 1013 79 994 m 87 1105 q 47 1134 50 1114 q 61 1181 43 1154 q 110 1238 79 1207 q 172 1297 141 1268 q 203 1284 195 1297 q 212 1256 212 1272 l 212 1246 q 195 1211 209 1230 q 163 1173 182 1192 q 123 1137 144 1154 q 87 1105 102 1119 z "},"":{"ha":213,"x_min":-104,"x_max":378,"o":"m 71 1013 q 78 1029 71 1024 q 96 1034 85 1034 q 117 1034 106 1035 q 137 1032 129 1032 q 149 968 144 1016 q 158 851 153 920 q 165 700 163 783 q 169 532 167 617 q 172 366 171 448 q 173 218 172 285 q 174 103 174 151 l 174 42 q 162 10 172 15 q 115 16 152 5 q 109 57 111 18 q 104 161 106 96 q 102 309 103 225 q 99 480 100 392 q 96 656 98 568 q 91 817 94 745 q 83 942 88 890 q 71 1013 79 994 m -104 1069 q -104 1075 -104 1072 q -103 1080 -103 1078 l 69 1401 q 84 1415 71 1407 q 113 1423 98 1423 q 117 1422 114 1423 q 119 1421 119 1421 l 342 1162 q 374 1149 369 1157 q 378 1127 378 1141 q 376 1113 378 1122 q 369 1097 374 1104 q 355 1084 363 1089 q 332 1078 346 1078 l 327 1078 q 326 1080 326 1078 l 136 1317 q 110 1329 129 1329 l 103 1329 l -52 1059 q -60 1053 -53 1057 q -69 1048 -66 1048 q -99 1054 -94 1048 q -104 1069 -104 1059 z "},"":{"ha":213,"x_min":-19,"x_max":266,"o":"m 71 1013 q 78 1029 71 1024 q 96 1034 85 1034 q 117 1034 106 1035 q 137 1032 129 1032 q 149 968 144 1016 q 158 851 153 920 q 165 700 163 783 q 169 532 167 617 q 172 366 171 448 q 173 218 172 285 q 174 103 174 151 l 174 42 q 162 10 172 15 q 115 16 152 5 q 109 57 111 18 q 104 161 106 96 q 102 309 103 225 q 99 480 100 392 q 96 656 98 568 q 91 817 94 745 q 83 942 88 890 q 71 1013 79 994 m -19 1192 q 14 1220 0 1213 q 49 1227 27 1227 q 85 1192 85 1227 q 81 1174 85 1184 q 68 1155 76 1164 q 52 1141 61 1146 q 34 1139 42 1135 q 14 1137 24 1134 q -4 1147 4 1139 q -17 1167 -12 1156 q -19 1192 -22 1179 m 160 1192 q 194 1220 180 1213 q 229 1227 208 1227 q 266 1192 266 1227 q 261 1174 266 1184 q 248 1155 256 1164 q 231 1141 240 1146 q 213 1139 221 1135 q 194 1137 205 1134 q 175 1147 183 1139 q 163 1167 167 1156 q 160 1192 159 1179 z "},"":{"ha":770,"x_min":24,"x_max":739,"o":"m 24 290 q 32 309 24 296 q 42 326 39 323 q 114 332 84 328 q 168 343 144 336 l 133 834 q 119 827 129 831 q 98 817 109 822 q 77 805 87 811 q 64 799 66 799 q 59 798 62 799 q 54 798 56 798 q 39 801 47 798 q 30 817 30 804 q 39 850 30 837 q 62 873 47 863 q 92 895 76 884 q 123 923 109 906 q 146 966 137 940 q 155 1031 155 991 q 189 1021 182 1031 q 197 999 195 1012 q 200 973 198 986 q 220 955 202 960 q 311 955 258 956 q 424 946 365 954 q 541 924 483 939 q 644 882 598 909 q 715 813 689 854 q 739 712 742 772 q 672 511 722 608 q 555 326 623 415 q 410 156 488 237 q 255 0 332 75 q 251 -1 254 0 q 247 -1 248 -1 q 227 7 235 -1 q 218 27 218 15 q 252 97 218 54 q 336 194 286 140 q 446 312 387 248 q 556 444 506 376 q 640 584 606 513 q 674 724 674 655 q 654 787 674 761 q 602 833 633 814 q 530 863 570 852 q 449 880 490 873 q 372 888 408 886 q 309 890 335 890 q 292 889 302 890 q 269 888 281 888 q 248 886 258 887 q 237 884 239 884 l 220 868 q 219 845 220 865 q 218 799 218 825 q 217 746 217 773 l 217 704 q 222 530 217 616 q 232 359 227 445 q 290 370 259 365 q 365 374 320 374 q 376 368 372 374 q 382 353 381 361 q 384 335 384 345 l 384 326 q 383 313 384 321 q 382 304 382 305 l 236 260 q 237 210 237 236 q 237 160 237 184 q 238 142 237 152 q 237 124 239 133 q 230 109 236 115 q 212 103 224 103 q 195 107 203 103 q 186 121 187 111 q 176 222 186 190 q 151 264 165 254 q 120 273 137 275 q 90 271 103 271 l 79 270 q 56 271 68 270 q 34 277 43 273 q 24 290 24 281 z "},"":{"ha":751,"x_min":42,"x_max":701,"o":"m 42 834 l 42 899 q 79 888 58 899 q 118 863 99 878 q 153 829 137 848 q 179 799 170 811 l 579 260 q 587 346 583 283 q 589 488 590 408 q 585 654 589 567 q 576 816 582 741 q 562 943 570 891 q 543 1006 555 996 q 550 1044 543 1027 q 579 1062 557 1062 q 614 1038 601 1062 q 635 983 628 1013 q 645 923 642 952 q 648 884 648 894 q 651 810 650 860 q 654 698 652 761 q 657 564 655 635 q 661 431 659 494 q 664 318 663 369 q 666 243 665 267 q 672 210 666 225 q 684 180 678 195 q 696 151 690 165 q 701 119 701 136 q 682 79 701 92 q 637 66 662 66 q 614 70 624 66 q 597 82 604 73 q 591 104 591 91 q 595 140 590 118 q 549 197 581 157 q 479 287 518 237 q 397 391 441 336 q 315 494 354 445 q 244 583 275 544 l 198 642 q 189 652 195 646 l 156 685 q 145 694 149 692 q 146 536 140 616 q 165 378 153 457 q 188 222 176 300 q 199 65 199 144 q 195 26 199 43 q 163 0 191 9 q 126 36 136 9 q 127 87 117 62 l 42 834 m 518 1275 q 554 1281 537 1280 q 578 1257 571 1282 q 573 1212 586 1237 q 536 1162 560 1187 q 485 1116 513 1137 q 433 1082 457 1095 q 393 1080 412 1077 q 356 1090 373 1082 q 328 1108 339 1097 q 312 1131 316 1119 q 287 1160 294 1141 q 271 1197 279 1179 q 250 1228 262 1215 q 212 1240 237 1241 q 171 1226 183 1240 q 151 1194 159 1213 q 134 1155 142 1175 q 107 1122 125 1135 q 85 1120 94 1118 q 71 1127 76 1122 q 64 1141 66 1133 q 58 1160 61 1150 q 79 1230 61 1202 q 124 1276 98 1259 q 182 1299 151 1293 q 243 1302 214 1305 q 297 1289 273 1299 q 332 1259 321 1278 q 370 1175 351 1196 q 406 1157 388 1154 q 439 1181 423 1160 q 470 1224 456 1202 q 496 1263 484 1246 q 518 1275 509 1280 z "},"":{"ha":532,"x_min":20,"x_max":511,"o":"m 20 290 q 88 675 37 526 q 208 887 140 823 q 351 930 277 951 q 484 806 425 909 q 511 654 505 738 q 508 484 517 570 q 477 315 499 397 q 415 165 454 232 q 321 54 376 99 q 197 -1 267 8 q 113 30 146 -1 q 58 106 79 61 q 29 201 38 152 q 20 290 20 251 m 92 298 q 96 228 92 264 q 111 161 99 191 q 149 111 123 130 q 216 91 174 91 q 302 134 263 91 q 370 247 342 178 q 416 400 399 316 q 436 565 433 484 q 428 713 439 646 q 388 816 416 781 q 313 844 359 850 q 201 769 266 837 q 163 654 182 713 q 129 535 144 595 q 103 415 114 475 q 92 298 92 355 m 403 1016 q 372 1049 389 1031 q 337 1088 354 1067 q 307 1131 320 1109 q 293 1168 294 1152 l 293 1177 q 300 1208 293 1195 q 327 1222 308 1222 q 382 1158 355 1191 q 425 1097 410 1126 q 438 1046 441 1067 q 403 1016 435 1024 z "},"":{"ha":532,"x_min":20,"x_max":511,"o":"m 20 290 q 88 675 37 526 q 208 887 140 823 q 351 930 277 951 q 484 806 425 909 q 511 654 505 738 q 508 484 517 570 q 477 315 499 397 q 415 165 454 232 q 321 54 376 99 q 197 -1 267 8 q 113 30 146 -1 q 58 106 79 61 q 29 201 38 152 q 20 290 20 251 m 92 298 q 96 228 92 264 q 111 161 99 191 q 149 111 123 130 q 216 91 174 91 q 302 134 263 91 q 370 247 342 178 q 416 400 399 316 q 436 565 433 484 q 428 713 439 646 q 388 816 416 781 q 313 844 359 850 q 201 769 266 837 q 163 654 182 713 q 129 535 144 595 q 103 415 114 475 q 92 298 92 355 m 210 989 q 170 1017 174 997 q 184 1064 167 1038 q 233 1121 202 1090 q 296 1180 264 1152 q 327 1168 319 1180 q 335 1139 335 1156 l 335 1130 q 319 1095 332 1114 q 286 1057 305 1076 q 246 1020 267 1038 q 210 989 225 1002 z "},"":{"ha":532,"x_min":20,"x_max":511,"o":"m 20 290 q 88 675 37 526 q 208 887 140 823 q 351 930 277 951 q 484 806 425 909 q 511 654 505 738 q 508 484 517 570 q 477 315 499 397 q 415 165 454 232 q 321 54 376 99 q 197 -1 267 8 q 113 30 146 -1 q 58 106 79 61 q 29 201 38 152 q 20 290 20 251 m 92 298 q 96 228 92 264 q 111 161 99 191 q 149 111 123 130 q 216 91 174 91 q 302 134 263 91 q 370 247 342 178 q 416 400 399 316 q 436 565 433 484 q 428 713 439 646 q 388 816 416 781 q 313 844 359 850 q 201 769 266 837 q 163 654 182 713 q 129 535 144 595 q 103 415 114 475 q 92 298 92 355 m 27 941 q 28 947 27 944 q 28 952 28 951 l 201 1274 q 216 1287 202 1279 q 244 1295 229 1295 q 248 1295 245 1295 q 251 1294 251 1294 l 473 1035 q 505 1021 500 1029 q 510 1000 510 1013 q 508 985 510 994 q 500 969 506 977 q 486 956 495 962 q 464 951 477 951 l 458 951 q 457 952 457 951 l 267 1190 q 241 1202 260 1202 l 235 1202 l 80 932 q 72 925 79 929 q 62 921 65 921 q 33 926 38 921 q 27 941 27 932 z "},"":{"ha":532,"x_min":20,"x_max":586,"o":"m 20 290 q 88 675 37 526 q 208 887 140 823 q 351 930 277 951 q 484 806 425 909 q 511 654 505 738 q 508 484 517 570 q 477 315 499 397 q 415 165 454 232 q 321 54 376 99 q 197 -1 267 8 q 113 30 146 -1 q 58 106 79 61 q 29 201 38 152 q 20 290 20 251 m 92 298 q 96 228 92 264 q 111 161 99 191 q 149 111 123 130 q 216 91 174 91 q 302 134 263 91 q 370 247 342 178 q 416 400 399 316 q 436 565 433 484 q 428 713 439 646 q 388 816 416 781 q 313 844 359 850 q 201 769 266 837 q 163 654 182 713 q 129 535 144 595 q 103 415 114 475 q 92 298 92 355 m 526 1202 q 562 1208 545 1207 q 586 1184 579 1208 q 581 1139 594 1164 q 545 1088 568 1114 q 493 1042 521 1063 q 441 1009 465 1021 q 401 1006 420 1004 q 364 1017 381 1009 q 336 1035 347 1024 q 320 1058 324 1046 q 295 1086 302 1067 q 279 1124 288 1105 q 258 1155 270 1142 q 220 1166 245 1168 q 179 1153 191 1166 q 159 1120 167 1139 q 142 1082 151 1101 q 115 1048 133 1062 q 93 1046 102 1044 q 79 1054 84 1048 q 72 1068 75 1059 q 66 1086 69 1077 q 87 1157 69 1128 q 132 1202 106 1185 q 191 1225 159 1219 q 252 1229 222 1232 q 305 1215 281 1226 q 340 1185 330 1204 q 378 1102 359 1123 q 414 1084 396 1081 q 448 1107 431 1086 q 478 1151 464 1128 q 505 1190 492 1173 q 526 1202 517 1207 z "},"":{"ha":532,"x_min":20,"x_max":511,"o":"m 20 290 q 88 675 37 526 q 208 887 140 823 q 351 930 277 951 q 484 806 425 909 q 511 654 505 738 q 508 484 517 570 q 477 315 499 397 q 415 165 454 232 q 321 54 376 99 q 197 -1 267 8 q 113 30 146 -1 q 58 106 79 61 q 29 201 38 152 q 20 290 20 251 m 92 298 q 96 228 92 264 q 111 161 99 191 q 149 111 123 130 q 216 91 174 91 q 302 134 263 91 q 370 247 342 178 q 416 400 399 316 q 436 565 433 484 q 428 713 439 646 q 388 816 416 781 q 313 844 359 850 q 201 769 266 837 q 163 654 182 713 q 129 535 144 595 q 103 415 114 475 q 92 298 92 355 m 199 1081 q 232 1109 218 1101 q 267 1116 245 1116 q 304 1081 304 1116 q 299 1063 304 1073 q 287 1044 294 1053 q 270 1029 279 1035 q 252 1028 260 1024 q 233 1025 243 1023 q 214 1036 222 1028 q 201 1056 206 1044 q 199 1081 197 1067 m 378 1081 q 412 1109 399 1101 q 448 1116 426 1116 q 484 1081 484 1116 q 479 1063 484 1073 q 467 1044 475 1053 q 449 1029 458 1035 q 431 1028 439 1024 q 412 1025 423 1023 q 393 1036 401 1028 q 381 1056 385 1044 q 378 1081 377 1067 z "},"":{"ha":631,"x_min":94,"x_max":486,"o":"m 431 625 q 465 628 452 632 q 484 614 479 624 q 486 591 490 604 q 469 567 481 579 l 335 406 q 366 356 346 384 q 406 300 387 328 q 438 245 425 273 q 449 197 452 217 q 408 183 438 175 q 369 203 377 187 q 355 242 361 218 q 336 296 350 266 q 281 359 323 326 q 218 296 252 334 q 163 213 184 258 q 146 211 157 210 q 122 214 134 212 q 101 222 110 217 q 94 236 92 228 l 243 418 l 113 617 l 113 625 q 114 635 113 631 q 129 652 118 643 q 161 652 140 662 q 183 615 170 639 q 214 567 197 591 q 250 518 231 543 q 288 476 270 494 q 292 475 290 475 q 296 473 293 473 q 298 471 298 472 q 300 470 298 469 q 308 477 302 471 q 328 501 313 484 q 366 549 342 518 q 431 625 391 579 z "},"":{"ha":532,"x_min":20,"x_max":511,"o":"m 76 -62 l 104 37 q 58 106 77 66 q 29 201 38 152 q 20 290 20 251 q 88 675 37 526 q 208 887 140 823 q 350 930 277 951 q 376 921 363 926 l 391 970 l 457 970 l 429 880 q 484 806 457 850 q 511 654 505 738 q 508 484 517 570 q 477 315 499 397 q 415 165 454 232 q 321 54 376 99 q 197 -1 267 8 q 156 4 175 -1 l 119 -117 q 90 -103 103 -117 q 76 -72 76 -90 l 76 -62 m 92 298 q 96 228 92 264 q 111 161 99 191 q 132 125 118 140 l 351 841 q 312 844 335 848 q 201 769 266 837 q 163 654 182 713 q 129 535 144 595 q 103 415 114 475 q 92 298 92 355 m 216 91 q 302 134 263 91 q 370 247 342 178 q 416 400 399 316 q 436 565 433 484 q 427 713 439 646 q 401 795 419 762 l 184 92 q 216 91 199 91 z "},"":{"ha":625,"x_min":42,"x_max":598,"o":"m 494 363 q 458 253 480 313 q 402 140 435 193 q 323 51 369 87 q 216 15 277 15 q 139 35 168 15 q 94 87 110 54 q 70 161 77 121 q 60 241 62 201 q 57 296 58 255 q 54 394 56 338 q 51 514 53 450 q 47 633 49 578 q 43 731 45 689 q 42 787 42 773 q 43 808 41 800 q 53 819 46 815 q 68 823 60 822 q 84 823 77 823 l 95 823 q 110 822 103 823 q 122 816 117 821 q 127 803 127 811 l 127 225 q 135 176 127 201 q 156 131 142 152 q 190 96 170 110 q 236 83 210 83 q 325 138 288 87 q 389 266 362 189 q 434 434 416 343 q 465 609 452 525 q 489 758 479 693 q 511 849 499 823 q 552 861 537 872 q 574 825 567 849 q 583 774 582 802 q 581 734 585 746 q 572 553 581 643 q 563 372 563 464 q 568 255 563 313 q 581 138 574 197 q 593 22 587 80 q 598 -92 598 -35 q 597 -115 598 -103 q 591 -136 595 -126 q 578 -152 586 -145 q 555 -159 570 -159 q 551 -158 555 -159 q 545 -157 548 -157 l 494 363 m 323 899 q 292 932 309 914 q 257 972 274 951 q 227 1014 240 993 q 213 1051 214 1035 l 213 1061 q 220 1092 213 1078 q 247 1105 228 1105 q 302 1042 275 1074 q 345 980 330 1009 q 358 929 361 951 q 323 899 355 907 z "},"":{"ha":625,"x_min":42,"x_max":598,"o":"m 494 363 q 458 253 480 313 q 402 140 435 193 q 323 51 369 87 q 216 15 277 15 q 139 35 168 15 q 94 87 110 54 q 70 161 77 121 q 60 241 62 201 q 57 296 58 255 q 54 394 56 338 q 51 514 53 450 q 47 633 49 578 q 43 731 45 689 q 42 787 42 773 q 43 808 41 800 q 53 819 46 815 q 68 823 60 822 q 84 823 77 823 l 95 823 q 110 822 103 823 q 122 816 117 821 q 127 803 127 811 l 127 225 q 135 176 127 201 q 156 131 142 152 q 190 96 170 110 q 236 83 210 83 q 325 138 288 87 q 389 266 362 189 q 434 434 416 343 q 465 609 452 525 q 489 758 479 693 q 511 849 499 823 q 552 861 537 872 q 574 825 567 849 q 583 774 582 802 q 581 734 585 746 q 572 553 581 643 q 563 372 563 464 q 568 255 563 313 q 581 138 574 197 q 593 22 587 80 q 598 -92 598 -35 q 597 -115 598 -103 q 591 -136 595 -126 q 578 -152 586 -145 q 555 -159 570 -159 q 551 -158 555 -159 q 545 -157 548 -157 l 494 363 m 298 815 q 258 844 262 823 q 273 890 255 864 q 321 947 290 917 q 384 1006 353 978 q 415 994 407 1006 q 423 966 423 982 l 423 956 q 407 921 420 940 q 374 883 393 902 q 334 846 355 864 q 298 815 313 829 z "},"":{"ha":625,"x_min":42,"x_max":598,"o":"m 494 363 q 458 253 480 313 q 402 140 435 193 q 323 51 369 87 q 216 15 277 15 q 139 35 168 15 q 94 87 110 54 q 70 161 77 121 q 60 241 62 201 q 57 296 58 255 q 54 394 56 338 q 51 514 53 450 q 47 633 49 578 q 43 731 45 689 q 42 787 42 773 q 43 808 41 800 q 53 819 46 815 q 68 823 60 822 q 84 823 77 823 l 95 823 q 110 822 103 823 q 122 816 117 821 q 127 803 127 811 l 127 225 q 135 176 127 201 q 156 131 142 152 q 190 96 170 110 q 236 83 210 83 q 325 138 288 87 q 389 266 362 189 q 434 434 416 343 q 465 609 452 525 q 489 758 479 693 q 511 849 499 823 q 552 861 537 872 q 574 825 567 849 q 583 774 582 802 q 581 734 585 746 q 572 553 581 643 q 563 372 563 464 q 568 255 563 313 q 581 138 574 197 q 593 22 587 80 q 598 -92 598 -35 q 597 -115 598 -103 q 591 -136 595 -126 q 578 -152 586 -145 q 555 -159 570 -159 q 551 -158 555 -159 q 545 -157 548 -157 l 494 363 m 71 941 q 71 947 71 944 q 72 952 72 951 l 244 1274 q 259 1287 245 1279 q 288 1295 273 1295 q 292 1295 289 1295 q 294 1294 294 1294 l 517 1035 q 549 1021 544 1029 q 553 1000 553 1013 q 551 985 553 994 q 544 969 549 977 q 530 956 538 962 q 507 951 521 951 l 502 951 q 500 952 500 951 l 311 1190 q 285 1202 304 1202 l 278 1202 l 123 932 q 115 925 122 929 q 106 921 109 921 q 76 926 81 921 q 71 941 71 932 z "},"":{"ha":625,"x_min":42,"x_max":598,"o":"m 494 363 q 458 253 480 313 q 402 140 435 193 q 323 51 369 87 q 216 15 277 15 q 139 35 168 15 q 94 87 110 54 q 70 161 77 121 q 60 241 62 201 q 57 296 58 255 q 54 394 56 338 q 51 514 53 450 q 47 633 49 578 q 43 731 45 689 q 42 787 42 773 q 43 808 41 800 q 53 819 46 815 q 68 823 60 822 q 84 823 77 823 l 95 823 q 110 822 103 823 q 122 816 117 821 q 127 803 127 811 l 127 225 q 135 176 127 201 q 156 131 142 152 q 190 96 170 110 q 236 83 210 83 q 325 138 288 87 q 389 266 362 189 q 434 434 416 343 q 465 609 452 525 q 489 758 479 693 q 511 849 499 823 q 552 861 537 872 q 574 825 567 849 q 583 774 582 802 q 581 734 585 746 q 572 553 581 643 q 563 372 563 464 q 568 255 563 313 q 581 138 574 197 q 593 22 587 80 q 598 -92 598 -35 q 597 -115 598 -103 q 591 -136 595 -126 q 578 -152 586 -145 q 555 -159 570 -159 q 551 -158 555 -159 q 545 -157 548 -157 l 494 363 m 174 1002 q 206 1030 193 1023 q 241 1038 220 1038 q 278 1002 278 1038 q 273 984 278 994 q 261 965 269 974 q 244 951 254 956 q 227 949 235 945 q 207 947 217 944 q 189 958 197 949 q 176 977 180 966 q 174 1002 171 989 m 353 1002 q 387 1030 373 1023 q 422 1038 400 1038 q 458 1002 458 1038 q 454 984 458 994 q 441 965 449 974 q 423 951 433 956 q 406 949 414 945 q 387 947 397 944 q 368 958 376 949 q 355 977 359 966 q 353 1002 351 989 z "},"":{"ha":671,"x_min":16,"x_max":642,"o":"m 260 34 q 275 130 260 83 q 308 224 290 176 q 338 318 326 271 q 347 416 351 365 q 260 511 308 460 q 167 616 213 562 q 81 730 121 671 q 18 850 42 789 q 16 854 16 852 l 16 860 q 28 882 16 876 q 54 887 41 887 q 130 791 90 845 q 212 685 170 738 q 297 584 254 632 q 382 505 340 536 l 400 505 q 419 551 406 514 q 452 640 433 589 q 494 754 472 692 q 535 877 515 817 q 569 990 555 937 q 590 1077 583 1043 q 598 1080 591 1080 q 631 1061 618 1080 q 642 1024 644 1043 q 581 812 605 895 q 542 677 557 730 q 515 593 526 625 q 493 533 505 562 q 469 470 481 505 q 437 378 457 435 q 387 230 416 320 q 312 0 357 140 q 304 -1 311 0 q 296 -1 298 -1 q 260 34 260 -1 m 342 1122 q 302 1150 305 1130 q 316 1197 298 1171 q 365 1254 334 1223 q 427 1313 396 1284 q 458 1301 450 1313 q 467 1272 467 1289 l 467 1263 q 450 1227 464 1246 q 418 1190 437 1208 q 378 1153 399 1171 q 342 1122 357 1135 z "},"":{"ha":553,"x_min":42,"x_max":525,"o":"m 68 27 q 50 70 56 24 q 42 195 43 115 q 42 383 41 275 q 48 614 43 491 q 59 866 53 736 q 72 1120 65 996 q 130 1120 113 1123 q 151 1104 148 1116 q 149 1067 155 1092 q 136 1002 142 1043 q 128 904 130 962 q 138 765 126 846 q 209 846 179 819 q 267 884 239 872 q 324 898 294 895 q 396 909 354 901 q 464 878 438 902 q 504 822 490 854 q 522 753 518 789 q 525 684 526 716 q 516 600 524 643 q 471 507 509 556 q 353 396 433 457 q 126 262 274 335 q 123 245 123 262 q 123 203 122 228 q 125 149 123 178 q 127 96 126 121 q 127 54 127 71 q 126 38 127 38 l 68 27 m 121 343 q 153 359 127 349 q 215 385 179 369 q 292 427 251 401 q 368 490 332 453 q 428 578 403 528 q 457 694 453 628 q 452 735 457 713 q 435 776 446 757 q 406 808 423 795 q 363 821 388 821 q 277 802 313 821 q 212 752 240 783 q 163 683 184 722 q 126 605 142 644 l 121 343 z "},"":{"ha":746,"x_min":34,"x_max":715,"o":"m 53 834 q 38 869 42 854 q 34 905 34 884 q 35 918 34 911 q 39 930 35 925 q 50 939 42 936 q 69 937 57 941 q 85 927 77 935 q 101 908 94 920 q 113 886 109 897 q 121 868 118 875 q 189 918 152 892 q 267 962 225 943 q 351 994 308 982 q 433 1006 393 1006 q 465 1004 446 1006 q 501 994 484 1001 q 530 976 518 987 q 541 947 541 964 q 534 881 545 914 q 503 817 522 848 q 458 755 483 785 q 408 699 433 726 q 361 648 382 671 q 330 608 340 625 q 450 661 385 644 q 579 678 514 678 q 623 676 600 678 q 667 666 647 674 q 701 643 688 658 q 715 601 715 628 q 690 526 715 574 q 625 420 665 477 q 536 303 585 362 q 444 196 488 244 q 363 117 399 148 q 312 87 327 87 l 277 103 q 311 164 283 129 q 375 237 338 199 q 455 317 412 275 q 536 399 498 359 q 602 475 574 438 q 640 543 631 513 q 632 595 648 574 q 566 627 616 616 q 454 608 513 627 q 343 556 396 590 q 249 475 290 522 q 189 370 208 429 q 195 296 189 332 q 208 223 201 259 q 220 151 214 187 q 227 77 227 114 q 222 33 227 50 q 189 15 218 15 q 180 16 186 15 q 174 18 174 16 l 53 834 m 140 749 q 146 642 140 699 q 174 538 153 586 q 224 585 194 556 q 288 648 255 614 q 353 720 321 682 q 412 793 385 758 q 454 859 438 829 q 469 910 469 890 q 459 932 469 926 q 435 937 449 937 q 352 924 403 937 q 254 886 301 910 q 174 827 208 861 q 140 749 140 792 z "},"":{"ha":509,"x_min":1,"x_max":473,"o":"m 420 35 q 409 120 414 71 q 399 220 404 170 q 386 316 393 271 q 363 389 378 361 q 241 168 294 248 q 149 52 189 87 q 81 19 109 18 q 37 43 54 20 q 12 102 19 66 q 1 170 4 138 q 15 254 1 199 q 52 372 28 308 q 106 503 75 437 q 175 624 138 570 q 251 713 212 678 q 330 749 290 749 q 416 724 388 758 q 426 608 444 689 q 433 454 426 518 q 450 332 441 391 q 466 210 458 274 q 473 57 473 146 q 470 29 473 41 q 437 18 467 18 q 427 24 433 18 q 420 35 420 31 m 347 642 q 307 646 332 663 q 252 587 281 628 q 194 490 224 547 q 138 374 164 433 q 94 264 113 316 q 68 178 75 212 q 83 123 68 129 q 119 138 98 117 q 169 201 141 160 q 223 288 197 241 q 273 377 250 334 q 311 448 297 420 q 330 500 323 476 q 341 547 336 525 q 347 593 346 570 q 347 642 347 616 m 266 821 q 235 854 252 836 q 200 893 217 872 q 170 935 183 914 q 156 972 157 956 l 156 982 q 163 1013 156 1000 q 190 1027 171 1027 q 245 963 218 996 q 288 901 273 930 q 301 850 304 872 q 266 821 298 829 z "},"":{"ha":509,"x_min":1,"x_max":473,"o":"m 420 35 q 409 120 414 71 q 399 220 404 170 q 386 316 393 271 q 363 389 378 361 q 241 168 294 248 q 149 52 189 87 q 81 19 109 18 q 37 43 54 20 q 12 102 19 66 q 1 170 4 138 q 15 254 1 199 q 52 372 28 308 q 106 503 75 437 q 175 624 138 570 q 251 713 212 678 q 330 749 290 749 q 416 724 388 758 q 426 608 444 689 q 433 454 426 518 q 450 332 441 391 q 466 210 458 274 q 473 57 473 146 q 470 29 473 41 q 437 18 467 18 q 427 24 433 18 q 420 35 420 31 m 347 642 q 307 646 332 663 q 252 587 281 628 q 194 490 224 547 q 138 374 164 433 q 94 264 113 316 q 68 178 75 212 q 83 123 68 129 q 119 138 98 117 q 169 201 141 160 q 223 288 197 241 q 273 377 250 334 q 311 448 297 420 q 330 500 323 476 q 341 547 336 525 q 347 593 346 570 q 347 642 347 616 m 241 815 q 201 844 205 823 q 216 890 198 864 q 264 947 233 917 q 327 1006 296 978 q 358 994 350 1006 q 366 966 366 982 l 366 956 q 350 921 363 940 q 317 883 336 902 q 277 846 298 864 q 241 815 256 829 z "},"":{"ha":509,"x_min":1,"x_max":499,"o":"m 420 35 q 409 120 414 71 q 399 220 404 170 q 386 316 393 271 q 363 389 378 361 q 241 168 294 248 q 149 52 189 87 q 81 19 109 18 q 37 43 54 20 q 12 102 19 66 q 1 170 4 138 q 15 254 1 199 q 52 372 28 308 q 106 503 75 437 q 175 624 138 570 q 251 713 212 678 q 330 749 290 749 q 416 724 388 758 q 426 608 444 689 q 433 454 426 518 q 450 332 441 391 q 466 210 458 274 q 473 57 473 146 q 470 29 473 41 q 437 18 467 18 q 427 24 433 18 q 420 35 420 31 m 347 642 q 307 646 332 663 q 252 587 281 628 q 194 490 224 547 q 138 374 164 433 q 94 264 113 316 q 68 178 75 212 q 83 123 68 129 q 119 138 98 117 q 169 201 141 160 q 223 288 197 241 q 273 377 250 334 q 311 448 297 420 q 330 500 323 476 q 341 547 336 525 q 347 593 346 570 q 347 642 347 616 m 16 941 q 17 947 16 944 q 18 952 18 951 l 190 1274 q 205 1287 191 1279 q 233 1295 218 1295 q 237 1295 235 1295 q 240 1294 240 1294 l 463 1035 q 494 1021 490 1029 q 499 1000 499 1013 q 497 985 499 994 q 490 969 495 977 q 475 956 484 962 q 453 951 467 951 l 448 951 q 446 952 446 951 l 256 1190 q 231 1202 250 1202 l 224 1202 l 69 932 q 61 925 68 929 q 52 921 54 921 q 22 926 27 921 q 16 941 16 932 z "},"":{"ha":509,"x_min":1,"x_max":555,"o":"m 420 35 q 409 120 414 71 q 399 220 404 170 q 386 316 393 271 q 363 389 378 361 q 241 168 294 248 q 149 52 189 87 q 81 19 109 18 q 37 43 54 20 q 12 102 19 66 q 1 170 4 138 q 15 254 1 199 q 52 372 28 308 q 106 503 75 437 q 175 624 138 570 q 251 713 212 678 q 330 749 290 749 q 416 724 388 758 q 426 608 444 689 q 433 454 426 518 q 450 332 441 391 q 466 210 458 274 q 473 57 473 146 q 470 29 473 41 q 437 18 467 18 q 427 24 433 18 q 420 35 420 31 m 347 642 q 307 646 332 663 q 252 587 281 628 q 194 490 224 547 q 138 374 164 433 q 94 264 113 316 q 68 178 75 212 q 83 123 68 129 q 119 138 98 117 q 169 201 141 160 q 223 288 197 241 q 273 377 250 334 q 311 448 297 420 q 330 500 323 476 q 341 547 336 525 q 347 593 346 570 q 347 642 347 616 m 495 1021 q 531 1027 514 1027 q 555 1004 548 1028 q 550 958 563 983 q 513 908 537 933 q 462 862 490 883 q 410 829 434 841 q 370 826 389 823 q 333 836 350 829 q 304 854 316 844 q 289 878 293 865 q 264 906 271 887 q 248 943 256 925 q 227 975 239 962 q 189 986 214 987 q 148 972 160 986 q 127 940 136 959 q 111 901 119 921 q 84 868 102 882 q 62 866 71 864 q 48 873 53 868 q 41 888 43 879 q 35 906 38 897 q 56 977 38 948 q 101 1022 75 1005 q 159 1045 127 1039 q 220 1048 191 1051 q 274 1035 250 1046 q 309 1005 298 1024 q 347 922 328 943 q 382 903 365 901 q 416 927 400 906 q 447 970 433 948 q 473 1010 461 993 q 495 1021 486 1027 z "},"":{"ha":509,"x_min":1,"x_max":473,"o":"m 420 35 q 409 120 414 71 q 399 220 404 170 q 386 316 393 271 q 363 389 378 361 q 241 168 294 248 q 149 52 189 87 q 81 19 109 18 q 37 43 54 20 q 12 102 19 66 q 1 170 4 138 q 15 254 1 199 q 52 372 28 308 q 106 503 75 437 q 175 624 138 570 q 251 713 212 678 q 330 749 290 749 q 416 724 388 758 q 426 608 444 689 q 433 454 426 518 q 450 332 441 391 q 466 210 458 274 q 473 57 473 146 q 470 29 473 41 q 437 18 467 18 q 427 24 433 18 q 420 35 420 31 m 347 642 q 307 646 332 663 q 252 587 281 628 q 194 490 224 547 q 138 374 164 433 q 94 264 113 316 q 68 178 75 212 q 83 123 68 129 q 119 138 98 117 q 169 201 141 160 q 223 288 197 241 q 273 377 250 334 q 311 448 297 420 q 330 500 323 476 q 341 547 336 525 q 347 593 346 570 q 347 642 347 616 m 115 1002 q 148 1030 134 1023 q 183 1038 161 1038 q 220 1002 220 1038 q 215 984 220 994 q 203 965 210 974 q 186 951 195 956 q 168 949 176 945 q 149 947 159 944 q 130 958 138 949 q 117 977 122 966 q 115 1002 113 989 m 294 1002 q 328 1030 315 1023 q 363 1038 342 1038 q 400 1002 400 1038 q 395 984 400 994 q 382 965 391 974 q 365 951 374 956 q 347 949 355 945 q 328 947 339 944 q 309 958 317 949 q 297 977 301 966 q 294 1002 293 989 z "},"":{"ha":509,"x_min":1,"x_max":473,"o":"m 125 803 q 121 853 114 829 q 153 898 129 878 q 213 930 176 918 q 296 943 250 943 q 347 938 326 943 q 382 926 368 933 q 407 909 396 920 q 427 886 418 898 q 443 809 442 844 q 422 750 444 774 q 404 735 415 741 q 415 724 410 730 q 426 608 444 689 q 433 454 426 518 q 450 332 441 391 q 466 210 458 274 q 473 57 473 146 q 470 29 473 41 q 437 18 467 18 q 427 24 433 18 q 420 35 420 31 q 409 120 414 71 q 399 220 404 170 q 386 316 393 271 q 363 389 378 361 q 241 168 294 248 q 149 52 189 87 q 81 19 109 18 q 37 43 54 20 q 12 102 19 66 q 1 170 4 138 q 15 254 1 199 q 52 372 28 308 q 106 503 75 437 q 175 624 138 570 q 240 704 206 671 q 227 705 235 704 q 176 716 197 705 q 144 743 156 727 q 129 776 133 760 q 125 803 125 792 m 347 642 q 307 646 332 663 q 252 587 281 628 q 194 490 224 547 q 138 374 164 433 q 94 264 113 316 q 68 178 75 212 q 83 123 68 129 q 119 138 98 117 q 169 201 141 160 q 223 288 197 241 q 273 377 250 334 q 311 448 297 420 q 330 500 323 476 q 341 547 336 525 q 347 593 346 570 q 347 642 347 616 m 194 806 q 208 782 194 791 q 237 760 222 773 q 294 755 274 755 q 326 758 313 754 q 347 774 338 762 q 370 810 355 787 q 359 848 372 833 q 328 872 347 864 q 284 880 308 880 q 240 872 260 880 q 206 848 220 864 q 194 806 193 831 z "},"":{"ha":979,"x_min":1,"x_max":955,"o":"m 420 35 q 409 120 414 71 q 399 220 404 170 q 385 316 393 271 q 384 330 384 323 q 372 331 377 330 q 345 338 357 332 q 340 342 342 339 q 240 167 285 233 q 149 52 189 87 q 81 19 109 18 q 37 43 54 20 q 12 102 19 66 q 1 170 4 138 q 15 254 1 199 q 52 372 28 308 q 106 503 75 437 q 175 624 138 570 q 251 713 212 678 q 330 749 290 749 q 416 724 388 758 q 426 608 444 689 q 429 506 426 552 q 439 533 434 518 q 477 621 457 578 q 523 701 496 665 q 587 758 549 736 q 680 777 625 779 q 732 767 703 777 q 785 738 761 757 q 826 693 810 719 q 842 637 842 667 q 829 606 848 627 q 775 562 810 586 q 699 513 741 538 q 617 467 656 488 q 548 428 578 445 q 507 404 518 411 q 498 372 502 389 q 492 339 494 355 q 489 311 490 323 q 488 290 488 298 q 486 233 488 264 q 488 175 483 202 q 511 130 494 148 q 570 111 529 111 q 655 133 616 111 q 728 188 694 155 q 790 259 762 221 q 840 330 818 297 q 879 385 861 362 q 909 407 897 407 q 939 401 922 407 q 955 380 955 396 q 935 321 955 355 q 883 249 916 286 q 810 174 850 212 q 727 108 769 137 q 644 60 685 79 q 572 42 604 42 q 480 71 511 42 q 473 79 476 75 l 473 57 q 470 29 473 41 q 437 18 467 18 q 427 24 433 18 q 420 35 420 31 m 347 642 q 307 646 332 663 q 252 587 281 628 q 194 490 224 547 q 138 374 164 433 q 94 264 113 316 q 68 178 75 212 q 83 123 68 129 q 119 138 98 117 q 169 201 141 160 q 223 288 197 241 q 273 377 250 334 q 311 448 297 420 q 330 500 323 476 q 341 547 336 525 q 347 593 346 570 q 347 642 347 616 m 670 701 q 621 679 647 701 q 572 625 594 656 q 536 560 551 593 q 521 506 521 528 q 581 522 543 506 q 657 559 618 537 q 724 608 696 582 q 751 656 751 635 q 743 677 751 669 q 721 692 734 686 q 694 699 708 697 q 670 701 680 701 z "},"":{"ha":543,"x_min":35,"x_max":495,"o":"m 149 -368 q 177 -357 149 -362 q 241 -344 205 -351 q 311 -324 277 -336 q 355 -296 345 -312 q 345 -258 366 -279 q 250 -205 323 -236 q 167 -168 189 -205 q 145 -66 145 -130 q 157 12 151 -16 q 127 34 140 20 q 71 118 91 69 q 43 220 52 167 q 35 312 35 274 q 43 418 39 361 q 56 533 47 476 q 79 642 65 590 q 117 733 94 693 q 176 797 141 773 q 262 819 212 821 q 314 791 296 819 q 340 722 332 762 q 348 638 347 681 q 349 568 349 595 q 304 592 321 568 q 277 647 286 616 q 263 708 267 678 l 259 747 q 254 748 258 747 q 250 749 251 749 q 207 723 227 749 q 170 657 187 697 q 141 568 153 617 q 121 471 129 518 q 108 383 113 423 q 103 321 103 343 q 103 244 100 286 q 119 165 106 202 q 157 102 133 129 q 222 66 182 76 q 304 80 273 66 q 355 117 335 94 q 385 168 374 140 q 406 227 396 197 q 427 288 416 258 q 458 343 438 317 q 482 342 475 347 q 492 330 490 338 q 495 311 495 321 l 495 296 q 476 186 495 239 q 420 92 457 133 q 333 25 384 50 q 218 0 282 0 q 220 -26 220 -12 q 213 -79 221 -54 q 322 -144 275 -122 q 401 -189 369 -167 q 448 -242 433 -212 q 464 -331 464 -273 q 422 -377 454 -359 q 347 -405 389 -395 q 261 -418 305 -415 q 186 -422 217 -422 q 153 -405 157 -422 q 149 -368 149 -388 z "},"":{"ha":642,"x_min":-12,"x_max":609,"o":"m 75 293 q 54 289 68 292 q 26 288 41 286 q -1 296 11 289 q -12 319 -12 302 q -8 332 -12 328 q 5 345 -4 336 q 56 408 35 369 q 95 490 77 446 q 132 578 113 534 q 178 658 152 623 q 241 715 203 693 q 335 735 279 736 q 387 724 358 735 q 439 695 415 713 q 480 651 464 677 q 496 594 496 625 q 484 563 503 583 q 430 519 464 543 q 353 470 396 495 q 271 423 311 445 q 202 385 232 401 q 163 361 172 369 q 152 330 156 347 q 146 296 148 312 q 143 268 144 281 q 142 248 142 255 q 140 191 142 222 q 143 132 138 160 q 165 86 148 104 q 225 68 183 68 q 309 90 270 68 q 382 145 349 113 q 444 216 416 178 q 494 287 472 254 q 534 342 517 320 q 564 363 552 363 q 593 359 578 363 q 609 336 609 354 q 589 278 609 312 q 538 206 570 244 q 465 131 506 168 q 381 64 423 94 q 298 17 339 35 q 227 -1 258 -1 q 134 28 165 -1 q 90 103 103 58 q 77 199 77 148 q 75 293 76 250 m 324 659 q 275 637 301 659 q 227 583 250 614 q 191 517 205 551 q 176 463 176 484 q 235 478 197 463 q 312 517 274 494 q 378 566 350 540 q 407 614 407 591 q 397 635 407 627 q 375 648 388 643 q 349 656 362 654 q 324 659 335 659 m 332 821 q 301 854 319 836 q 267 893 283 872 q 237 935 250 914 q 222 972 224 956 l 222 982 q 230 1013 222 1000 q 256 1027 237 1027 q 312 963 285 996 q 355 901 339 930 q 368 850 370 872 q 332 821 365 829 z "},"":{"ha":642,"x_min":-12,"x_max":609,"o":"m 75 293 q 54 289 68 292 q 26 288 41 286 q -1 296 11 289 q -12 319 -12 302 q -8 332 -12 328 q 5 345 -4 336 q 56 408 35 369 q 95 490 77 446 q 132 578 113 534 q 178 658 152 623 q 241 715 203 693 q 335 735 279 736 q 387 724 358 735 q 439 695 415 713 q 480 651 464 677 q 496 594 496 625 q 484 563 503 583 q 430 519 464 543 q 353 470 396 495 q 271 423 311 445 q 202 385 232 401 q 163 361 172 369 q 152 330 156 347 q 146 296 148 312 q 143 268 144 281 q 142 248 142 255 q 140 191 142 222 q 143 132 138 160 q 165 86 148 104 q 225 68 183 68 q 309 90 270 68 q 382 145 349 113 q 444 216 416 178 q 494 287 472 254 q 534 342 517 320 q 564 363 552 363 q 593 359 578 363 q 609 336 609 354 q 589 278 609 312 q 538 206 570 244 q 465 131 506 168 q 381 64 423 94 q 298 17 339 35 q 227 -1 258 -1 q 134 28 165 -1 q 90 103 103 58 q 77 199 77 148 q 75 293 76 250 m 324 659 q 275 637 301 659 q 227 583 250 614 q 191 517 205 551 q 176 463 176 484 q 235 478 197 463 q 312 517 274 494 q 378 566 350 540 q 407 614 407 591 q 397 635 407 627 q 375 648 388 643 q 349 656 362 654 q 324 659 335 659 m 307 815 q 267 844 270 823 q 281 890 263 864 q 330 947 298 917 q 392 1006 361 978 q 423 994 415 1006 q 431 966 431 982 l 431 956 q 415 921 429 940 q 382 883 401 902 q 342 846 363 864 q 307 815 321 829 z "},"":{"ha":642,"x_min":-12,"x_max":609,"o":"m 75 293 q 54 289 68 292 q 26 288 41 286 q -1 296 11 289 q -12 319 -12 302 q -8 332 -12 328 q 5 345 -4 336 q 56 408 35 369 q 95 490 77 446 q 132 578 113 534 q 178 658 152 623 q 241 715 203 693 q 335 735 279 736 q 387 724 358 735 q 439 695 415 713 q 480 651 464 677 q 496 594 496 625 q 484 563 503 583 q 430 519 464 543 q 353 470 396 495 q 271 423 311 445 q 202 385 232 401 q 163 361 172 369 q 152 330 156 347 q 146 296 148 312 q 143 268 144 281 q 142 248 142 255 q 140 191 142 222 q 143 132 138 160 q 165 86 148 104 q 225 68 183 68 q 309 90 270 68 q 382 145 349 113 q 444 216 416 178 q 494 287 472 254 q 534 342 517 320 q 564 363 552 363 q 593 359 578 363 q 609 336 609 354 q 589 278 609 312 q 538 206 570 244 q 465 131 506 168 q 381 64 423 94 q 298 17 339 35 q 227 -1 258 -1 q 134 28 165 -1 q 90 103 103 58 q 77 199 77 148 q 75 293 76 250 m 324 659 q 275 637 301 659 q 227 583 250 614 q 191 517 205 551 q 176 463 176 484 q 235 478 197 463 q 312 517 274 494 q 378 566 350 540 q 407 614 407 591 q 397 635 407 627 q 375 648 388 643 q 349 656 362 654 q 324 659 335 659 m 80 941 q 81 947 80 944 q 81 952 81 951 l 254 1274 q 269 1287 255 1279 q 297 1295 282 1295 q 301 1295 298 1295 q 304 1294 304 1294 l 526 1035 q 558 1021 553 1029 q 563 1000 563 1013 q 561 985 563 994 q 553 969 559 977 q 539 956 548 962 q 517 951 530 951 l 511 951 q 510 952 510 951 l 320 1190 q 294 1202 313 1202 l 288 1202 l 133 932 q 125 925 132 929 q 115 921 118 921 q 85 926 91 921 q 80 941 80 932 z "},"":{"ha":642,"x_min":-12,"x_max":609,"o":"m 75 293 q 54 289 68 292 q 26 288 41 286 q -1 296 11 289 q -12 319 -12 302 q -8 332 -12 328 q 5 345 -4 336 q 56 408 35 369 q 95 490 77 446 q 132 578 113 534 q 178 658 152 623 q 241 715 203 693 q 335 735 279 736 q 387 724 358 735 q 439 695 415 713 q 480 651 464 677 q 496 594 496 625 q 484 563 503 583 q 430 519 464 543 q 353 470 396 495 q 271 423 311 445 q 202 385 232 401 q 163 361 172 369 q 152 330 156 347 q 146 296 148 312 q 143 268 144 281 q 142 248 142 255 q 140 191 142 222 q 143 132 138 160 q 165 86 148 104 q 225 68 183 68 q 309 90 270 68 q 382 145 349 113 q 444 216 416 178 q 494 287 472 254 q 534 342 517 320 q 564 363 552 363 q 593 359 578 363 q 609 336 609 354 q 589 278 609 312 q 538 206 570 244 q 465 131 506 168 q 381 64 423 94 q 298 17 339 35 q 227 -1 258 -1 q 134 28 165 -1 q 90 103 103 58 q 77 199 77 148 q 75 293 76 250 m 324 659 q 275 637 301 659 q 227 583 250 614 q 191 517 205 551 q 176 463 176 484 q 235 478 197 463 q 312 517 274 494 q 378 566 350 540 q 407 614 407 591 q 397 635 407 627 q 375 648 388 643 q 349 656 362 654 q 324 659 335 659 m 182 1002 q 214 1030 201 1023 q 250 1038 228 1038 q 286 1002 286 1038 q 281 984 286 994 q 269 965 277 974 q 252 951 262 956 q 235 949 243 945 q 215 947 225 944 q 197 958 205 949 q 184 977 189 966 q 182 1002 179 989 m 361 1002 q 395 1030 381 1023 q 430 1038 408 1038 q 467 1002 467 1038 q 462 984 467 994 q 449 965 457 974 q 431 951 441 956 q 414 949 422 945 q 395 947 406 944 q 376 958 384 949 q 363 977 368 966 q 361 1002 359 989 z "},"":{"ha":184,"x_min":-11,"x_max":134,"o":"m 57 27 q 54 213 57 115 q 47 410 50 311 q 45 606 43 510 q 57 787 46 703 q 70 789 60 788 q 84 789 80 789 q 115 783 103 789 q 126 757 126 777 q 125 583 126 677 q 124 391 125 488 q 123 199 123 294 q 126 27 123 104 q 117 -3 127 4 q 92 -11 107 -11 q 65 -3 76 -11 q 57 27 54 4 m 99 925 q 68 959 85 940 q 33 998 50 978 q 3 1040 16 1019 q -11 1078 -9 1061 l -11 1088 q -3 1118 -11 1104 q 23 1131 4 1131 q 79 1068 52 1101 q 121 1006 106 1035 q 134 956 137 978 q 99 925 132 933 z "},"":{"ha":184,"x_min":38,"x_max":203,"o":"m 57 27 q 54 213 57 115 q 47 410 50 311 q 45 606 43 510 q 57 787 46 703 q 70 789 60 788 q 84 789 80 789 q 115 783 103 789 q 126 757 126 777 q 125 583 126 677 q 124 391 125 488 q 123 199 123 294 q 126 27 123 104 q 117 -3 127 4 q 92 -11 107 -11 q 65 -3 76 -11 q 57 27 54 4 m 79 979 q 39 1007 42 986 q 53 1054 35 1028 q 102 1110 71 1080 q 164 1169 133 1141 q 195 1157 187 1169 q 203 1128 203 1145 l 203 1119 q 187 1085 201 1104 q 155 1047 174 1066 q 115 1010 136 1028 q 79 979 94 993 z "},"":{"ha":184,"x_min":-149,"x_max":335,"o":"m 57 27 q 54 213 57 115 q 47 410 50 311 q 45 606 43 510 q 57 787 46 703 q 70 789 60 788 q 84 789 80 789 q 115 783 103 789 q 126 757 126 777 q 125 583 126 677 q 124 391 125 488 q 123 199 123 294 q 126 27 123 104 q 117 -3 127 4 q 92 -11 107 -11 q 65 -3 76 -11 q 57 27 54 4 m -149 941 q -149 947 -149 944 q -148 952 -148 951 l 24 1274 q 41 1287 27 1279 q 68 1295 54 1295 q 72 1295 69 1295 q 76 1294 75 1294 l 298 1035 q 330 1021 324 1029 q 335 1000 335 1013 q 332 985 335 994 q 324 969 330 977 q 310 956 319 962 q 288 951 301 951 l 283 951 q 281 952 281 951 l 91 1190 q 66 1202 84 1202 l 58 1202 l -95 932 q -104 925 -98 929 q -114 921 -111 921 q -144 926 -138 921 q -149 941 -149 932 z "},"":{"ha":184,"x_min":-46,"x_max":237,"o":"m 57 27 q 54 213 57 115 q 47 410 50 311 q 45 606 43 510 q 57 787 46 703 q 70 789 60 788 q 84 789 80 789 q 115 783 103 789 q 126 757 126 777 q 125 583 126 677 q 124 391 125 488 q 123 199 123 294 q 126 27 123 104 q 117 -3 127 4 q 92 -11 107 -11 q 65 -3 76 -11 q 57 27 54 4 m -46 1002 q -14 1030 -27 1023 q 22 1038 0 1038 q 58 1002 58 1038 q 54 984 58 994 q 41 965 49 974 q 24 951 33 956 q 5 949 15 945 q -13 947 -3 944 q -32 958 -23 949 q -45 977 -41 966 q -46 1002 -49 989 m 133 1002 q 165 1030 152 1023 q 201 1038 179 1038 q 237 1002 237 1038 q 233 984 237 994 q 220 965 228 974 q 203 951 213 956 q 186 949 194 945 q 166 947 176 944 q 148 958 156 949 q 135 977 140 966 q 133 1002 130 989 z "},"":{"ha":669,"x_min":92,"x_max":659,"o":"m 566 574 l 467 552 q 526 336 522 434 q 496 163 530 237 q 399 43 463 90 q 258 -14 335 -3 q 165 48 201 7 q 111 139 129 90 q 93 239 94 189 q 107 332 92 290 q 151 401 122 374 q 220 429 179 429 q 294 411 256 429 q 364 368 332 393 q 419 313 396 342 q 448 262 442 283 q 467 294 467 266 q 457 364 468 323 q 429 453 446 406 q 396 544 411 500 l 191 519 q 188 528 191 521 q 183 541 184 536 q 181 552 183 544 q 180 569 179 560 q 185 585 180 578 q 201 593 190 591 q 284 606 245 601 q 359 613 323 610 q 312 700 338 652 q 255 804 286 747 q 253 810 255 806 q 251 818 251 815 q 254 838 250 827 q 274 849 258 848 q 288 850 279 850 q 304 850 297 850 q 318 848 312 849 q 326 844 324 846 l 434 617 q 471 620 457 618 q 495 623 484 621 q 515 626 506 624 q 537 630 524 628 q 571 635 551 632 q 625 642 591 637 q 659 611 659 623 q 642 592 658 600 q 602 581 625 585 q 566 574 578 578 m 311 72 q 385 135 365 103 q 399 197 404 167 q 371 254 395 228 q 318 298 347 281 q 258 323 289 316 q 208 324 227 331 q 171 287 186 317 q 156 218 156 256 q 174 140 156 179 q 235 77 191 102 q 249 73 239 73 q 270 74 259 73 q 292 75 281 75 q 311 72 302 75 z "},"":{"ha":671,"x_min":41,"x_max":621,"o":"m 92 18 q 66 385 77 201 q 41 766 54 568 q 76 799 41 799 l 87 799 q 96 788 91 799 q 108 748 102 777 q 121 660 114 719 q 140 506 129 601 q 164 269 151 411 q 209 448 193 361 q 251 606 225 534 q 323 731 277 677 q 458 811 370 785 q 537 752 507 803 q 585 627 567 701 q 609 465 602 552 q 617 297 616 377 q 618 154 618 217 q 621 64 618 91 q 609 45 617 53 q 591 33 601 37 q 571 32 581 30 q 553 46 562 34 q 551 107 553 61 q 544 215 548 153 q 535 347 540 277 q 527 478 530 416 q 521 586 524 540 q 517 647 518 632 q 460 704 488 697 q 405 686 433 711 q 351 612 377 662 q 302 498 326 562 q 259 366 279 435 q 224 233 239 297 q 199 116 209 168 q 186 35 189 64 q 169 17 182 26 q 142 4 156 8 q 113 2 127 0 q 92 18 99 4 m 557 1133 q 593 1139 576 1138 q 617 1115 610 1139 q 612 1069 625 1095 q 576 1019 600 1044 q 524 973 552 994 q 472 940 496 952 q 432 937 452 935 q 395 947 412 940 q 367 966 378 955 q 351 989 355 977 q 326 1017 334 998 q 310 1055 319 1036 q 289 1086 301 1073 q 251 1097 277 1099 q 210 1084 222 1097 q 190 1051 198 1070 q 173 1013 182 1032 q 146 979 164 993 q 124 977 133 975 q 111 985 115 979 q 103 999 106 990 q 98 1017 100 1008 q 119 1088 100 1059 q 163 1133 137 1116 q 222 1156 190 1150 q 283 1160 254 1162 q 336 1146 312 1157 q 372 1116 361 1135 q 409 1033 391 1054 q 445 1015 427 1012 q 479 1038 463 1017 q 509 1082 495 1059 q 536 1121 524 1104 q 557 1133 548 1138 z "},"":{"ha":370,"x_min":24,"x_max":346,"o":"m 34 186 q 24 307 24 248 q 32 427 24 366 q 54 554 39 488 q 87 696 68 620 q 95 724 87 711 q 117 745 103 736 q 145 760 130 754 q 174 765 160 765 q 228 746 203 765 q 272 700 252 727 q 306 642 292 673 q 330 590 320 612 q 345 482 340 543 q 346 359 350 422 q 327 237 342 297 q 285 126 312 176 q 215 42 258 76 q 114 0 172 8 q 66 21 83 0 q 43 73 50 42 q 35 134 35 103 q 34 186 34 165 m 103 190 q 104 164 103 176 q 106 140 104 152 q 112 116 109 129 q 121 87 115 103 l 129 87 q 184 109 161 87 q 224 165 208 130 q 251 242 240 199 q 268 326 262 285 q 276 404 274 368 q 278 461 278 439 l 278 488 q 277 528 278 506 q 272 574 275 551 q 262 618 269 598 q 244 650 255 637 q 216 662 233 662 q 165 658 186 671 q 131 612 144 644 q 111 534 118 581 q 103 433 104 488 q 102 315 102 377 q 103 190 103 252 m 197 821 q 165 854 183 836 q 131 893 148 872 q 101 935 114 914 q 87 972 88 956 l 87 982 q 94 1013 87 1000 q 121 1027 102 1027 q 176 963 149 996 q 219 901 203 930 q 232 850 235 872 q 197 821 229 829 z "},"":{"ha":370,"x_min":24,"x_max":346,"o":"m 34 186 q 24 307 24 248 q 32 427 24 366 q 54 554 39 488 q 87 696 68 620 q 95 724 87 711 q 117 745 103 736 q 145 760 130 754 q 174 765 160 765 q 228 746 203 765 q 272 700 252 727 q 306 642 292 673 q 330 590 320 612 q 345 482 340 543 q 346 359 350 422 q 327 237 342 297 q 285 126 312 176 q 215 42 258 76 q 114 0 172 8 q 66 21 83 0 q 43 73 50 42 q 35 134 35 103 q 34 186 34 165 m 103 190 q 104 164 103 176 q 106 140 104 152 q 112 116 109 129 q 121 87 115 103 l 129 87 q 184 109 161 87 q 224 165 208 130 q 251 242 240 199 q 268 326 262 285 q 276 404 274 368 q 278 461 278 439 l 278 488 q 277 528 278 506 q 272 574 275 551 q 262 618 269 598 q 244 650 255 637 q 216 662 233 662 q 165 658 186 671 q 131 612 144 644 q 111 534 118 581 q 103 433 104 488 q 102 315 102 377 q 103 190 103 252 m 171 815 q 131 844 134 823 q 145 890 127 864 q 194 947 163 917 q 256 1006 225 978 q 288 994 279 1006 q 296 966 296 982 l 296 956 q 279 921 293 940 q 247 883 266 902 q 207 846 228 864 q 171 815 186 829 z "},"":{"ha":370,"x_min":-53,"x_max":430,"o":"m 34 186 q 24 307 24 248 q 32 427 24 366 q 54 554 39 488 q 87 696 68 620 q 95 724 87 711 q 117 745 103 736 q 145 760 130 754 q 174 765 160 765 q 228 746 203 765 q 272 700 252 727 q 306 642 292 673 q 330 590 320 612 q 345 482 340 543 q 346 359 350 422 q 327 237 342 297 q 285 126 312 176 q 215 42 258 76 q 114 0 172 8 q 66 21 83 0 q 43 73 50 42 q 35 134 35 103 q 34 186 34 165 m 103 190 q 104 164 103 176 q 106 140 104 152 q 112 116 109 129 q 121 87 115 103 l 129 87 q 184 109 161 87 q 224 165 208 130 q 251 242 240 199 q 268 326 262 285 q 276 404 274 368 q 278 461 278 439 l 278 488 q 277 528 278 506 q 272 574 275 551 q 262 618 269 598 q 244 650 255 637 q 216 662 233 662 q 165 658 186 671 q 131 612 144 644 q 111 534 118 581 q 103 433 104 488 q 102 315 102 377 q 103 190 103 252 m -53 941 q -52 947 -53 944 q -52 952 -52 951 l 121 1274 q 136 1287 122 1279 q 164 1295 149 1295 q 168 1295 165 1295 q 171 1294 171 1294 l 393 1035 q 425 1021 420 1029 q 430 1000 430 1013 q 428 985 430 994 q 420 969 426 977 q 406 956 415 962 q 384 951 397 951 l 378 951 q 377 952 377 951 l 187 1190 q 161 1202 180 1202 l 155 1202 l 0 932 q -8 925 -1 929 q -18 921 -15 921 q -47 926 -42 921 q -53 941 -53 932 z "},"":{"ha":370,"x_min":-39,"x_max":480,"o":"m 34 186 q 24 307 24 248 q 32 427 24 366 q 54 554 39 488 q 87 696 68 620 q 95 724 87 711 q 117 745 103 736 q 145 760 130 754 q 174 765 160 765 q 228 746 203 765 q 272 700 252 727 q 306 642 292 673 q 330 590 320 612 q 345 482 340 543 q 346 359 350 422 q 327 237 342 297 q 285 126 312 176 q 215 42 258 76 q 114 0 172 8 q 66 21 83 0 q 43 73 50 42 q 35 134 35 103 q 34 186 34 165 m 103 190 q 104 164 103 176 q 106 140 104 152 q 112 116 109 129 q 121 87 115 103 l 129 87 q 184 109 161 87 q 224 165 208 130 q 251 242 240 199 q 268 326 262 285 q 276 404 274 368 q 278 461 278 439 l 278 488 q 277 528 278 506 q 272 574 275 551 q 262 618 269 598 q 244 650 255 637 q 216 662 233 662 q 165 658 186 671 q 131 612 144 644 q 111 534 118 581 q 103 433 104 488 q 102 315 102 377 q 103 190 103 252 m 420 1032 q 456 1038 439 1038 q 480 1015 473 1039 q 475 969 488 994 q 439 919 463 944 q 387 873 415 894 q 335 840 359 852 q 295 837 315 834 q 258 847 275 840 q 230 865 241 854 q 214 888 218 876 q 189 917 197 898 q 173 954 182 936 q 152 985 164 972 q 114 997 140 998 q 73 983 85 997 q 53 951 61 970 q 36 912 45 932 q 9 879 27 892 q -13 877 -4 875 q -26 884 -22 879 q -34 899 -31 890 q -39 917 -37 907 q -18 987 -37 959 q 26 1033 0 1016 q 85 1056 53 1050 q 146 1059 117 1062 q 199 1046 175 1057 q 235 1016 224 1035 q 272 932 254 954 q 308 914 290 911 q 342 938 326 917 q 372 981 358 959 q 399 1021 387 1004 q 420 1032 411 1038 z "},"":{"ha":370,"x_min":24,"x_max":346,"o":"m 34 186 q 24 307 24 248 q 32 427 24 366 q 54 554 39 488 q 87 696 68 620 q 95 724 87 711 q 117 745 103 736 q 145 760 130 754 q 174 765 160 765 q 228 746 203 765 q 272 700 252 727 q 306 642 292 673 q 330 590 320 612 q 345 482 340 543 q 346 359 350 422 q 327 237 342 297 q 285 126 312 176 q 215 42 258 76 q 114 0 172 8 q 66 21 83 0 q 43 73 50 42 q 35 134 35 103 q 34 186 34 165 m 103 190 q 104 164 103 176 q 106 140 104 152 q 112 116 109 129 q 121 87 115 103 l 129 87 q 184 109 161 87 q 224 165 208 130 q 251 242 240 199 q 268 326 262 285 q 276 404 274 368 q 278 461 278 439 l 278 488 q 277 528 278 506 q 272 574 275 551 q 262 618 269 598 q 244 650 255 637 q 216 662 233 662 q 165 658 186 671 q 131 612 144 644 q 111 534 118 581 q 103 433 104 488 q 102 315 102 377 q 103 190 103 252 m 49 1002 q 81 1030 68 1023 q 117 1038 95 1038 q 153 1002 153 1038 q 149 984 153 994 q 136 965 144 974 q 119 951 129 956 q 102 949 110 945 q 82 947 92 944 q 64 958 72 949 q 51 977 56 966 q 49 1002 46 989 m 228 1002 q 262 1030 248 1023 q 297 1038 275 1038 q 334 1002 334 1038 q 329 984 334 994 q 316 965 324 974 q 298 951 308 956 q 281 949 289 945 q 262 947 273 944 q 243 958 251 949 q 231 977 235 966 q 228 1002 227 989 z "},"":{"ha":480,"x_min":33,"x_max":444,"o":"m 203 201 q 210 233 203 221 q 240 244 217 244 q 275 208 275 244 q 263 172 275 190 q 231 155 251 155 q 207 170 210 155 q 203 201 203 184 m 184 548 q 189 578 184 566 q 221 590 194 590 q 254 578 250 590 q 258 549 258 567 q 254 519 258 534 q 231 503 251 503 q 184 548 184 503 m 33 381 q 40 399 33 385 q 52 416 47 412 q 157 426 111 420 q 243 437 202 431 q 328 448 285 444 q 423 452 370 452 q 435 445 431 452 q 441 429 439 438 q 444 412 444 420 l 444 403 q 442 390 444 397 q 441 381 441 382 l 137 363 q 119 361 134 362 q 98 361 104 361 l 87 359 q 65 361 77 359 q 43 367 53 362 q 33 381 33 372 z "},"":{"ha":370,"x_min":-4,"x_max":374,"o":"m -4 -68 l 43 66 q 42 72 42 68 q 35 134 35 103 q 34 186 34 165 q 24 307 24 248 q 32 427 24 366 q 54 554 39 488 q 87 696 68 620 q 95 724 87 711 q 117 745 103 736 q 145 760 130 754 q 174 765 160 765 q 228 746 203 765 q 271 701 251 727 l 309 807 l 374 807 l 311 629 q 330 590 321 606 q 345 482 340 543 q 346 359 350 422 q 327 237 342 297 q 285 126 312 176 q 215 42 258 76 q 114 0 172 8 q 84 5 96 0 l 41 -115 q 9 -104 23 -115 q -4 -77 -4 -92 l -4 -68 m 244 650 q 216 662 233 662 q 165 658 186 671 q 131 612 144 644 q 111 534 118 581 q 103 433 104 488 q 102 315 102 377 q 103 228 103 271 l 250 642 l 244 650 m 121 87 l 129 87 q 184 109 161 87 q 224 165 208 130 q 251 242 240 199 q 268 326 262 285 q 276 404 274 368 q 278 461 278 439 l 278 488 q 277 529 278 506 q 275 536 277 532 l 117 96 q 121 87 118 91 z "},"":{"ha":538,"x_min":45,"x_max":498,"o":"m 380 157 q 353 113 374 141 q 304 58 332 85 q 245 9 275 30 q 191 -12 214 -12 q 120 28 148 -12 q 77 133 92 69 q 57 275 62 197 q 50 427 52 353 q 49 563 49 502 q 45 655 49 624 q 59 671 50 669 q 80 674 68 674 q 100 671 91 674 q 115 655 109 669 q 116 605 115 640 q 119 526 117 570 q 125 433 122 481 q 130 342 127 385 q 134 264 132 298 q 137 213 136 229 q 140 182 138 203 q 147 136 142 160 q 159 94 152 113 q 179 73 167 75 q 220 91 199 73 q 262 136 241 109 q 300 195 282 163 q 332 258 317 228 q 353 313 346 289 q 362 349 361 338 q 368 414 365 372 q 372 506 370 457 q 374 598 373 555 q 374 665 374 642 l 449 661 q 448 462 450 551 q 446 295 445 373 q 458 144 448 217 q 498 -8 469 71 q 481 -20 494 -12 q 464 -27 469 -27 q 418 -5 430 -27 q 404 48 407 18 q 398 109 400 79 q 380 157 396 140 m 281 821 q 250 854 267 836 q 215 893 232 872 q 185 935 198 914 q 171 972 172 956 l 171 982 q 178 1013 171 1000 q 205 1027 186 1027 q 260 963 233 996 q 303 901 288 930 q 316 850 319 872 q 281 821 313 829 z "},"":{"ha":538,"x_min":45,"x_max":498,"o":"m 380 157 q 353 113 374 141 q 304 58 332 85 q 245 9 275 30 q 191 -12 214 -12 q 120 28 148 -12 q 77 133 92 69 q 57 275 62 197 q 50 427 52 353 q 49 563 49 502 q 45 655 49 624 q 59 671 50 669 q 80 674 68 674 q 100 671 91 674 q 115 655 109 669 q 116 605 115 640 q 119 526 117 570 q 125 433 122 481 q 130 342 127 385 q 134 264 132 298 q 137 213 136 229 q 140 182 138 203 q 147 136 142 160 q 159 94 152 113 q 179 73 167 75 q 220 91 199 73 q 262 136 241 109 q 300 195 282 163 q 332 258 317 228 q 353 313 346 289 q 362 349 361 338 q 368 414 365 372 q 372 506 370 457 q 374 598 373 555 q 374 665 374 642 l 449 661 q 448 462 450 551 q 446 295 445 373 q 458 144 448 217 q 498 -8 469 71 q 481 -20 494 -12 q 464 -27 469 -27 q 418 -5 430 -27 q 404 48 407 18 q 398 109 400 79 q 380 157 396 140 m 255 815 q 215 844 218 823 q 229 890 212 864 q 278 947 247 917 q 340 1006 309 978 q 372 994 363 1006 q 380 966 380 982 l 380 956 q 363 921 377 940 q 331 883 350 902 q 291 846 312 864 q 255 815 270 829 z "},"":{"ha":538,"x_min":31,"x_max":514,"o":"m 380 157 q 353 113 374 141 q 304 58 332 85 q 245 9 275 30 q 191 -12 214 -12 q 120 28 148 -12 q 77 133 92 69 q 57 275 62 197 q 50 427 52 353 q 49 563 49 502 q 45 655 49 624 q 59 671 50 669 q 80 674 68 674 q 100 671 91 674 q 115 655 109 669 q 116 605 115 640 q 119 526 117 570 q 125 433 122 481 q 130 342 127 385 q 134 264 132 298 q 137 213 136 229 q 140 182 138 203 q 147 136 142 160 q 159 94 152 113 q 179 73 167 75 q 220 91 199 73 q 262 136 241 109 q 300 195 282 163 q 332 258 317 228 q 353 313 346 289 q 362 349 361 338 q 368 414 365 372 q 372 506 370 457 q 374 598 373 555 q 374 665 374 642 l 449 661 q 448 462 450 551 q 446 295 445 373 q 458 144 448 217 q 498 -8 469 71 q 481 -20 494 -12 q 464 -27 469 -27 q 418 -5 430 -27 q 404 48 407 18 q 398 109 400 79 q 380 157 396 140 m 31 941 q 32 947 31 944 q 33 952 33 951 l 205 1274 q 220 1287 206 1279 q 248 1295 233 1295 q 252 1295 250 1295 q 255 1294 255 1294 l 477 1035 q 509 1021 505 1029 q 514 1000 514 1013 q 512 985 514 994 q 505 969 510 977 q 490 956 499 962 q 468 951 481 951 l 463 951 q 461 952 461 951 l 271 1190 q 245 1202 264 1202 l 239 1202 l 84 932 q 76 925 83 929 q 66 921 69 921 q 37 926 42 921 q 31 941 31 932 z "},"":{"ha":538,"x_min":45,"x_max":498,"o":"m 380 157 q 353 113 374 141 q 304 58 332 85 q 245 9 275 30 q 191 -12 214 -12 q 120 28 148 -12 q 77 133 92 69 q 57 275 62 197 q 50 427 52 353 q 49 563 49 502 q 45 655 49 624 q 59 671 50 669 q 80 674 68 674 q 100 671 91 674 q 115 655 109 669 q 116 605 115 640 q 119 526 117 570 q 125 433 122 481 q 130 342 127 385 q 134 264 132 298 q 137 213 136 229 q 140 182 138 203 q 147 136 142 160 q 159 94 152 113 q 179 73 167 75 q 220 91 199 73 q 262 136 241 109 q 300 195 282 163 q 332 258 317 228 q 353 313 346 289 q 362 349 361 338 q 368 414 365 372 q 372 506 370 457 q 374 598 373 555 q 374 665 374 642 l 449 661 q 448 462 450 551 q 446 295 445 373 q 458 144 448 217 q 498 -8 469 71 q 481 -20 494 -12 q 464 -27 469 -27 q 418 -5 430 -27 q 404 48 407 18 q 398 109 400 79 q 380 157 396 140 m 130 1002 q 163 1030 149 1023 q 198 1038 176 1038 q 235 1002 235 1038 q 230 984 235 994 q 218 965 225 974 q 201 951 210 956 q 183 949 191 945 q 163 947 174 944 q 145 958 153 949 q 132 977 137 966 q 130 1002 127 989 m 309 1002 q 343 1030 330 1023 q 378 1038 357 1038 q 415 1002 415 1038 q 410 984 415 994 q 397 965 406 974 q 380 951 389 956 q 362 949 370 945 q 343 947 354 944 q 324 958 332 949 q 312 977 316 966 q 309 1002 308 989 z "},"":{"ha":505,"x_min":30,"x_max":476,"o":"m 384 5 l 34 566 q 31 576 33 567 q 30 590 30 585 q 36 621 30 608 q 68 633 42 633 q 87 627 73 633 q 103 616 100 621 q 165 510 133 568 q 231 393 197 452 q 304 281 266 335 q 384 190 342 228 l 416 722 q 424 722 418 722 q 433 723 430 723 q 457 720 445 723 q 475 701 469 716 q 475 581 476 652 q 473 433 475 509 q 469 287 471 357 q 465 175 467 217 q 460 94 464 148 q 452 -29 457 39 q 441 -174 448 -98 q 430 -317 435 -250 q 420 -440 425 -385 q 414 -519 416 -495 l 343 -519 l 384 5 m 239 815 q 199 844 202 823 q 213 890 195 864 q 262 947 231 917 q 324 1006 293 978 q 355 994 347 1006 q 363 966 363 982 l 363 956 q 347 921 361 940 q 315 883 334 902 q 275 846 296 864 q 239 815 254 829 z "},"":{"ha":610,"x_min":42,"x_max":582,"o":"m 49 -12 q 62 159 58 83 q 66 301 66 235 q 62 429 66 368 q 54 557 58 491 q 46 699 50 623 q 42 869 42 774 q 51 898 45 887 q 85 902 57 909 q 119 871 114 897 q 121 814 125 846 q 113 751 118 783 q 114 701 107 720 q 196 762 156 732 q 278 811 236 791 q 367 840 320 831 q 471 836 414 848 q 559 791 534 821 q 581 723 585 762 q 550 637 578 684 q 481 543 522 591 q 389 449 439 495 q 290 363 339 403 q 199 292 241 323 q 132 248 157 262 q 127 187 129 224 q 123 111 126 151 q 118 35 121 72 l 115 -26 q 106 -29 114 -27 q 90 -31 99 -31 q 73 -32 80 -31 q 61 -31 65 -33 q 53 -24 57 -31 q 49 -12 49 -16 m 119 567 q 117 519 115 547 q 123 462 119 492 q 132 402 127 431 q 137 353 136 373 q 248 428 189 392 q 359 505 307 464 q 453 600 412 547 q 510 726 494 652 q 506 765 517 755 q 471 780 495 774 q 363 778 420 791 q 255 735 305 765 q 168 661 205 705 q 119 567 130 617 z "},"":{"ha":505,"x_min":30,"x_max":476,"o":"m 384 5 l 34 566 q 31 576 33 567 q 30 590 30 585 q 36 621 30 608 q 68 633 42 633 q 87 627 73 633 q 103 616 100 621 q 165 510 133 568 q 231 393 197 452 q 304 281 266 335 q 384 190 342 228 l 416 722 q 424 722 418 722 q 433 723 430 723 q 457 720 445 723 q 475 701 469 716 q 475 581 476 652 q 473 433 475 509 q 469 287 471 357 q 465 175 467 217 q 460 94 464 148 q 452 -29 457 39 q 441 -174 448 -98 q 430 -317 435 -250 q 420 -440 425 -385 q 414 -519 416 -495 l 343 -519 l 384 5 m 114 1002 q 146 1030 133 1023 q 182 1038 160 1038 q 218 1002 218 1038 q 214 984 218 994 q 201 965 209 974 q 184 951 194 956 q 167 949 175 945 q 147 947 157 944 q 129 958 137 949 q 116 977 121 966 q 114 1002 111 989 m 293 1002 q 327 1030 313 1023 q 362 1038 340 1038 q 399 1002 399 1038 q 394 984 399 994 q 381 965 389 974 q 363 951 373 956 q 346 949 354 945 q 327 947 338 944 q 308 958 316 949 q 296 977 300 966 q 293 1002 292 989 z "},"":{"ha":543,"x_min":0,"x_max":663,"o":"m 35 35 q 42 84 39 54 q 50 163 45 114 q 60 283 54 212 q 77 458 66 355 q 102 701 88 562 q 140 1024 117 840 q 153 1040 141 1038 q 174 1043 164 1043 q 198 1032 189 1043 q 215 1008 208 1021 q 229 979 222 994 q 244 955 236 964 q 272 883 258 924 q 302 796 286 842 q 335 703 319 750 q 368 612 351 656 q 398 531 384 568 q 425 469 412 494 q 467 481 439 471 q 525 500 494 491 q 586 515 556 510 q 636 516 616 521 q 663 492 656 511 q 652 433 669 473 q 635 436 643 433 q 618 443 627 439 q 602 450 610 446 q 582 453 593 453 q 551 446 575 453 q 500 429 528 438 q 453 412 473 420 q 433 399 433 403 l 526 31 l 491 -20 q 452 70 468 19 q 423 172 437 121 q 395 267 410 222 q 359 340 381 311 q 292 317 331 327 q 216 294 252 308 q 153 256 179 279 q 121 191 126 232 q 116 148 118 175 q 111 96 114 121 q 104 35 107 66 l 35 35 m 191 834 l 189 811 q 184 758 187 788 q 178 695 182 727 q 174 642 175 663 q 159 492 167 566 q 152 340 152 418 q 207 347 178 340 q 263 366 236 354 q 313 394 290 377 q 347 433 335 411 q 323 531 336 480 q 296 634 311 582 q 263 736 281 686 q 225 834 245 787 q 216 840 224 836 q 191 834 208 845 m 0 1128 q 7 1147 0 1134 q 19 1164 15 1161 q 138 1175 79 1168 q 257 1191 198 1183 q 372 1205 316 1199 q 483 1211 429 1211 q 494 1204 490 1211 q 500 1190 499 1198 q 502 1173 502 1181 l 502 1162 q 501 1150 502 1158 q 500 1141 500 1142 l 104 1112 q 87 1110 102 1111 q 65 1109 73 1109 l 54 1108 q 33 1109 45 1108 q 10 1115 20 1111 q 0 1128 0 1119 z "},"":{"ha":509,"x_min":1,"x_max":507,"o":"m 420 35 q 409 120 414 71 q 399 220 404 170 q 386 316 393 271 q 363 389 378 361 q 241 168 294 248 q 149 52 189 87 q 81 19 109 18 q 37 43 54 20 q 12 102 19 66 q 1 170 4 138 q 15 254 1 199 q 52 372 28 308 q 106 503 75 437 q 175 624 138 570 q 251 713 212 678 q 330 749 290 749 q 416 724 388 758 q 426 608 444 689 q 433 454 426 518 q 450 332 441 391 q 466 210 458 274 q 473 57 473 146 q 470 29 473 41 q 437 18 467 18 q 427 24 433 18 q 420 35 420 31 m 347 642 q 307 646 332 663 q 252 587 281 628 q 194 490 224 547 q 138 374 164 433 q 94 264 113 316 q 68 178 75 212 q 83 123 68 129 q 119 138 98 117 q 169 201 141 160 q 223 288 197 241 q 273 377 250 334 q 311 448 297 420 q 330 500 323 476 q 341 547 336 525 q 347 593 346 570 q 347 642 347 616 m 5 949 q 13 968 5 955 q 24 985 20 982 q 144 996 84 989 q 262 1012 203 1004 q 378 1026 321 1020 q 488 1032 434 1032 q 500 1025 495 1032 q 506 1010 505 1019 q 507 994 507 1002 l 507 983 q 507 971 507 979 q 506 962 506 963 l 110 933 q 93 931 107 932 q 71 930 79 930 l 60 929 q 38 930 50 929 q 16 936 26 932 q 5 949 5 940 z "},"":{"ha":543,"x_min":35,"x_max":663,"o":"m 35 35 q 42 84 39 54 q 50 163 45 114 q 60 283 54 212 q 77 458 66 355 q 102 701 88 562 q 140 1024 117 840 q 153 1040 141 1038 q 174 1043 164 1043 q 198 1032 189 1043 q 215 1008 208 1021 q 229 979 222 994 q 244 955 236 964 q 272 883 258 924 q 302 796 286 842 q 335 703 319 750 q 368 612 351 656 q 398 531 384 568 q 425 469 412 494 q 467 481 439 471 q 525 500 494 491 q 586 515 556 510 q 636 516 616 521 q 663 492 656 511 q 652 433 669 473 q 635 436 643 433 q 618 443 627 439 q 602 450 610 446 q 582 453 593 453 q 551 446 575 453 q 500 429 528 438 q 453 412 473 420 q 433 399 433 403 l 526 31 l 491 -20 q 452 70 468 19 q 423 172 437 121 q 395 267 410 222 q 359 340 381 311 q 292 317 331 327 q 216 294 252 308 q 153 256 179 279 q 121 191 126 232 q 116 148 118 175 q 111 96 114 121 q 104 35 107 66 l 35 35 m 191 834 l 189 811 q 184 758 187 788 q 178 695 182 727 q 174 642 175 663 q 159 492 167 566 q 152 340 152 418 q 207 347 178 340 q 263 366 236 354 q 313 394 290 377 q 347 433 335 411 q 323 531 336 480 q 296 634 311 582 q 263 736 281 686 q 225 834 245 787 q 216 840 224 836 q 191 834 208 845 m 145 1282 q 160 1268 151 1279 q 182 1246 170 1257 q 213 1229 195 1236 q 252 1227 231 1222 q 298 1254 273 1233 q 351 1320 323 1275 q 393 1338 378 1340 q 412 1322 408 1336 q 412 1288 415 1308 q 400 1252 408 1268 q 323 1173 358 1198 q 259 1142 289 1147 q 205 1147 229 1137 q 163 1173 182 1157 q 129 1207 144 1190 l 104 1238 q 73 1285 75 1264 q 85 1316 72 1306 q 117 1319 98 1325 q 145 1282 136 1313 z "},"":{"ha":509,"x_min":1,"x_max":473,"o":"m 420 35 q 409 120 414 71 q 399 220 404 170 q 386 316 393 271 q 363 389 378 361 q 241 168 294 248 q 149 52 189 87 q 81 19 109 18 q 37 43 54 20 q 12 102 19 66 q 1 170 4 138 q 15 254 1 199 q 52 372 28 308 q 106 503 75 437 q 175 624 138 570 q 251 713 212 678 q 330 749 290 749 q 416 724 388 758 q 426 608 444 689 q 433 454 426 518 q 450 332 441 391 q 466 210 458 274 q 473 57 473 146 q 470 29 473 41 q 437 18 467 18 q 427 24 433 18 q 420 35 420 31 m 347 642 q 307 646 332 663 q 252 587 281 628 q 194 490 224 547 q 138 374 164 433 q 94 264 113 316 q 68 178 75 212 q 83 123 68 129 q 119 138 98 117 q 169 201 141 160 q 223 288 197 241 q 273 377 250 334 q 311 448 297 420 q 330 500 323 476 q 341 547 336 525 q 347 593 346 570 q 347 642 347 616 m 174 971 q 189 958 179 968 q 211 936 198 947 q 241 918 224 925 q 280 917 259 911 q 326 943 301 922 q 380 1009 351 964 q 422 1027 407 1029 q 440 1011 437 1025 q 440 977 444 997 q 429 941 437 958 q 352 862 387 887 q 288 831 317 837 q 234 836 258 826 q 191 863 210 846 q 157 897 172 879 l 133 928 q 102 975 103 954 q 113 1005 100 996 q 145 1008 126 1015 q 174 971 164 1002 z "},"":{"ha":543,"x_min":35,"x_max":666,"o":"m 647 -216 q 666 -260 674 -236 q 627 -304 658 -285 q 547 -335 595 -324 q 445 -336 499 -346 q 368 -277 395 -321 q 342 -176 340 -232 q 374 -65 343 -121 q 468 26 404 -9 q 452 69 458 46 q 423 172 437 121 q 395 267 410 222 q 359 340 381 311 q 292 317 331 327 q 216 294 252 308 q 153 256 179 279 q 121 191 126 232 q 116 148 118 175 q 111 96 114 121 q 104 35 107 66 l 35 35 q 42 84 39 54 q 50 163 45 114 q 60 283 54 212 q 77 458 66 355 q 102 701 88 562 q 140 1024 117 840 q 153 1040 141 1038 q 174 1043 164 1043 q 198 1032 189 1043 q 215 1008 208 1021 q 229 979 222 994 q 244 955 236 964 q 272 883 258 924 q 302 796 286 842 q 335 703 319 750 q 368 612 351 656 q 398 531 384 568 q 425 469 412 494 q 467 481 439 471 q 525 500 494 491 q 586 515 556 510 q 636 516 616 521 q 663 492 656 511 q 652 433 669 473 q 635 436 643 433 q 618 443 627 439 q 602 450 610 446 q 582 453 593 453 q 551 446 575 453 q 500 429 528 438 q 453 412 473 420 q 433 399 433 403 l 526 31 l 511 11 q 514 -5 514 5 q 502 -35 514 -20 q 472 -50 490 -50 q 429 -121 445 -85 q 413 -187 414 -157 q 427 -238 412 -217 q 473 -263 442 -259 q 517 -256 495 -263 q 559 -240 538 -250 q 602 -223 581 -231 q 647 -216 624 -216 m 191 834 l 189 811 q 184 758 187 788 q 178 695 182 727 q 174 642 175 663 q 159 492 167 566 q 152 340 152 418 q 207 347 178 340 q 263 366 236 354 q 313 394 290 377 q 347 433 335 411 q 323 531 336 480 q 296 634 311 582 q 263 736 281 686 q 225 834 245 787 q 216 840 224 836 q 191 834 208 845 z "},"":{"ha":509,"x_min":1,"x_max":618,"o":"m 600 -164 q 618 -208 627 -183 q 579 -252 610 -232 q 500 -283 548 -273 q 397 -283 452 -293 q 320 -224 347 -269 q 294 -123 293 -179 q 326 -12 296 -68 q 414 75 354 39 q 408 119 411 95 q 399 220 404 170 q 386 316 393 271 q 363 389 378 361 q 241 168 294 248 q 149 52 189 87 q 81 19 109 18 q 37 43 54 20 q 12 102 19 66 q 1 170 4 138 q 15 254 1 199 q 52 372 28 308 q 106 503 75 437 q 175 624 138 570 q 251 713 212 678 q 330 749 290 749 q 416 724 388 758 q 426 608 444 689 q 433 454 426 518 q 450 332 441 391 q 466 210 458 274 q 473 57 473 146 q 469 28 473 41 q 456 18 468 20 l 454 18 q 425 3 442 3 q 381 -68 396 -33 q 366 -135 366 -104 q 380 -186 365 -165 q 426 -212 395 -206 q 469 -204 448 -212 q 512 -187 491 -197 q 555 -171 533 -178 q 600 -164 576 -164 m 347 642 q 307 646 332 663 q 252 587 281 628 q 194 490 224 547 q 138 374 164 433 q 94 264 113 316 q 68 178 75 212 q 83 123 68 129 q 119 138 98 117 q 169 201 141 160 q 223 288 197 241 q 273 377 250 334 q 311 448 297 420 q 330 500 323 476 q 341 547 336 525 q 347 593 346 570 q 347 642 347 616 z "},"":{"ha":677,"x_min":34,"x_max":643,"o":"m 34 243 q 43 361 34 286 q 70 521 52 435 q 115 694 88 606 q 180 852 142 781 q 265 967 217 922 q 372 1012 313 1012 q 429 1000 406 1012 q 469 966 453 987 q 492 919 484 945 q 499 861 499 892 q 460 874 475 861 q 433 902 445 887 q 408 930 420 917 q 373 943 395 943 q 293 901 330 943 q 227 796 256 860 q 174 654 197 732 q 135 503 151 576 q 111 368 119 429 q 103 278 103 308 q 107 201 103 239 q 125 134 111 164 q 164 86 138 104 q 237 68 190 68 q 345 103 292 68 q 445 189 399 138 q 525 298 491 240 q 574 399 559 355 q 586 401 576 400 q 598 401 595 401 q 629 398 614 401 q 643 373 643 395 q 605 281 635 330 q 534 187 575 233 q 445 102 494 141 q 350 35 396 62 q 264 -2 304 8 q 201 0 225 -12 q 124 25 156 0 q 73 87 92 50 q 43 165 53 123 q 34 243 34 208 m 304 1036 q 264 1065 267 1044 q 278 1112 260 1085 q 327 1168 296 1138 q 389 1227 358 1199 q 420 1215 412 1227 q 429 1187 429 1203 l 429 1177 q 412 1142 426 1161 q 380 1104 399 1123 q 340 1067 361 1085 q 304 1036 319 1050 z "},"":{"ha":543,"x_min":35,"x_max":495,"o":"m 35 312 q 43 418 39 361 q 56 533 47 476 q 79 642 65 590 q 117 733 94 693 q 176 797 141 773 q 262 819 212 821 q 314 791 296 819 q 340 722 332 762 q 348 638 347 681 q 349 568 349 595 q 304 592 321 568 q 277 647 286 616 q 263 708 267 678 l 259 747 q 254 748 258 747 q 250 749 251 749 q 207 723 227 749 q 170 657 187 697 q 141 568 153 617 q 121 471 129 518 q 108 383 113 423 q 103 321 103 343 q 103 244 100 286 q 119 165 106 202 q 157 102 133 129 q 222 66 182 76 q 304 80 273 66 q 355 117 335 94 q 385 168 374 140 q 406 227 396 197 q 427 288 416 258 q 458 343 438 317 q 482 342 475 347 q 492 330 490 338 q 495 311 495 321 l 495 296 q 476 186 495 239 q 420 92 457 133 q 333 25 384 50 q 217 0 282 0 q 127 35 163 0 q 71 118 91 69 q 43 220 52 167 q 35 312 35 274 m 221 926 q 181 955 184 935 q 195 1002 178 975 q 244 1059 213 1028 q 307 1118 275 1089 q 338 1105 330 1118 q 346 1077 346 1093 l 346 1067 q 330 1032 343 1051 q 297 994 316 1013 q 257 958 278 975 q 221 926 236 940 z "},"":{"ha":677,"x_min":34,"x_max":643,"o":"m 34 243 q 43 361 34 286 q 70 521 52 435 q 115 694 88 606 q 180 852 142 781 q 265 967 217 922 q 372 1012 313 1012 q 429 1000 406 1012 q 469 966 453 987 q 492 919 484 945 q 499 861 499 892 q 460 874 475 861 q 433 902 445 887 q 408 930 420 917 q 373 943 395 943 q 293 901 330 943 q 227 796 256 860 q 174 654 197 732 q 135 503 151 576 q 111 368 119 429 q 103 278 103 308 q 107 201 103 239 q 125 134 111 164 q 164 86 138 104 q 237 68 190 68 q 345 103 292 68 q 445 189 399 138 q 525 298 491 240 q 574 399 559 355 q 586 401 576 400 q 598 401 595 401 q 629 398 614 401 q 643 373 643 395 q 605 281 635 330 q 534 187 575 233 q 445 102 494 141 q 350 35 396 62 q 264 -2 304 8 q 201 0 225 -12 q 124 25 156 0 q 73 87 92 50 q 43 165 53 123 q 34 243 34 208 m 92 1036 q 93 1042 92 1039 q 94 1047 94 1046 l 266 1369 q 281 1382 267 1374 q 309 1390 294 1390 q 313 1390 311 1390 q 316 1389 316 1389 l 538 1130 q 570 1116 566 1124 q 575 1095 575 1108 q 573 1080 575 1089 q 566 1064 571 1072 q 551 1051 560 1057 q 529 1046 543 1046 l 524 1046 q 522 1047 522 1046 l 332 1284 q 307 1297 326 1297 l 300 1297 l 145 1027 q 137 1020 144 1024 q 127 1016 130 1016 q 98 1021 103 1016 q 92 1036 92 1027 z "},"":{"ha":543,"x_min":33,"x_max":515,"o":"m 35 312 q 43 418 39 361 q 56 533 47 476 q 79 642 65 590 q 117 733 94 693 q 176 797 141 773 q 262 819 212 821 q 314 791 296 819 q 340 722 332 762 q 348 638 347 681 q 349 568 349 595 q 304 592 321 568 q 277 647 286 616 q 263 708 267 678 l 259 747 q 254 748 258 747 q 250 749 251 749 q 207 723 227 749 q 170 657 187 697 q 141 568 153 617 q 121 471 129 518 q 108 383 113 423 q 103 321 103 343 q 103 244 100 286 q 119 165 106 202 q 157 102 133 129 q 222 66 182 76 q 304 80 273 66 q 355 117 335 94 q 385 168 374 140 q 406 227 396 197 q 427 288 416 258 q 458 343 438 317 q 482 342 475 347 q 492 330 490 338 q 495 311 495 321 l 495 296 q 476 186 495 239 q 420 92 457 133 q 333 25 384 50 q 217 0 282 0 q 127 35 163 0 q 71 118 91 69 q 43 220 52 167 q 35 312 35 274 m 33 941 q 33 947 33 944 q 34 952 34 951 l 206 1274 q 221 1287 208 1279 q 250 1295 235 1295 q 254 1295 251 1295 q 256 1294 256 1294 l 479 1035 q 511 1021 506 1029 q 515 1000 515 1013 q 513 985 515 994 q 506 969 511 977 q 492 956 500 962 q 469 951 483 951 l 464 951 q 463 952 463 951 l 273 1190 q 247 1202 266 1202 l 240 1202 l 85 932 q 77 925 84 929 q 68 921 71 921 q 38 926 43 921 q 33 941 33 932 z "},"":{"ha":677,"x_min":34,"x_max":643,"o":"m 34 243 q 43 361 34 286 q 70 521 52 435 q 115 694 88 606 q 180 852 142 781 q 265 967 217 922 q 372 1012 313 1012 q 429 1000 406 1012 q 469 966 453 987 q 492 919 484 945 q 499 861 499 892 q 460 874 475 861 q 433 902 445 887 q 408 930 420 917 q 373 943 395 943 q 293 901 330 943 q 227 796 256 860 q 174 654 197 732 q 135 503 151 576 q 111 368 119 429 q 103 278 103 308 q 107 201 103 239 q 125 134 111 164 q 164 86 138 104 q 237 68 190 68 q 345 103 292 68 q 445 189 399 138 q 525 298 491 240 q 574 399 559 355 q 586 401 576 400 q 598 401 595 401 q 629 398 614 401 q 643 373 643 395 q 605 281 635 330 q 534 187 575 233 q 445 102 494 141 q 350 35 396 62 q 264 -2 304 8 q 201 0 225 -12 q 124 25 156 0 q 73 87 92 50 q 43 165 53 123 q 34 243 34 208 m 274 1181 q 307 1210 293 1203 q 342 1217 320 1217 q 378 1181 378 1217 q 374 1164 378 1175 q 361 1145 369 1154 q 344 1131 353 1135 q 326 1130 335 1126 q 307 1126 317 1123 q 288 1137 297 1130 q 275 1156 279 1145 q 274 1181 271 1168 z "},"":{"ha":543,"x_min":33,"x_max":492,"o":"m 33 312 q 41 418 37 361 q 54 533 45 476 q 77 642 62 590 q 115 733 91 693 q 174 797 138 773 q 259 819 209 821 q 311 791 293 819 q 337 722 330 762 q 345 638 345 681 q 346 568 346 595 q 301 592 319 568 q 274 647 283 616 q 260 708 264 678 l 256 747 q 252 748 255 747 q 247 749 248 749 q 204 723 224 749 q 168 657 184 697 q 138 568 151 617 q 118 471 126 518 q 105 383 110 423 q 100 321 100 343 q 100 244 98 286 q 117 165 103 202 q 155 102 130 129 q 220 66 179 76 q 301 80 270 66 q 352 117 332 94 q 382 168 372 140 q 404 227 393 197 q 425 288 414 258 q 456 343 435 317 q 479 342 472 347 q 490 330 487 338 q 492 311 492 321 l 492 296 q 473 186 492 239 q 418 92 454 133 q 330 25 381 50 q 214 0 279 0 q 124 35 160 0 q 68 118 88 69 q 41 220 49 167 q 33 312 33 274 m 170 920 q 195 947 184 940 q 221 953 205 953 q 249 920 249 953 q 246 904 249 914 q 236 886 242 895 q 223 872 230 877 q 209 872 216 868 q 195 868 203 865 q 181 879 187 872 q 171 896 174 886 q 170 920 168 907 z "},"":{"ha":677,"x_min":34,"x_max":643,"o":"m 34 243 q 43 361 34 286 q 70 521 52 435 q 115 694 88 606 q 180 852 142 781 q 265 967 217 922 q 372 1012 313 1012 q 429 1000 406 1012 q 469 966 453 987 q 492 919 484 945 q 499 861 499 892 q 460 874 475 861 q 433 902 445 887 q 408 930 420 917 q 373 943 395 943 q 293 901 330 943 q 227 796 256 860 q 174 654 197 732 q 135 503 151 576 q 111 368 119 429 q 103 278 103 308 q 107 201 103 239 q 125 134 111 164 q 164 86 138 104 q 237 68 190 68 q 345 103 292 68 q 445 189 399 138 q 525 298 491 240 q 574 399 559 355 q 586 401 576 400 q 598 401 595 401 q 629 398 614 401 q 643 373 643 395 q 605 281 635 330 q 534 187 575 233 q 445 102 494 141 q 350 35 396 62 q 264 -2 304 8 q 201 0 225 -12 q 124 25 156 0 q 73 87 92 50 q 43 165 53 123 q 34 243 34 208 m 113 1287 q 118 1297 113 1293 q 146 1301 123 1301 q 155 1298 149 1301 q 164 1293 161 1295 l 312 1108 l 317 1108 q 343 1115 336 1108 l 524 1280 l 532 1280 q 566 1268 556 1280 q 575 1246 575 1256 q 570 1232 575 1237 q 540 1222 566 1227 l 327 1044 q 323 1044 326 1044 q 320 1043 321 1043 q 294 1048 307 1043 q 278 1058 281 1054 l 114 1280 q 113 1283 113 1282 l 113 1287 z "},"":{"ha":543,"x_min":35,"x_max":506,"o":"m 35 312 q 43 418 39 361 q 56 533 47 476 q 79 642 65 590 q 117 733 94 693 q 176 797 141 773 q 262 819 212 821 q 314 791 296 819 q 340 722 332 762 q 348 638 347 681 q 349 568 349 595 q 304 592 321 568 q 277 647 286 616 q 263 708 267 678 l 259 747 q 254 748 258 747 q 250 749 251 749 q 207 723 227 749 q 170 657 187 697 q 141 568 153 617 q 121 471 129 518 q 108 383 113 423 q 103 321 103 343 q 103 244 100 286 q 119 165 106 202 q 157 102 133 129 q 222 66 182 76 q 304 80 273 66 q 355 117 335 94 q 385 168 374 140 q 406 227 396 197 q 427 288 416 258 q 458 343 438 317 q 482 342 475 347 q 492 330 490 338 q 495 311 495 321 l 495 296 q 476 186 495 239 q 420 92 457 133 q 333 25 384 50 q 217 0 282 0 q 127 35 163 0 q 71 118 91 69 q 43 220 52 167 q 35 312 35 274 m 43 1099 q 49 1108 43 1104 q 77 1112 54 1112 q 86 1109 80 1112 q 95 1104 92 1107 l 243 920 l 248 920 q 274 926 267 920 l 454 1092 l 463 1092 q 496 1080 487 1092 q 506 1058 506 1067 q 501 1044 506 1048 q 471 1034 496 1039 l 258 856 q 254 855 256 856 q 251 854 252 854 q 224 860 237 854 q 209 869 212 865 l 45 1092 q 43 1095 43 1093 l 43 1099 z "},"":{"ha":770,"x_min":30,"x_max":739,"o":"m 218 27 q 252 97 218 54 q 336 194 286 140 q 446 312 387 248 q 556 444 506 376 q 640 584 606 513 q 674 724 674 655 q 654 787 674 761 q 602 833 633 814 q 530 863 570 852 q 449 880 490 873 q 372 888 408 886 q 309 890 335 890 q 292 889 302 890 q 269 888 281 888 q 248 886 258 887 q 237 884 239 884 l 220 868 q 219 845 220 865 q 218 799 218 825 q 217 746 217 773 l 217 704 q 227 432 217 567 q 237 160 237 297 q 238 142 237 152 q 237 124 239 133 q 230 109 236 115 q 212 103 224 103 q 195 107 203 103 q 186 121 187 111 l 133 834 q 119 827 129 831 q 98 817 109 822 q 77 805 87 811 q 64 799 66 799 q 59 798 62 799 q 54 798 56 798 q 39 801 47 798 q 30 817 30 804 q 39 850 30 837 q 62 873 47 863 q 92 895 76 884 q 123 923 109 906 q 146 966 137 940 q 155 1031 155 991 q 189 1021 182 1031 q 197 999 195 1012 q 200 973 198 986 q 220 955 202 960 q 311 955 258 956 q 424 946 365 954 q 541 924 483 939 q 644 882 598 909 q 715 813 689 854 q 739 712 742 772 q 672 511 722 608 q 555 326 623 415 q 410 156 488 237 q 255 0 332 75 q 251 -1 254 0 q 247 -1 248 -1 q 227 7 235 -1 q 218 27 218 15 m 176 1283 q 182 1293 176 1289 q 210 1297 187 1297 q 219 1294 213 1297 q 228 1289 225 1291 l 376 1104 l 381 1104 q 407 1111 400 1104 l 587 1276 l 595 1276 q 629 1264 620 1276 q 639 1242 639 1252 q 634 1228 639 1233 q 604 1218 629 1223 l 391 1040 q 387 1040 389 1040 q 384 1039 385 1039 q 357 1044 370 1039 q 342 1054 345 1050 l 178 1276 q 176 1279 176 1278 l 176 1283 z "},"":{"ha":659,"x_min":41,"x_max":636,"o":"m 98 35 q 99 251 98 145 q 98 461 100 357 q 87 671 95 566 q 62 884 79 776 q 59 895 62 887 q 53 912 56 903 q 47 928 50 921 q 45 937 45 935 q 50 954 45 944 q 62 972 54 963 q 79 986 69 981 q 98 990 88 991 q 124 970 114 986 q 140 934 134 954 q 147 895 145 914 q 149 868 149 876 q 241 915 190 890 q 345 961 292 940 q 452 996 399 982 q 553 1010 506 1010 q 549 989 553 998 q 530 972 544 979 l 149 781 l 149 728 q 153 677 151 713 q 157 599 155 640 q 162 520 160 557 q 165 469 164 483 l 445 625 l 452 633 q 469 648 458 642 q 492 656 480 655 q 514 642 503 656 q 490 594 514 617 q 429 548 465 571 q 349 503 392 525 q 270 461 307 481 q 209 420 233 441 q 184 382 184 400 l 184 121 q 234 127 202 114 q 305 163 266 140 q 387 216 345 186 q 469 274 429 247 q 543 323 509 301 q 601 349 578 345 q 625 343 614 349 q 636 321 636 338 q 617 296 636 305 q 508 224 570 267 q 382 139 446 182 q 257 62 319 96 q 151 16 195 27 q 122 19 133 16 q 98 35 111 22 m 41 1107 q 48 1126 41 1112 q 60 1142 56 1139 q 179 1154 119 1146 q 298 1169 239 1161 q 413 1183 357 1177 q 524 1190 469 1190 q 535 1183 530 1190 q 541 1168 540 1176 q 543 1152 543 1160 l 543 1141 q 542 1128 543 1137 q 541 1119 541 1120 l 145 1090 q 128 1088 142 1089 q 106 1088 114 1088 l 95 1086 q 73 1088 85 1086 q 51 1093 61 1089 q 41 1107 41 1097 z "},"":{"ha":642,"x_min":-12,"x_max":609,"o":"m 75 293 q 54 289 68 292 q 26 288 41 286 q -1 296 11 289 q -12 319 -12 302 q -8 332 -12 328 q 5 345 -4 336 q 56 408 35 369 q 95 490 77 446 q 132 578 113 534 q 178 658 152 623 q 241 715 203 693 q 335 735 279 736 q 387 724 358 735 q 439 695 415 713 q 480 651 464 677 q 496 594 496 625 q 484 563 503 583 q 430 519 464 543 q 353 470 396 495 q 271 423 311 445 q 202 385 232 401 q 163 361 172 369 q 152 330 156 347 q 146 296 148 312 q 143 268 144 281 q 142 248 142 255 q 140 191 142 222 q 143 132 138 160 q 165 86 148 104 q 225 68 183 68 q 309 90 270 68 q 382 145 349 113 q 444 216 416 178 q 494 287 472 254 q 534 342 517 320 q 564 363 552 363 q 593 359 578 363 q 609 336 609 354 q 589 278 609 312 q 538 206 570 244 q 465 131 506 168 q 381 64 423 94 q 298 17 339 35 q 227 -1 258 -1 q 134 28 165 -1 q 90 103 103 58 q 77 199 77 148 q 75 293 76 250 m 324 659 q 275 637 301 659 q 227 583 250 614 q 191 517 205 551 q 176 463 176 484 q 235 478 197 463 q 312 517 274 494 q 378 566 350 540 q 407 614 407 591 q 397 635 407 627 q 375 648 388 643 q 349 656 362 654 q 324 659 335 659 m 69 949 q 77 968 69 955 q 88 985 84 982 q 208 996 148 989 q 326 1012 267 1004 q 441 1026 385 1020 q 552 1032 498 1032 q 564 1025 559 1032 q 570 1010 568 1019 q 571 994 571 1002 l 571 983 q 570 971 571 979 q 570 962 570 963 l 174 933 q 157 931 171 932 q 134 930 142 930 l 123 929 q 102 930 114 929 q 79 936 90 932 q 69 949 69 940 z "},"":{"ha":659,"x_min":45,"x_max":636,"o":"m 98 35 q 99 251 98 145 q 98 461 100 357 q 87 671 95 566 q 62 884 79 776 q 59 895 62 887 q 53 912 56 903 q 47 928 50 921 q 45 937 45 935 q 50 954 45 944 q 62 972 54 963 q 79 986 69 981 q 98 990 88 991 q 124 970 114 986 q 140 934 134 954 q 147 895 145 914 q 149 868 149 876 q 241 915 190 890 q 345 961 292 940 q 452 996 399 982 q 553 1010 506 1010 q 549 989 553 998 q 530 972 544 979 l 149 781 l 149 728 q 153 677 151 713 q 157 599 155 640 q 162 520 160 557 q 165 469 164 483 l 445 625 l 452 633 q 469 648 458 642 q 492 656 480 655 q 514 642 503 656 q 490 594 514 617 q 429 548 465 571 q 349 503 392 525 q 270 461 307 481 q 209 420 233 441 q 184 382 184 400 l 184 121 q 234 127 202 114 q 305 163 266 140 q 387 216 345 186 q 469 274 429 247 q 543 323 509 301 q 601 349 578 345 q 625 343 614 349 q 636 321 636 338 q 617 296 636 305 q 508 224 570 267 q 382 139 446 182 q 257 62 319 96 q 151 16 195 27 q 122 19 133 16 q 98 35 111 22 m 239 1219 q 254 1206 244 1217 q 276 1184 263 1195 q 307 1166 289 1173 q 345 1165 324 1160 q 391 1192 366 1171 q 445 1257 416 1213 q 487 1276 472 1278 q 505 1259 502 1274 q 505 1225 509 1245 q 494 1190 502 1206 q 417 1110 452 1135 q 353 1080 382 1085 q 299 1084 323 1074 q 256 1111 275 1095 q 222 1145 237 1127 l 198 1176 q 167 1223 168 1202 q 178 1253 165 1244 q 210 1257 191 1263 q 239 1219 229 1251 z "},"":{"ha":642,"x_min":-12,"x_max":609,"o":"m 75 293 q 54 289 68 292 q 26 288 41 286 q -1 296 11 289 q -12 319 -12 302 q -8 332 -12 328 q 5 345 -4 336 q 56 408 35 369 q 95 490 77 446 q 132 578 113 534 q 178 658 152 623 q 241 715 203 693 q 335 735 279 736 q 387 724 358 735 q 439 695 415 713 q 480 651 464 677 q 496 594 496 625 q 484 563 503 583 q 430 519 464 543 q 353 470 396 495 q 271 423 311 445 q 202 385 232 401 q 163 361 172 369 q 152 330 156 347 q 146 296 148 312 q 143 268 144 281 q 142 248 142 255 q 140 191 142 222 q 143 132 138 160 q 165 86 148 104 q 225 68 183 68 q 309 90 270 68 q 382 145 349 113 q 444 216 416 178 q 494 287 472 254 q 534 342 517 320 q 564 363 552 363 q 593 359 578 363 q 609 336 609 354 q 589 278 609 312 q 538 206 570 244 q 465 131 506 168 q 381 64 423 94 q 298 17 339 35 q 227 -1 258 -1 q 134 28 165 -1 q 90 103 103 58 q 77 199 77 148 q 75 293 76 250 m 324 659 q 275 637 301 659 q 227 583 250 614 q 191 517 205 551 q 176 463 176 484 q 235 478 197 463 q 312 517 274 494 q 378 566 350 540 q 407 614 407 591 q 397 635 407 627 q 375 648 388 643 q 349 656 362 654 q 324 659 335 659 m 240 971 q 255 958 245 968 q 277 936 264 947 q 308 918 290 925 q 347 917 326 911 q 393 943 368 922 q 446 1009 418 964 q 488 1027 473 1029 q 507 1011 503 1025 q 507 977 510 997 q 495 941 503 958 q 418 862 453 887 q 354 831 384 837 q 300 836 324 826 q 258 863 277 846 q 224 897 239 879 l 199 928 q 168 975 170 954 q 180 1005 167 996 q 212 1008 193 1015 q 240 971 231 1002 z "},"":{"ha":659,"x_min":45,"x_max":636,"o":"m 98 35 q 99 251 98 145 q 98 461 100 357 q 87 671 95 566 q 62 884 79 776 q 59 895 62 887 q 53 912 56 903 q 47 928 50 921 q 45 937 45 935 q 50 954 45 944 q 62 972 54 963 q 79 986 69 981 q 98 990 88 991 q 124 970 114 986 q 140 934 134 954 q 147 895 145 914 q 149 868 149 876 q 241 915 190 890 q 345 961 292 940 q 452 996 399 982 q 553 1010 506 1010 q 549 989 553 998 q 530 972 544 979 l 149 781 l 149 728 q 153 677 151 713 q 157 599 155 640 q 162 520 160 557 q 165 469 164 483 l 445 625 l 452 633 q 469 648 458 642 q 492 656 480 655 q 514 642 503 656 q 490 594 514 617 q 429 548 465 571 q 349 503 392 525 q 270 461 307 481 q 209 420 233 441 q 184 382 184 400 l 184 121 q 234 127 202 114 q 305 163 266 140 q 387 216 345 186 q 469 274 429 247 q 543 323 509 301 q 601 349 578 345 q 625 343 614 349 q 636 321 636 338 q 617 296 636 305 q 508 224 570 267 q 382 139 446 182 q 257 62 319 96 q 151 16 195 27 q 122 19 133 16 q 98 35 111 22 m 222 1076 q 255 1104 241 1097 q 290 1111 269 1111 q 327 1076 327 1111 q 322 1059 327 1069 q 309 1039 317 1048 q 292 1025 301 1029 q 274 1024 283 1020 q 256 1021 266 1017 q 237 1031 245 1024 q 224 1050 228 1039 q 222 1076 220 1062 z "},"":{"ha":642,"x_min":-12,"x_max":609,"o":"m 75 293 q 54 289 68 292 q 26 288 41 286 q -1 296 11 289 q -12 319 -12 302 q -8 332 -12 328 q 5 345 -4 336 q 56 408 35 369 q 95 490 77 446 q 132 578 113 534 q 178 658 152 623 q 241 715 203 693 q 335 735 279 736 q 387 724 358 735 q 439 695 415 713 q 480 651 464 677 q 496 594 496 625 q 484 563 503 583 q 430 519 464 543 q 353 470 396 495 q 271 423 311 445 q 202 385 232 401 q 163 361 172 369 q 152 330 156 347 q 146 296 148 312 q 143 268 144 281 q 142 248 142 255 q 140 191 142 222 q 143 132 138 160 q 165 86 148 104 q 225 68 183 68 q 309 90 270 68 q 382 145 349 113 q 444 216 416 178 q 494 287 472 254 q 534 342 517 320 q 564 363 552 363 q 593 359 578 363 q 609 336 609 354 q 589 278 609 312 q 538 206 570 244 q 465 131 506 168 q 381 64 423 94 q 298 17 339 35 q 227 -1 258 -1 q 134 28 165 -1 q 90 103 103 58 q 77 199 77 148 q 75 293 76 250 m 324 659 q 275 637 301 659 q 227 583 250 614 q 191 517 205 551 q 176 463 176 484 q 235 478 197 463 q 312 517 274 494 q 378 566 350 540 q 407 614 407 591 q 397 635 407 627 q 375 648 388 643 q 349 656 362 654 q 324 659 335 659 m 273 812 q 305 841 292 834 q 340 848 319 848 q 377 812 377 848 q 372 795 377 806 q 359 776 368 785 q 342 762 351 766 q 324 761 334 757 q 306 758 316 754 q 287 768 296 761 q 274 787 278 776 q 273 812 270 799 z "}}}
